<svg xmlns="http://www.w3.org/2000/svg" viewBox="0 0 800 3616.9407" width="800" height="3616.9407"><rect width="100%" height="100%" fill="#fdf6e3" /><text x="32.00" y="60.16" font-family="sans-serif" font-size="35.20" fill="#268bd2" font-weight="700">Markie</text><text x="168.05" y="60.16" font-family="sans-serif" font-size="35.20" fill="#268bd2" font-weight="700">Feature</text><text x="312.97" y="60.16" font-family="sans-serif" font-size="35.20" fill="#268bd2" font-weight="700">Examples</text><text x="32.00" y="86.40" font-family="sans-serif" font-size="16.00" fill="#586e75">This</text><text x="66.77" y="86.40" font-family="sans-serif" font-size="16.00" fill="#586e75">document</text><text x="147.31" y="86.40" font-family="sans-serif" font-size="16.00" fill="#586e75">showcases</text><text x="231.33" y="86.40" font-family="sans-serif" font-size="16.00" fill="#586e75">Markdown</text><text x="313.78" y="86.40" font-family="sans-serif" font-size="16.00" fill="#586e75">features</text><text x="377.89" y="86.40" font-family="sans-serif" font-size="16.00" fill="#586e75">supported</text><text x="458.99" y="86.40" font-family="sans-serif" font-size="16.00" fill="#586e75">by</text><text x="480.74" y="86.40" font-family="sans-serif" font-size="16.00" fill="#586e75">Markie,</text><text x="539.07" y="86.40" font-family="sans-serif" font-size="16.00" fill="#586e75">including</text><text x="612.34" y="86.40" font-family="sans-serif" font-size="16.00" fill="#586e75">enhanced</text><text x="689.58" y="86.40" font-family="sans-serif" font-size="16.00" fill="#586e75">math</text><text x="732.50" y="86.40" font-family="sans-serif" font-size="16.00" fill="#586e75">and</text><text x="32.00" y="112.00" font-family="sans-serif" font-size="16.00" fill="#586e75">native</text><text x="81.68" y="112.00" font-family="sans-serif" font-size="16.00" fill="#586e75">Mermaid</text><text x="151.47" y="112.00" font-family="sans-serif" font-size="16.00" fill="#586e75">diagrams.</text><text x="32.00" y="161.44" font-family="sans-serif" font-size="28.80" fill="#268bd2" font-weight="700">Text</text><text x="101.72" y="161.44" font-family="sans-serif" font-size="28.80" fill="#268bd2" font-weight="700">Formatting</text><text x="32.00" y="186.40" font-family="sans-serif" font-size="16.00" fill="#586e75">You</text><text x="62.75" y="186.40" font-family="sans-serif" font-size="16.00" fill="#586e75">can</text><text x="93.09" y="186.40" font-family="sans-serif" font-size="16.00" fill="#586e75">use</text><text x="122.74" y="186.40" font-family="sans-serif" font-size="16.00" fill="#586e75" font-weight="700">bold</text><text x="163.68" y="186.40" font-family="sans-serif" font-size="16.00" fill="#586e75" font-weight="700">text</text><text x="194.86" y="186.40" font-family="sans-serif" font-size="16.00" fill="#586e75">,</text><text x="202.90" y="186.40" font-family="sans-serif" font-size="16.00" fill="#586e75" font-style="italic">italic</text><text x="270.10" y="186.40" font-family="sans-serif" font-size="16.00" fill="#586e75" font-style="italic">text</text><text x="308.50" y="186.40" font-family="sans-serif" font-size="16.00" fill="#586e75">,</text><text x="316.53" y="186.40" font-family="sans-serif" font-size="16.00" fill="#586e75">and</text><rect x="348.80" y="172.00" width="109.80" height="21.00" rx="4.00" fill="#073642" /><text x="360.80" y="186.40" font-family="monospace" font-size="13.00" fill="#586e75">inline&#160;code</text><text x="462.18" y="186.40" font-family="sans-serif" font-size="16.00" fill="#586e75">for</text><text x="486.70" y="186.40" font-family="sans-serif" font-size="16.00" fill="#586e75">emphasis.</text><text x="32.00" y="218.40" font-family="sans-serif" font-size="16.00" fill="#586e75">Strikethrough</text><line x1="32.00" y1="213.28" x2="134.86" y2="213.28" stroke="#586e75" stroke-width="1" /><text x="138.45" y="218.40" font-family="sans-serif" font-size="16.00" fill="#586e75">text</text><line x1="138.45" y1="213.28" x2="166.54" y2="213.28" stroke="#586e75" stroke-width="1" /><text x="170.13" y="218.40" font-family="sans-serif" font-size="16.00" fill="#586e75">is</text><text x="185.60" y="218.40" font-family="sans-serif" font-size="16.00" fill="#586e75">also</text><text x="219.92" y="218.40" font-family="sans-serif" font-size="16.00" fill="#586e75">supported.</text><text x="32.00" y="267.84" font-family="sans-serif" font-size="28.80" fill="#268bd2" font-weight="700">Links</text><text x="120.50" y="267.84" font-family="sans-serif" font-size="28.80" fill="#268bd2" font-weight="700">and</text><text x="183.23" y="267.84" font-family="sans-serif" font-size="28.80" fill="#268bd2" font-weight="700">Images</text><text x="32.00" y="292.80" font-family="sans-serif" font-size="16.00" fill="#2aa198">Link</text><line x1="32.00" y1="294.72" x2="63.68" y2="294.72" stroke="#2aa198" stroke-width="1" /><text x="67.26" y="292.80" font-family="sans-serif" font-size="16.00" fill="#2aa198">text</text><line x1="67.26" y1="294.72" x2="95.36" y2="294.72" stroke="#2aa198" stroke-width="1" /><text x="98.94" y="292.80" font-family="sans-serif" font-size="16.00" fill="#586e75">renders</text><text x="159.60" y="292.80" font-family="sans-serif" font-size="16.00" fill="#586e75">as</text><text x="179.68" y="292.80" font-family="sans-serif" font-size="16.00" fill="#586e75">colored</text><text x="239.79" y="292.80" font-family="sans-serif" font-size="16.00" fill="#586e75">text.</text><text x="32.00" y="324.80" font-family="sans-serif" font-size="16.00" fill="#586e75">Images</text><text x="89.23" y="324.80" font-family="sans-serif" font-size="16.00" fill="#586e75">from</text><text x="128.56" y="324.80" font-family="sans-serif" font-size="16.00" fill="#586e75">local</text><text x="167.92" y="324.80" font-family="sans-serif" font-size="16.00" fill="#586e75">files</text><text x="202.00" y="324.80" font-family="sans-serif" font-size="16.00" fill="#586e75">or</text><text x="221.49" y="324.80" font-family="sans-serif" font-size="16.00" fill="#586e75">URLs:</text><rect x="32.00" y="336.00" width="195.60" height="21.00" rx="4.00" fill="#073642" /><text x="44.00" y="350.40" font-family="monospace" font-size="13.00" fill="#586e75">![Alt&#160;text](image.png)</text><text x="32.00" y="399.84" font-family="sans-serif" font-size="28.80" fill="#268bd2" font-weight="700">Lists</text><text x="32.00" y="445.60" font-family="sans-serif" font-size="24.00" fill="#268bd2" font-weight="700">Unordered</text><text x="170.50" y="445.60" font-family="sans-serif" font-size="24.00" fill="#268bd2" font-weight="700">Lists</text><text x="45.44" y="476.00" font-family="sans-serif" font-size="16.00" fill="#586e75">Item</text><text x="32.00" y="476.00" font-family="sans-serif" font-size="16.00" fill="#586e75">•</text><text x="83.18" y="476.00" font-family="sans-serif" font-size="16.00" fill="#586e75">1</text><text x="45.44" y="501.60" font-family="sans-serif" font-size="16.00" fill="#586e75">Item</text><text x="32.00" y="501.60" font-family="sans-serif" font-size="16.00" fill="#586e75">•</text><text x="83.18" y="501.60" font-family="sans-serif" font-size="16.00" fill="#586e75">2</text><text x="69.44" y="527.20" font-family="sans-serif" font-size="16.00" fill="#586e75">Nested</text><text x="56.00" y="527.20" font-family="sans-serif" font-size="16.00" fill="#586e75">•</text><text x="125.17" y="527.20" font-family="sans-serif" font-size="16.00" fill="#586e75">item</text><text x="45.44" y="552.80" font-family="sans-serif" font-size="16.00" fill="#586e75">Item</text><text x="32.00" y="552.80" font-family="sans-serif" font-size="16.00" fill="#586e75">•</text><text x="83.18" y="552.80" font-family="sans-serif" font-size="16.00" fill="#586e75">3</text><text x="32.00" y="596.00" font-family="sans-serif" font-size="24.00" fill="#268bd2" font-weight="700">Ordered</text><text x="139.02" y="596.00" font-family="sans-serif" font-size="24.00" fill="#268bd2" font-weight="700">Lists</text><text x="53.33" y="626.40" font-family="sans-serif" font-size="16.00" fill="#586e75">First</text><text x="32.00" y="626.40" font-family="sans-serif" font-size="16.00" fill="#586e75">1.</text><text x="89.46" y="626.40" font-family="sans-serif" font-size="16.00" fill="#586e75">item</text><text x="53.33" y="652.00" font-family="sans-serif" font-size="16.00" fill="#586e75">Second</text><text x="32.00" y="652.00" font-family="sans-serif" font-size="16.00" fill="#586e75">2.</text><text x="112.46" y="652.00" font-family="sans-serif" font-size="16.00" fill="#586e75">item</text><text x="53.33" y="677.60" font-family="sans-serif" font-size="16.00" fill="#586e75">Third</text><text x="32.00" y="677.60" font-family="sans-serif" font-size="16.00" fill="#586e75">3.</text><text x="96.56" y="677.60" font-family="sans-serif" font-size="16.00" fill="#586e75">item</text><text x="32.00" y="720.80" font-family="sans-serif" font-size="24.00" fill="#268bd2" font-weight="700">Task</text><text x="94.54" y="720.80" font-family="sans-serif" font-size="24.00" fill="#268bd2" font-weight="700">Lists</text><rect x="32.00" y="741.68" width="13.60" height="13.60" rx="2" ry="2" stroke="#586e75" fill="none" stroke-width="1" /><polyline points="34.72,749.16 38.12,752.56 42.88,744.40" fill="none" stroke="#586e75" stroke-width="2" stroke-linecap="round" stroke-linejoin="round" /><text x="53.60" y="751.20" font-family="sans-serif" font-size="16.00" fill="#586e75">Completed</text><text x="139.63" y="751.20" font-family="sans-serif" font-size="16.00" fill="#586e75">task</text><rect x="32.00" y="767.28" width="13.60" height="13.60" rx="2" ry="2" stroke="#586e75" fill="none" stroke-width="1" /><text x="53.60" y="776.80" font-family="sans-serif" font-size="16.00" fill="#586e75">Pending</text><text x="118.61" y="776.80" font-family="sans-serif" font-size="16.00" fill="#586e75">task</text><text x="32.00" y="826.24" font-family="sans-serif" font-size="28.80" fill="#268bd2" font-weight="700">Code</text><text x="112.90" y="826.24" font-family="sans-serif" font-size="28.80" fill="#268bd2" font-weight="700">Blocks</text><rect x="32.00" y="838.40" width="265.80" height="70.60" rx="4.00" fill="#073642" /><text x="44.00" y="856.80" font-family="monospace" font-size="13.00" fill="#268bd2">fn</text><text x="59.60" y="856.80" font-family="monospace" font-size="13.00" fill="#839496">&#160;</text><text x="67.40" y="856.80" font-family="monospace" font-size="13.00" fill="#b58900">main</text><text x="98.60" y="856.80" font-family="monospace" font-size="13.00" fill="#657b83">(</text><text x="106.40" y="856.80" font-family="monospace" font-size="13.00" fill="#657b83">)</text><text x="114.20" y="856.80" font-family="monospace" font-size="13.00" fill="#839496">&#160;</text><text x="122.00" y="856.80" font-family="monospace" font-size="13.00" fill="#657b83">{</text><text x="44.00" y="877.60" font-family="monospace" font-size="13.00" fill="#839496">&#160;&#160;&#160;&#160;</text><text x="75.20" y="877.60" font-family="monospace" font-size="13.00" fill="#859900">println!</text><text x="137.60" y="877.60" font-family="monospace" font-size="13.00" fill="#657b83">(</text><text x="145.40" y="877.60" font-family="monospace" font-size="13.00" fill="#839496">&quot;</text><text x="153.20" y="877.60" font-family="monospace" font-size="13.00" fill="#2aa198">Hello,&#160;Markie!</text><text x="262.40" y="877.60" font-family="monospace" font-size="13.00" fill="#839496">&quot;</text><text x="270.20" y="877.60" font-family="monospace" font-size="13.00" fill="#657b83">)</text><text x="278.00" y="877.60" font-family="monospace" font-size="13.00" fill="#839496">;</text><text x="44.00" y="898.40" font-family="monospace" font-size="13.00" fill="#657b83">}</text><text x="32.00" y="955.24" font-family="sans-serif" font-size="28.80" fill="#268bd2" font-weight="700">Tables</text><rect x="32.00" y="977.00" width="188.69" height="73.60" fill="none" stroke="#eee8d5" stroke-width="1" /><rect x="32.00" y="977.00" width="62.90" height="36.80" fill="none" stroke="#eee8d5" stroke-width="1" /><text x="40.00" y="995.40" font-family="sans-serif" font-size="16.00" fill="#586e75">Data&#160;1</text><rect x="94.90" y="977.00" width="62.90" height="36.80" fill="none" stroke="#eee8d5" stroke-width="1" /><text x="102.90" y="995.40" font-family="sans-serif" font-size="16.00" fill="#586e75">Data&#160;2</text><rect x="157.79" y="977.00" width="62.90" height="36.80" fill="none" stroke="#eee8d5" stroke-width="1" /><text x="165.79" y="995.40" font-family="sans-serif" font-size="16.00" fill="#586e75">Data&#160;3</text><rect x="32.00" y="1013.80" width="62.90" height="36.80" fill="none" stroke="#eee8d5" stroke-width="1" /><text x="40.00" y="1032.20" font-family="sans-serif" font-size="16.00" fill="#586e75">Data&#160;4</text><rect x="94.90" y="1013.80" width="62.90" height="36.80" fill="none" stroke="#eee8d5" stroke-width="1" /><text x="102.90" y="1032.20" font-family="sans-serif" font-size="16.00" fill="#586e75">Data&#160;5</text><rect x="157.79" y="1013.80" width="62.90" height="36.80" fill="none" stroke="#eee8d5" stroke-width="1" /><text x="165.79" y="1032.20" font-family="sans-serif" font-size="16.00" fill="#586e75">Data&#160;6</text><text x="32.00" y="1096.84" font-family="sans-serif" font-size="28.80" fill="#268bd2" font-weight="700">Blockquotes</text><text x="64.00" y="1121.80" font-family="sans-serif" font-size="16.00" fill="#586e75">This</text><text x="98.77" y="1121.80" font-family="sans-serif" font-size="16.00" fill="#586e75">is</text><text x="114.24" y="1121.80" font-family="sans-serif" font-size="16.00" fill="#586e75">a</text><text x="126.83" y="1121.80" font-family="sans-serif" font-size="16.00" fill="#586e75">blockquote.</text><text x="64.00" y="1147.40" font-family="sans-serif" font-size="16.00" fill="#586e75">It</text><text x="78.30" y="1147.40" font-family="sans-serif" font-size="16.00" fill="#586e75">can</text><text x="108.64" y="1147.40" font-family="sans-serif" font-size="16.00" fill="#586e75">span</text><text x="148.14" y="1147.40" font-family="sans-serif" font-size="16.00" fill="#586e75">multiple</text><text x="214.56" y="1147.40" font-family="sans-serif" font-size="16.00" fill="#586e75">lines.</text><line x1="38.00" y1="1096.20" x2="38.00" y2="1166.60" stroke="#eee8d5" stroke-width="2" /><text x="32.00" y="1196.84" font-family="sans-serif" font-size="28.80" fill="#268bd2" font-weight="700">Math</text><text x="32.00" y="1221.80" font-family="sans-serif" font-size="16.00" fill="#586e75">Inline</text><text x="77.60" y="1221.80" font-family="sans-serif" font-size="16.00" fill="#586e75">math:</text><text x="124.96" y="1221.80" font-family="serif" font-size="16.00" fill="#586e75" font-style="italic">E</text><text x="136.96" y="1221.80" font-family="serif" font-size="16.00" fill="#586e75">=</text><text x="148.24" y="1221.80" font-family="serif" font-size="16.00" fill="#586e75" font-style="italic">m</text><text x="157.84" y="1221.80" font-family="serif" font-size="16.00" fill="#586e75" font-style="italic">c</text><text x="167.44" y="1215.20" font-family="serif" font-size="11.20" fill="#586e75">2</text><text x="32.00" y="1253.80" font-family="sans-serif" font-size="16.00" fill="#586e75">Display</text><text x="90.29" y="1253.80" font-family="sans-serif" font-size="16.00" fill="#586e75">math:</text><text x="380.64" y="1327.40" font-family="serif" font-size="22.40" fill="#586e75">∑</text><text x="388.72" y="1303.20" font-family="serif" font-size="10.40" fill="#586e75" font-style="italic">n</text><text x="381.39" y="1343.04" font-family="serif" font-size="10.40" fill="#586e75" font-style="italic">i</text><text x="389.19" y="1343.04" font-family="serif" font-size="10.40" fill="#586e75">=</text><text x="396.52" y="1343.04" font-family="serif" font-size="10.40" fill="#586e75">1</text><text x="405.44" y="1326.12" font-family="serif" font-size="16.00" fill="#586e75" font-style="italic">x</text><text x="415.04" y="1334.04" font-family="serif" font-size="11.20" fill="#586e75" font-style="italic">i</text><text x="32.00" y="1391.88" font-family="sans-serif" font-size="28.80" fill="#268bd2" font-weight="700">Advanced</text><text x="182.88" y="1391.88" font-family="sans-serif" font-size="28.80" fill="#268bd2" font-weight="700">Math</text><text x="266.23" y="1391.88" font-family="sans-serif" font-size="28.80" fill="#268bd2" font-weight="700">(nth</text><text x="335.32" y="1391.88" font-family="sans-serif" font-size="28.80" fill="#268bd2" font-weight="700">root,</text><text x="413.28" y="1391.88" font-family="sans-serif" font-size="28.80" fill="#268bd2" font-weight="700">binomial,</text><text x="563.24" y="1391.88" font-family="sans-serif" font-size="28.80" fill="#268bd2" font-weight="700">matrix)</text><text x="32.00" y="1416.84" font-family="sans-serif" font-size="16.00" fill="#586e75">Inline</text><text x="77.60" y="1416.84" font-family="sans-serif" font-size="16.00" fill="#586e75">nth-root:</text><text x="148.10" y="1412.34" font-family="serif" font-size="9.60" fill="#586e75">3</text><path d="M 156.10 1414.44 L 159.46 1416.84 L 161.86 1399.44 L 212.61 1399.44 L 211.01 1398.64" stroke="#586e75" stroke-width="1.2" fill="none" /><text x="165.70" y="1416.84" font-family="serif" font-size="16.00" fill="#586e75" font-style="italic">x</text><text x="175.30" y="1410.24" font-family="serif" font-size="11.20" fill="#586e75">3</text><text x="183.91" y="1416.84" font-family="serif" font-size="16.00" fill="#586e75">+</text><text x="195.19" y="1416.84" font-family="serif" font-size="16.00" fill="#586e75" font-style="italic">y</text><text x="204.79" y="1410.24" font-family="serif" font-size="11.20" fill="#586e75">3</text><text x="32.00" y="1448.84" font-family="sans-serif" font-size="16.00" fill="#586e75">Inline</text><text x="77.60" y="1448.84" font-family="sans-serif" font-size="16.00" fill="#586e75">binomial:</text><text x="152.14" y="1448.84" font-family="serif" font-size="16.00" fill="#586e75">(</text><text x="160.75" y="1438.24" font-family="serif" font-size="13.60" fill="#586e75" font-style="italic">n</text><text x="160.75" y="1456.64" font-family="serif" font-size="13.60" fill="#586e75" font-style="italic">k</text><text x="172.11" y="1448.84" font-family="serif" font-size="16.00" fill="#586e75">)</text><text x="32.00" y="1480.84" font-family="sans-serif" font-size="16.00" fill="#586e75">Display</text><text x="90.29" y="1480.84" font-family="sans-serif" font-size="16.00" fill="#586e75">matrix:</text><text x="382.75" y="1539.24" font-family="serif" font-size="16.00" fill="#586e75">[</text><text x="388.16" y="1533.24" font-family="serif" font-size="14.40" fill="#586e75" font-style="italic">a</text><text x="403.20" y="1533.24" font-family="serif" font-size="14.40" fill="#586e75" font-style="italic">b</text><text x="388.16" y="1552.44" font-family="serif" font-size="14.40" fill="#586e75" font-style="italic">c</text><text x="403.20" y="1552.44" font-family="serif" font-size="14.40" fill="#586e75" font-style="italic">d</text><text x="411.84" y="1539.24" font-family="serif" font-size="16.00" fill="#586e75">]</text><text x="32.00" y="1584.84" font-family="sans-serif" font-size="16.00" fill="#586e75">Mixed</text><text x="79.42" y="1584.84" font-family="sans-serif" font-size="16.00" fill="#586e75">expression:</text><text x="348.41" y="1645.19" font-family="serif" font-size="9.60" fill="#586e75">4</text><path d="M 356.41 1649.79 L 359.77 1652.19 L 362.17 1626.44 L 412.53 1626.44 L 410.93 1625.64" stroke="#586e75" stroke-width="1.2" fill="none" /><text x="369.21" y="1641.59" font-family="serif" font-size="13.60" fill="#586e75" font-style="italic">a</text><text x="377.37" y="1635.98" font-family="serif" font-size="9.52" fill="#586e75">2</text><text x="384.70" y="1641.59" font-family="serif" font-size="13.60" fill="#586e75">+</text><text x="394.29" y="1641.59" font-family="serif" font-size="13.60" fill="#586e75" font-style="italic">b</text><text x="402.45" y="1635.98" font-family="serif" font-size="9.52" fill="#586e75">2</text><line x1="366.01" y1="1647.39" x2="410.93" y2="1647.39" stroke="#586e75" stroke-width="1" /><text x="381.75" y="1662.54" font-family="serif" font-size="13.60" fill="#586e75" font-style="italic">c</text><text x="389.91" y="1656.93" font-family="serif" font-size="9.52" fill="#586e75">2</text><text x="414.93" y="1652.19" font-family="serif" font-size="16.00" fill="#586e75">+</text><text x="426.21" y="1652.19" font-family="serif" font-size="16.00" fill="#586e75">(</text><text x="434.82" y="1641.59" font-family="serif" font-size="13.60" fill="#586e75" font-style="italic">n</text><text x="435.12" y="1659.99" font-family="serif" font-size="13.60" fill="#586e75">2</text><text x="446.18" y="1652.19" font-family="serif" font-size="16.00" fill="#586e75">)</text><text x="32.00" y="1712.18" font-family="sans-serif" font-size="28.80" fill="#268bd2" font-weight="700">Mermaid</text><text x="172.80" y="1712.18" font-family="sans-serif" font-size="28.80" fill="#268bd2" font-weight="700">Diagrams</text><text x="32.00" y="1757.94" font-family="sans-serif" font-size="24.00" fill="#268bd2" font-weight="700">Flowchart</text><rect x="32.00" y="1772.34" width="736.00" height="348.00" rx="4.00" fill="#073642" /><g transform="translate(300.00, 1782.34)"><path d="M 52.00 60.00 C 52.00 85.00, 74.00 85.00, 74.00 110.00" fill="none" stroke="#586e75" stroke-width="1.5" /><polygon points="74.00,110.00 74.66,96.60 63.68,101.43" fill="#586e75" /><path d="M 74.00 218.00 C 74.00 243.00, 172.00 243.00, 172.00 268.00" fill="none" stroke="#586e75" stroke-width="1.5" /><polygon points="172.00,268.00 164.04,257.20 158.58,267.89" fill="#586e75" /><rect x="103.05" y="239.69" width="29.00" height="20.00" rx="2" fill="#fdf6e3" /><text x="117.55" y="254.36" font-family="sans-serif" font-size="11.9" fill="#586e75" text-anchor="middle">Yes</text><path d="M 74.00 218.00 C 74.00 243.00, 52.00 243.00, 52.00 268.00" fill="none" stroke="#586e75" stroke-width="1.5" /><polygon points="52.00,268.00 62.32,259.43 51.34,254.60" fill="#586e75" /><rect x="41.02" y="224.17" width="22.00" height="20.00" rx="2" fill="#fdf6e3" /><text x="52.02" y="238.83" font-family="sans-serif" font-size="11.9" fill="#586e75" text-anchor="middle">No</text><path d="M 52.00 268.00 C 52.00 243.00, 74.00 243.00, 74.00 218.00" fill="none" stroke="#586e75" stroke-width="1.5" /><polygon points="74.00,218.00 63.68,226.57 74.66,231.40" fill="#586e75" /><rect x="20.00" y="20.00" width="64.00" height="40.00" fill="#073642" stroke="#586e75" stroke-width="1.5" /><text x="52.00" y="44.67" font-family="sans-serif" font-size="14.0" fill="#586e75" text-anchor="middle">Start</text><polygon points="74.00,110.00 128.00,164.00 74.00,218.00 20.00,164.00" fill="#073642" stroke="#586e75" stroke-width="1.5" /><text x="74.00" y="168.67" font-family="sans-serif" font-size="14.0" fill="#586e75" text-anchor="middle">Working?</text><rect x="144.00" y="268.00" width="56.00" height="40.00" fill="#073642" stroke="#586e75" stroke-width="1.5" /><text x="172.00" y="292.67" font-family="sans-serif" font-size="14.0" fill="#586e75" text-anchor="middle">Done</text><rect x="20.00" y="268.00" width="64.00" height="40.00" fill="#073642" stroke="#586e75" stroke-width="1.5" /><text x="52.00" y="292.67" font-family="sans-serif" font-size="14.0" fill="#586e75" text-anchor="middle">Retry</text></g><text x="32.00" y="2160.34" font-family="sans-serif" font-size="24.00" fill="#268bd2" font-weight="700">Sequence</text><rect x="32.00" y="2174.74" width="736.00" height="280.00" rx="4.00" fill="#073642" /><g transform="translate(190.00, 2184.74)"><rect x="40.00" y="20.00" width="120.00" height="40.00" fill="#073642" stroke="#586e75" stroke-width="1" rx="4" /><text x="100.00" y="44.67" font-family="sans-serif" font-size="14.0" fill="#586e75" text-anchor="middle">Alice</text><rect x="240.00" y="20.00" width="120.00" height="40.00" fill="#073642" stroke="#586e75" stroke-width="1" rx="4" /><text x="300.00" y="44.67" font-family="sans-serif" font-size="14.0" fill="#586e75" text-anchor="middle">Bob</text><line x1="100.00" y1="50.00" x2="100.00" y2="200.00" stroke="#586e75" stroke-width="1" stroke-dasharray="4,4" /><line x1="300.00" y1="50.00" x2="300.00" y2="200.00" stroke="#586e75" stroke-width="1" stroke-dasharray="4,4" /><line x1="100.00" y1="80.00" x2="300.00" y2="80.00" stroke="#586e75" stroke-width="1.5" /><polygon points="300.00,80.00 290.00,75.00 290.00,85.00" fill="#586e75" /><text x="200.00" y="72.00" font-family="sans-serif" font-size="11.9" fill="#586e75" text-anchor="middle">Hello</text><line x1="300.00" y1="130.00" x2="100.00" y2="130.00" stroke="#586e75" stroke-width="1.5" stroke-dasharray="4,4" /><polygon points="100.00,130.00 110.00,125.00 110.00,135.00" fill="#586e75" /><text x="200.00" y="122.00" font-family="sans-serif" font-size="11.9" fill="#586e75" text-anchor="middle">Hi</text></g><text x="32.00" y="2494.74" font-family="sans-serif" font-size="24.00" fill="#268bd2" font-weight="700">Class</text><rect x="32.00" y="2509.14" width="736.00" height="170.00" rx="4.00" fill="#073642" /><g transform="translate(160.00, 2519.14)"><rect x="40.00" y="40.00" width="180.00" height="110.00" fill="#073642" stroke="#586e75" stroke-width="1.5" /><text x="130.00" y="62.00" font-family="sans-serif" font-size="14.0" fill="#586e75" text-anchor="middle" font-weight="bold">Animal</text><line x1="40.00" y1="68.00" x2="220.00" y2="68.00" stroke="#586e75" stroke-width="1" /><text x="48.00" y="86.00" font-family="monospace" font-size="11.9" fill="#586e75">+ String name</text><text x="48.00" y="98.60" font-family="monospace" font-size="11.9" fill="#586e75">+ int age</text><line x1="40.00" y1="113.20" x2="220.00" y2="113.20" stroke="#586e75" stroke-width="1" /><text x="48.00" y="129.20" font-family="monospace" font-size="11.9" fill="#586e75">+ makeSound()</text><rect x="320.00" y="40.00" width="180.00" height="70.00" fill="#073642" stroke="#586e75" stroke-width="1.5" /><text x="410.00" y="62.00" font-family="sans-serif" font-size="14.0" fill="#586e75" text-anchor="middle" font-weight="bold">Dog</text><line x1="320.00" y1="68.00" x2="500.00" y2="68.00" stroke="#586e75" stroke-width="1" /><line x1="320.00" y1="88.00" x2="500.00" y2="88.00" stroke="#586e75" stroke-width="1" /><text x="328.00" y="104.00" font-family="monospace" font-size="11.9" fill="#586e75">+ bark()</text><line x1="130.00" y1="95.00" x2="410.00" y2="75.00" stroke="#586e75" stroke-width="1.5" /><polygon points="410.00,75.00 395.54,69.02 396.53,82.98 400.03,75.71" fill="#073642" stroke="#586e75" stroke-width="1" /></g><text x="32.00" y="2719.14" font-family="sans-serif" font-size="24.00" fill="#268bd2" font-weight="700">State</text><rect x="32.00" y="2733.54" width="736.00" height="280.00" rx="4.00" fill="#073642" /><g transform="translate(330.00, 2743.54)"><line x1="57.28" y1="62.78" x2="90.76" y2="131.14" stroke="#586e75" stroke-width="1.5" /><polygon points="90.76,131.14 90.85,119.96 81.87,124.36" fill="#586e75" /><line x1="100.00" y1="166.00" x2="100.00" y2="219.00" stroke="#586e75" stroke-width="1.5" /><polygon points="100.00,219.00 105.00,209.00 95.00,209.00" fill="#586e75" /><line x1="96.04" y1="224.50" x2="56.21" y2="68.47" stroke="#586e75" stroke-width="1.5" /><polygon points="56.21,68.47 53.83,79.40 63.52,76.92" fill="#586e75" /><circle cx="52.00" cy="52.00" r="12.00" fill="#586e75" /><rect x="40.00" y="130.00" width="120.00" height="40.00" rx="10.00" fill="#073642" stroke="#586e75" stroke-width="1.5" /><text x="100.00" y="154.67" font-family="sans-serif" font-size="14.0" fill="#586e75" text-anchor="middle">Idle</text><rect x="40.00" y="220.00" width="120.00" height="40.00" rx="10.00" fill="#073642" stroke="#586e75" stroke-width="1.5" /><text x="100.00" y="244.67" font-family="sans-serif" font-size="14.0" fill="#586e75" text-anchor="middle">Processing</text></g><text x="32.00" y="3053.54" font-family="sans-serif" font-size="24.00" fill="#268bd2" font-weight="700">ER</text><rect x="32.00" y="3067.94" width="736.00" height="100.00" rx="4.00" fill="#073642" /><g transform="translate(190.00, 3077.94)"><line x1="110.00" y1="60.00" x2="370.00" y2="60.00" stroke="#586e75" stroke-width="1.5" /><text x="120.00" y="55.00" font-family="sans-serif" font-size="10.5" fill="#586e75">1</text><text x="340.00" y="55.00" font-family="sans-serif" font-size="10.5" fill="#586e75">0..*</text><rect x="40.00" y="40.00" width="140.00" height="40.00" fill="#073642" stroke="#586e75" stroke-width="1.5" /><text x="110.00" y="60.00" font-family="sans-serif" font-size="14.0" fill="#586e75" text-anchor="middle" font-weight="bold">CUSTOMER</text><rect x="300.00" y="40.00" width="140.00" height="40.00" fill="#073642" stroke="#586e75" stroke-width="1.5" /><text x="370.00" y="60.00" font-family="sans-serif" font-size="14.0" fill="#586e75" text-anchor="middle" font-weight="bold">ORDER</text></g><text x="32.00" y="3214.18" font-family="sans-serif" font-size="28.80" fill="#268bd2" font-weight="700">Footnotes</text><text x="32.00" y="3239.14" font-family="sans-serif" font-size="16.00" fill="#586e75">This</text><text x="66.77" y="3239.14" font-family="sans-serif" font-size="16.00" fill="#586e75">is</text><text x="82.24" y="3239.14" font-family="sans-serif" font-size="16.00" fill="#586e75">a</text><text x="94.83" y="3239.14" font-family="sans-serif" font-size="16.00" fill="#586e75">reference</text><text x="168.50" y="3231.94" font-family="sans-serif" font-size="10.40" fill="#586e75">1</text><text x="177.85" y="3239.14" font-family="sans-serif" font-size="16.00" fill="#586e75">to</text><text x="196.92" y="3239.14" font-family="sans-serif" font-size="16.00" fill="#586e75">a</text><text x="209.52" y="3239.14" font-family="sans-serif" font-size="16.00" fill="#586e75">footnote.</text><text x="59.70" y="3279.14" font-family="sans-serif" font-size="16.00" fill="#586e75">This</text><text x="32.00" y="3279.14" font-family="sans-serif" font-size="16.00" fill="#586e75">[1]</text><text x="94.46" y="3279.14" font-family="sans-serif" font-size="16.00" fill="#586e75">is</text><text x="109.94" y="3279.14" font-family="sans-serif" font-size="16.00" fill="#586e75">the</text><text x="138.13" y="3279.14" font-family="sans-serif" font-size="16.00" fill="#586e75">footnote</text><text x="205.66" y="3279.14" font-family="sans-serif" font-size="16.00" fill="#586e75">content.</text><text x="32.00" y="3328.58" font-family="sans-serif" font-size="28.80" fill="#268bd2" font-weight="700">Definition</text><text x="187.20" y="3328.58" font-family="sans-serif" font-size="28.80" fill="#268bd2" font-weight="700">Lists</text><text x="32.00" y="3347.14" font-family="sans-serif" font-size="16.00" fill="#586e75" font-weight="700">Term</text><text x="79.12" y="3347.14" font-family="sans-serif" font-size="16.00" fill="#586e75" font-weight="700">1</text><text x="32.00" y="3372.74" font-family="sans-serif" font-size="16.00" fill="#586e75">Definition</text><text x="109.10" y="3372.74" font-family="sans-serif" font-size="16.00" fill="#586e75">1</text><text x="32.00" y="3398.34" font-family="sans-serif" font-size="16.00" fill="#586e75" font-weight="700">Term</text><text x="79.12" y="3398.34" font-family="sans-serif" font-size="16.00" fill="#586e75" font-weight="700">2</text><text x="32.00" y="3423.94" font-family="sans-serif" font-size="16.00" fill="#586e75">Definition</text><text x="109.10" y="3423.94" font-family="sans-serif" font-size="16.00" fill="#586e75">2</text><text x="32.00" y="3495.78" font-family="sans-serif" font-size="28.80" fill="#268bd2" font-weight="700">HTML</text><text x="32.00" y="3520.74" font-family="sans-serif" font-size="16.00" fill="#586e75">Inline</text><rect x="77.60" y="3506.34" width="70.80" height="21.00" rx="4.00" fill="#073642" /><text x="89.60" y="3520.74" font-family="monospace" font-size="13.00" fill="#586e75">&lt;span&gt;</text><text x="151.98" y="3520.74" font-family="sans-serif" font-size="16.00" fill="#586e75">tags</text><text x="186.74" y="3520.74" font-family="sans-serif" font-size="16.00" fill="#586e75">are</text><text x="214.22" y="3520.74" font-family="sans-serif" font-size="16.00" fill="#586e75">rendered</text><text x="286.06" y="3520.74" font-family="sans-serif" font-size="16.00" fill="#586e75">as</text><text x="306.14" y="3520.74" font-family="sans-serif" font-size="16.00" fill="#586e75">code.</text><rect x="32.00" y="3539.94" width="367.20" height="29.00" rx="4.00" fill="#073642" /><text x="44.00" y="3558.34" font-family="monospace" font-size="13.00" fill="#586e75">&lt;</text><text x="51.80" y="3558.34" font-family="monospace" font-size="13.00" fill="#268bd2">div</text><text x="75.20" y="3558.34" font-family="monospace" font-size="13.00" fill="#586e75">&gt;</text><text x="83.00" y="3558.34" font-family="monospace" font-size="13.00" fill="#839496">HTML&#160;blocks&#160;render&#160;as&#160;code&#160;blocks</text><text x="340.40" y="3558.34" font-family="monospace" font-size="13.00" fill="#586e75">&lt;/</text><text x="356.00" y="3558.34" font-family="monospace" font-size="13.00" fill="#268bd2">div</text><text x="379.40" y="3558.34" font-family="monospace" font-size="13.00" fill="#586e75">&gt;</text></svg>