<svg xmlns="http://www.w3.org/2000/svg" viewBox="0 0 800 4332.9404" width="800" height="4332.9404"><rect width="100%" height="100%" fill="#fdf6e3" /><text x="32.00" y="60.16" font-family="sans-serif" font-size="35.20" fill="#268bd2" font-weight="700">Markie</text><text x="168.05" y="60.16" font-family="sans-serif" font-size="35.20" fill="#268bd2" font-weight="700">Feature</text><text x="312.97" y="60.16" font-family="sans-serif" font-size="35.20" fill="#268bd2" font-weight="700">Examples</text><text x="32.00" y="86.40" font-family="sans-serif" font-size="16.00" fill="#586e75">This</text><text x="66.77" y="86.40" font-family="sans-serif" font-size="16.00" fill="#586e75">document</text><text x="147.31" y="86.40" font-family="sans-serif" font-size="16.00" fill="#586e75">showcases</text><text x="231.33" y="86.40" font-family="sans-serif" font-size="16.00" fill="#586e75">Markdown</text><text x="313.78" y="86.40" font-family="sans-serif" font-size="16.00" fill="#586e75">features</text><text x="377.89" y="86.40" font-family="sans-serif" font-size="16.00" fill="#586e75">supported</text><text x="458.99" y="86.40" font-family="sans-serif" font-size="16.00" fill="#586e75">by</text><text x="480.74" y="86.40" font-family="sans-serif" font-size="16.00" fill="#586e75">Markie,</text><text x="539.07" y="86.40" font-family="sans-serif" font-size="16.00" fill="#586e75">including</text><text x="612.34" y="86.40" font-family="sans-serif" font-size="16.00" fill="#586e75">enhanced</text><text x="689.58" y="86.40" font-family="sans-serif" font-size="16.00" fill="#586e75">math</text><text x="732.50" y="86.40" font-family="sans-serif" font-size="16.00" fill="#586e75">and</text><text x="32.00" y="112.00" font-family="sans-serif" font-size="16.00" fill="#586e75">native</text><text x="81.68" y="112.00" font-family="sans-serif" font-size="16.00" fill="#586e75">Mermaid</text><text x="151.47" y="112.00" font-family="sans-serif" font-size="16.00" fill="#586e75">diagrams.</text><text x="32.00" y="161.44" font-family="sans-serif" font-size="28.80" fill="#268bd2" font-weight="700">Text</text><text x="101.72" y="161.44" font-family="sans-serif" font-size="28.80" fill="#268bd2" font-weight="700">Formatting</text><text x="32.00" y="186.40" font-family="sans-serif" font-size="16.00" fill="#586e75">You</text><text x="62.75" y="186.40" font-family="sans-serif" font-size="16.00" fill="#586e75">can</text><text x="93.09" y="186.40" font-family="sans-serif" font-size="16.00" fill="#586e75">use</text><text x="122.74" y="186.40" font-family="sans-serif" font-size="16.00" fill="#586e75" font-weight="700">bold</text><text x="163.68" y="186.40" font-family="sans-serif" font-size="16.00" fill="#586e75" font-weight="700">text</text><text x="194.86" y="186.40" font-family="sans-serif" font-size="16.00" fill="#586e75">,</text><text x="202.90" y="186.40" font-family="sans-serif" font-size="16.00" fill="#586e75" font-style="italic">italic</text><text x="270.10" y="186.40" font-family="sans-serif" font-size="16.00" fill="#586e75" font-style="italic">text</text><text x="308.50" y="186.40" font-family="sans-serif" font-size="16.00" fill="#586e75">,</text><text x="316.53" y="186.40" font-family="sans-serif" font-size="16.00" fill="#586e75">and</text><rect x="348.80" y="172.00" width="109.80" height="21.00" rx="4.00" fill="#073642" /><text x="360.80" y="186.40" font-family="monospace" font-size="13.00" fill="#586e75">inline&#160;code</text><text x="462.18" y="186.40" font-family="sans-serif" font-size="16.00" fill="#586e75">for</text><text x="486.70" y="186.40" font-family="sans-serif" font-size="16.00" fill="#586e75">emphasis.</text><text x="32.00" y="218.40" font-family="sans-serif" font-size="16.00" fill="#586e75">Strikethrough</text><line x1="32.00" y1="213.28" x2="134.86" y2="213.28" stroke="#586e75" stroke-width="1" /><text x="138.45" y="218.40" font-family="sans-serif" font-size="16.00" fill="#586e75">text</text><line x1="138.45" y1="213.28" x2="166.54" y2="213.28" stroke="#586e75" stroke-width="1" /><text x="170.13" y="218.40" font-family="sans-serif" font-size="16.00" fill="#586e75">is</text><text x="185.60" y="218.40" font-family="sans-serif" font-size="16.00" fill="#586e75">also</text><text x="219.92" y="218.40" font-family="sans-serif" font-size="16.00" fill="#586e75">supported.</text><text x="32.00" y="267.84" font-family="sans-serif" font-size="28.80" fill="#268bd2" font-weight="700">Links</text><text x="120.50" y="267.84" font-family="sans-serif" font-size="28.80" fill="#268bd2" font-weight="700">and</text><text x="183.23" y="267.84" font-family="sans-serif" font-size="28.80" fill="#268bd2" font-weight="700">Images</text><text x="32.00" y="292.80" font-family="sans-serif" font-size="16.00" fill="#2aa198">Link</text><line x1="32.00" y1="294.72" x2="63.68" y2="294.72" stroke="#2aa198" stroke-width="1" /><text x="67.26" y="292.80" font-family="sans-serif" font-size="16.00" fill="#2aa198">text</text><line x1="67.26" y1="294.72" x2="95.36" y2="294.72" stroke="#2aa198" stroke-width="1" /><text x="98.94" y="292.80" font-family="sans-serif" font-size="16.00" fill="#586e75">renders</text><text x="159.60" y="292.80" font-family="sans-serif" font-size="16.00" fill="#586e75">as</text><text x="179.68" y="292.80" font-family="sans-serif" font-size="16.00" fill="#586e75">colored</text><text x="239.79" y="292.80" font-family="sans-serif" font-size="16.00" fill="#586e75">text.</text><text x="32.00" y="324.80" font-family="sans-serif" font-size="16.00" fill="#586e75">Images</text><text x="89.23" y="324.80" font-family="sans-serif" font-size="16.00" fill="#586e75">from</text><text x="128.56" y="324.80" font-family="sans-serif" font-size="16.00" fill="#586e75">local</text><text x="167.92" y="324.80" font-family="sans-serif" font-size="16.00" fill="#586e75">files</text><text x="202.00" y="324.80" font-family="sans-serif" font-size="16.00" fill="#586e75">or</text><text x="221.49" y="324.80" font-family="sans-serif" font-size="16.00" fill="#586e75">URLs:</text><rect x="32.00" y="336.00" width="195.60" height="21.00" rx="4.00" fill="#073642" /><text x="44.00" y="350.40" font-family="monospace" font-size="13.00" fill="#586e75">![Alt&#160;text](image.png)</text><text x="32.00" y="399.84" font-family="sans-serif" font-size="28.80" fill="#268bd2" font-weight="700">Lists</text><text x="32.00" y="445.60" font-family="sans-serif" font-size="24.00" fill="#268bd2" font-weight="700">Unordered</text><text x="170.50" y="445.60" font-family="sans-serif" font-size="24.00" fill="#268bd2" font-weight="700">Lists</text><text x="45.44" y="476.00" font-family="sans-serif" font-size="16.00" fill="#586e75">Item</text><text x="32.00" y="476.00" font-family="sans-serif" font-size="16.00" fill="#586e75">•</text><text x="83.18" y="476.00" font-family="sans-serif" font-size="16.00" fill="#586e75">1</text><text x="45.44" y="501.60" font-family="sans-serif" font-size="16.00" fill="#586e75">Item</text><text x="32.00" y="501.60" font-family="sans-serif" font-size="16.00" fill="#586e75">•</text><text x="83.18" y="501.60" font-family="sans-serif" font-size="16.00" fill="#586e75">2</text><text x="69.44" y="527.20" font-family="sans-serif" font-size="16.00" fill="#586e75">Nested</text><text x="56.00" y="527.20" font-family="sans-serif" font-size="16.00" fill="#586e75">•</text><text x="125.17" y="527.20" font-family="sans-serif" font-size="16.00" fill="#586e75">item</text><text x="45.44" y="552.80" font-family="sans-serif" font-size="16.00" fill="#586e75">Item</text><text x="32.00" y="552.80" font-family="sans-serif" font-size="16.00" fill="#586e75">•</text><text x="83.18" y="552.80" font-family="sans-serif" font-size="16.00" fill="#586e75">3</text><text x="32.00" y="596.00" font-family="sans-serif" font-size="24.00" fill="#268bd2" font-weight="700">Ordered</text><text x="139.02" y="596.00" font-family="sans-serif" font-size="24.00" fill="#268bd2" font-weight="700">Lists</text><text x="53.33" y="626.40" font-family="sans-serif" font-size="16.00" fill="#586e75">First</text><text x="32.00" y="626.40" font-family="sans-serif" font-size="16.00" fill="#586e75">1.</text><text x="89.46" y="626.40" font-family="sans-serif" font-size="16.00" fill="#586e75">item</text><text x="53.33" y="652.00" font-family="sans-serif" font-size="16.00" fill="#586e75">Second</text><text x="32.00" y="652.00" font-family="sans-serif" font-size="16.00" fill="#586e75">2.</text><text x="112.46" y="652.00" font-family="sans-serif" font-size="16.00" fill="#586e75">item</text><text x="53.33" y="677.60" font-family="sans-serif" font-size="16.00" fill="#586e75">Third</text><text x="32.00" y="677.60" font-family="sans-serif" font-size="16.00" fill="#586e75">3.</text><text x="96.56" y="677.60" font-family="sans-serif" font-size="16.00" fill="#586e75">item</text><text x="32.00" y="720.80" font-family="sans-serif" font-size="24.00" fill="#268bd2" font-weight="700">Task</text><text x="94.54" y="720.80" font-family="sans-serif" font-size="24.00" fill="#268bd2" font-weight="700">Lists</text><rect x="32.00" y="741.68" width="13.60" height="13.60" rx="2" ry="2" stroke="#586e75" fill="none" stroke-width="1" /><polyline points="34.72,749.16 38.12,752.56 42.88,744.40" fill="none" stroke="#586e75" stroke-width="2" stroke-linecap="round" stroke-linejoin="round" /><text x="53.60" y="751.20" font-family="sans-serif" font-size="16.00" fill="#586e75">Completed</text><text x="139.63" y="751.20" font-family="sans-serif" font-size="16.00" fill="#586e75">task</text><rect x="32.00" y="767.28" width="13.60" height="13.60" rx="2" ry="2" stroke="#586e75" fill="none" stroke-width="1" /><text x="53.60" y="776.80" font-family="sans-serif" font-size="16.00" fill="#586e75">Pending</text><text x="118.61" y="776.80" font-family="sans-serif" font-size="16.00" fill="#586e75">task</text><text x="32.00" y="826.24" font-family="sans-serif" font-size="28.80" fill="#268bd2" font-weight="700">Code</text><text x="112.90" y="826.24" font-family="sans-serif" font-size="28.80" fill="#268bd2" font-weight="700">Blocks</text><rect x="32.00" y="838.40" width="265.80" height="70.60" rx="4.00" fill="#073642" /><text x="44.00" y="856.80" font-family="monospace" font-size="13.00" fill="#268bd2">fn</text><text x="59.60" y="856.80" font-family="monospace" font-size="13.00" fill="#839496">&#160;</text><text x="67.40" y="856.80" font-family="monospace" font-size="13.00" fill="#b58900">main</text><text x="98.60" y="856.80" font-family="monospace" font-size="13.00" fill="#657b83">(</text><text x="106.40" y="856.80" font-family="monospace" font-size="13.00" fill="#657b83">)</text><text x="114.20" y="856.80" font-family="monospace" font-size="13.00" fill="#839496">&#160;</text><text x="122.00" y="856.80" font-family="monospace" font-size="13.00" fill="#657b83">{</text><text x="44.00" y="877.60" font-family="monospace" font-size="13.00" fill="#839496">&#160;&#160;&#160;&#160;</text><text x="75.20" y="877.60" font-family="monospace" font-size="13.00" fill="#859900">println!</text><text x="137.60" y="877.60" font-family="monospace" font-size="13.00" fill="#657b83">(</text><text x="145.40" y="877.60" font-family="monospace" font-size="13.00" fill="#839496">&quot;</text><text x="153.20" y="877.60" font-family="monospace" font-size="13.00" fill="#2aa198">Hello,&#160;Markie!</text><text x="262.40" y="877.60" font-family="monospace" font-size="13.00" fill="#839496">&quot;</text><text x="270.20" y="877.60" font-family="monospace" font-size="13.00" fill="#657b83">)</text><text x="278.00" y="877.60" font-family="monospace" font-size="13.00" fill="#839496">;</text><text x="44.00" y="898.40" font-family="monospace" font-size="13.00" fill="#657b83">}</text><text x="32.00" y="955.24" font-family="sans-serif" font-size="28.80" fill="#268bd2" font-weight="700">Tables</text><rect x="32.00" y="977.00" width="188.69" height="73.60" fill="none" stroke="#eee8d5" stroke-width="1" /><rect x="32.00" y="977.00" width="62.90" height="36.80" fill="none" stroke="#eee8d5" stroke-width="1" /><text x="40.00" y="995.40" font-family="sans-serif" font-size="16.00" fill="#586e75">Data&#160;1</text><rect x="94.90" y="977.00" width="62.90" height="36.80" fill="none" stroke="#eee8d5" stroke-width="1" /><text x="102.90" y="995.40" font-family="sans-serif" font-size="16.00" fill="#586e75">Data&#160;2</text><rect x="157.79" y="977.00" width="62.90" height="36.80" fill="none" stroke="#eee8d5" stroke-width="1" /><text x="165.79" y="995.40" font-family="sans-serif" font-size="16.00" fill="#586e75">Data&#160;3</text><rect x="32.00" y="1013.80" width="62.90" height="36.80" fill="none" stroke="#eee8d5" stroke-width="1" /><text x="40.00" y="1032.20" font-family="sans-serif" font-size="16.00" fill="#586e75">Data&#160;4</text><rect x="94.90" y="1013.80" width="62.90" height="36.80" fill="none" stroke="#eee8d5" stroke-width="1" /><text x="102.90" y="1032.20" font-family="sans-serif" font-size="16.00" fill="#586e75">Data&#160;5</text><rect x="157.79" y="1013.80" width="62.90" height="36.80" fill="none" stroke="#eee8d5" stroke-width="1" /><text x="165.79" y="1032.20" font-family="sans-serif" font-size="16.00" fill="#586e75">Data&#160;6</text><text x="32.00" y="1096.84" font-family="sans-serif" font-size="28.80" fill="#268bd2" font-weight="700">Blockquotes</text><text x="64.00" y="1121.80" font-family="sans-serif" font-size="16.00" fill="#586e75">This</text><text x="98.77" y="1121.80" font-family="sans-serif" font-size="16.00" fill="#586e75">is</text><text x="114.24" y="1121.80" font-family="sans-serif" font-size="16.00" fill="#586e75">a</text><text x="126.83" y="1121.80" font-family="sans-serif" font-size="16.00" fill="#586e75">blockquote.</text><text x="64.00" y="1147.40" font-family="sans-serif" font-size="16.00" fill="#586e75">It</text><text x="78.30" y="1147.40" font-family="sans-serif" font-size="16.00" fill="#586e75">can</text><text x="108.64" y="1147.40" font-family="sans-serif" font-size="16.00" fill="#586e75">span</text><text x="148.14" y="1147.40" font-family="sans-serif" font-size="16.00" fill="#586e75">multiple</text><text x="214.56" y="1147.40" font-family="sans-serif" font-size="16.00" fill="#586e75">lines.</text><line x1="38.00" y1="1096.20" x2="38.00" y2="1166.60" stroke="#eee8d5" stroke-width="2" /><text x="32.00" y="1196.84" font-family="sans-serif" font-size="28.80" fill="#268bd2" font-weight="700">Math</text><text x="32.00" y="1221.80" font-family="sans-serif" font-size="16.00" fill="#586e75">Inline</text><text x="77.60" y="1221.80" font-family="sans-serif" font-size="16.00" fill="#586e75">math:</text><g transform="translate(124.96, 1221.80)"><text x="0.00" y="0.00" font-family="serif" font-size="16.00" fill="#586e75" font-style="italic">E</text><text x="12.00" y="0.00" font-family="serif" font-size="16.00" fill="#586e75">=</text><text x="23.28" y="0.00" font-family="serif" font-size="16.00" fill="#586e75" font-style="italic">m</text><text x="32.88" y="0.00" font-family="serif" font-size="16.00" fill="#586e75" font-style="italic">c</text><text x="42.48" y="-6.60" font-family="serif" font-size="11.20" fill="#586e75">2</text></g><text x="32.00" y="1253.80" font-family="sans-serif" font-size="16.00" fill="#586e75">Display</text><text x="90.29" y="1253.80" font-family="sans-serif" font-size="16.00" fill="#586e75">math:</text><g transform="translate(378.24, 1326.12)"><text x="2.40" y="1.28" font-family="serif" font-size="22.40" fill="#586e75">∑</text><text x="10.48" y="-22.92" font-family="serif" font-size="10.40" fill="#586e75" font-style="italic">n</text><text x="3.15" y="16.92" font-family="serif" font-size="10.40" fill="#586e75" font-style="italic">i</text><text x="10.95" y="16.92" font-family="serif" font-size="10.40" fill="#586e75">=</text><text x="18.28" y="16.92" font-family="serif" font-size="10.40" fill="#586e75">1</text><text x="27.20" y="0.00" font-family="serif" font-size="16.00" fill="#586e75" font-style="italic">x</text><text x="36.80" y="7.92" font-family="serif" font-size="11.20" fill="#586e75" font-style="italic">i</text></g><text x="32.00" y="1391.88" font-family="sans-serif" font-size="28.80" fill="#268bd2" font-weight="700">Advanced</text><text x="182.88" y="1391.88" font-family="sans-serif" font-size="28.80" fill="#268bd2" font-weight="700">Math</text><text x="266.23" y="1391.88" font-family="sans-serif" font-size="28.80" fill="#268bd2" font-weight="700">(nth</text><text x="335.32" y="1391.88" font-family="sans-serif" font-size="28.80" fill="#268bd2" font-weight="700">root,</text><text x="413.28" y="1391.88" font-family="sans-serif" font-size="28.80" fill="#268bd2" font-weight="700">binomial,</text><text x="563.24" y="1391.88" font-family="sans-serif" font-size="28.80" fill="#268bd2" font-weight="700">matrix)</text><text x="32.00" y="1416.84" font-family="sans-serif" font-size="16.00" fill="#586e75">Inline</text><text x="77.60" y="1416.84" font-family="sans-serif" font-size="16.00" fill="#586e75">nth-root:</text><g transform="translate(148.10, 1416.84)"><text x="0.00" y="-4.50" font-family="serif" font-size="9.60" fill="#586e75">3</text><path d="M 8.00 -2.40 L 11.36 0.00 L 13.76 -17.40 L 64.51 -17.40 L 62.91 -18.20" stroke="#586e75" stroke-width="1.2" fill="none" /><text x="17.60" y="0.00" font-family="serif" font-size="16.00" fill="#586e75" font-style="italic">x</text><text x="27.20" y="-6.60" font-family="serif" font-size="11.20" fill="#586e75">3</text><text x="35.82" y="0.00" font-family="serif" font-size="16.00" fill="#586e75">+</text><text x="47.10" y="0.00" font-family="serif" font-size="16.00" fill="#586e75" font-style="italic">y</text><text x="56.70" y="-6.60" font-family="serif" font-size="11.20" fill="#586e75">3</text></g><text x="32.00" y="1448.84" font-family="sans-serif" font-size="16.00" fill="#586e75">Inline</text><text x="77.60" y="1448.84" font-family="sans-serif" font-size="16.00" fill="#586e75">binomial:</text><g transform="translate(152.14, 1448.84)"><text x="1.28" y="0.00" font-family="serif" font-size="16.00" fill="#586e75">(</text><text x="8.61" y="-10.60" font-family="serif" font-size="13.60" fill="#586e75" font-style="italic">n</text><text x="8.61" y="7.80" font-family="serif" font-size="13.60" fill="#586e75" font-style="italic">k</text><text x="18.69" y="0.00" font-family="serif" font-size="16.00" fill="#586e75">)</text></g><text x="32.00" y="1480.84" font-family="sans-serif" font-size="16.00" fill="#586e75">Display</text><text x="90.29" y="1480.84" font-family="sans-serif" font-size="16.00" fill="#586e75">matrix:</text><g transform="translate(382.75, 1539.24)"><text x="1.28" y="0.00" font-family="serif" font-size="16.00" fill="#586e75">[</text><text x="5.41" y="-6.00" font-family="serif" font-size="14.40" fill="#586e75" font-style="italic">a</text><text x="20.45" y="-6.00" font-family="serif" font-size="14.40" fill="#586e75" font-style="italic">b</text><text x="5.41" y="13.20" font-family="serif" font-size="14.40" fill="#586e75" font-style="italic">c</text><text x="20.45" y="13.20" font-family="serif" font-size="14.40" fill="#586e75" font-style="italic">d</text><text x="27.81" y="0.00" font-family="serif" font-size="16.00" fill="#586e75">]</text></g><text x="32.00" y="1584.84" font-family="sans-serif" font-size="16.00" fill="#586e75">Mixed</text><text x="79.42" y="1584.84" font-family="sans-serif" font-size="16.00" fill="#586e75">expression:</text><g transform="translate(348.41, 1652.19)"><text x="0.00" y="-7.01" font-family="serif" font-size="9.60" fill="#586e75">4</text><path d="M 8.00 -2.40 L 11.36 0.00 L 13.76 -25.75 L 64.12 -25.75 L 62.52 -26.55" stroke="#586e75" stroke-width="1.2" fill="none" /><text x="20.80" y="-10.60" font-family="serif" font-size="13.60" fill="#586e75" font-style="italic">a</text><text x="28.96" y="-16.21" font-family="serif" font-size="9.52" fill="#586e75">2</text><text x="36.28" y="-10.60" font-family="serif" font-size="13.60" fill="#586e75">+</text><text x="45.87" y="-10.60" font-family="serif" font-size="13.60" fill="#586e75" font-style="italic">b</text><text x="54.03" y="-16.21" font-family="serif" font-size="9.52" fill="#586e75">2</text><line x1="17.60" y1="-4.80" x2="62.52" y2="-4.80" stroke="#586e75" stroke-width="1" /><text x="33.34" y="10.35" font-family="serif" font-size="13.60" fill="#586e75" font-style="italic">c</text><text x="41.50" y="4.74" font-family="serif" font-size="9.52" fill="#586e75">2</text><text x="66.52" y="0.00" font-family="serif" font-size="16.00" fill="#586e75">+</text><text x="79.08" y="0.00" font-family="serif" font-size="16.00" fill="#586e75">(</text><text x="86.40" y="-10.60" font-family="serif" font-size="13.60" fill="#586e75" font-style="italic">n</text><text x="86.71" y="7.80" font-family="serif" font-size="13.60" fill="#586e75">2</text><text x="96.48" y="0.00" font-family="serif" font-size="16.00" fill="#586e75">)</text></g><text x="32.00" y="1712.18" font-family="sans-serif" font-size="28.80" fill="#268bd2" font-weight="700">Mermaid</text><text x="172.80" y="1712.18" font-family="sans-serif" font-size="28.80" fill="#268bd2" font-weight="700">Diagrams</text><text x="32.00" y="1757.94" font-family="sans-serif" font-size="24.00" fill="#268bd2" font-weight="700">Flowchart</text><rect x="32.00" y="1772.34" width="736.00" height="190.00" rx="4.00" fill="#073642" /><g transform="translate(42.00, 1782.34)"><line x1="68.00" y1="40.00" x2="128.00" y2="40.00" stroke="#586e75" stroke-width="1.5" /><polygon points="128.00,40.00 116.00,34.00 116.00,46.00" fill="#586e75" /><circle cx="73.00" cy="40.00" r="5" fill="#073642" stroke="#586e75" stroke-width="1" /><path d="M 208.00 40.00 C 238.00 40.00, 238.00 130.00, 268.00 130.00" fill="none" stroke="#586e75" stroke-width="1.5" /><circle cx="210.77" cy="44.16" r="5" fill="#073642" stroke="#586e75" stroke-width="1" /><line x1="208.00" y1="40.00" x2="268.00" y2="40.00" stroke="#586e75" stroke-width="1.5" /><line x1="260.00" y1="45.00" x2="260.00" y2="35.00" stroke="#586e75" stroke-width="2" /><line x1="265.00" y1="40.00" x2="255.00" y2="40.00" stroke="#586e75" stroke-width="2" /><path d="M 332.00 130.00 C 374.00 130.00, 374.00 40.00, 416.00 40.00" fill="none" stroke="#586e75" stroke-width="1.5" /><line x1="414.20" y1="49.26" x2="406.89" y2="42.44" stroke="#586e75" stroke-width="2" /><line x1="413.95" y1="42.19" x2="407.13" y2="49.50" stroke="#586e75" stroke-width="2" /><line x1="333.80" y1="120.74" x2="341.11" y2="127.56" stroke="#586e75" stroke-width="2" /><line x1="334.05" y1="127.81" x2="340.87" y2="120.50" stroke="#586e75" stroke-width="2" /><line x1="496.00" y1="40.00" x2="556.00" y2="40.00" stroke="#586e75" stroke-width="1.5" stroke-dasharray="4,4" /><polygon points="556.00,40.00 544.00,34.00 544.00,46.00" fill="#586e75" /><polygon points="496.00,40.00 508.00,46.00 508.00,34.00" fill="#586e75" /><line x1="612.00" y1="40.00" x2="672.00" y2="40.00" stroke="#586e75" stroke-width="2.5" /><polygon points="672.00,40.00 660.00,34.00 660.00,46.00" fill="#586e75" /><rect x="606.50" y="0.00" width="71.00" height="20.00" rx="2" fill="#fdf6e3" /><text x="642.00" y="14.67" font-family="sans-serif" font-size="11.9" fill="#586e75" text-anchor="middle">fast lane</text><rect x="20.00" y="20.00" width="48.00" height="40.00" fill="#073642" stroke="#586e75" stroke-width="1.5" /><text x="44.00" y="44.67" font-family="sans-serif" font-size="14.0" fill="#586e75" text-anchor="middle">API</text><rect x="128.00" y="20.00" width="80.00" height="40.00" fill="#073642" stroke="#586e75" stroke-width="1.5" /><text x="168.00" y="44.67" font-family="sans-serif" font-size="14.0" fill="#586e75" text-anchor="middle">Gateway</text><rect x="268.00" y="110.00" width="64.00" height="40.00" fill="#073642" stroke="#586e75" stroke-width="1.5" /><text x="300.00" y="134.67" font-family="sans-serif" font-size="14.0" fill="#586e75" text-anchor="middle">Cache</text><rect x="268.00" y="20.00" width="88.00" height="40.00" fill="#073642" stroke="#586e75" stroke-width="1.5" /><text x="312.00" y="44.67" font-family="sans-serif" font-size="14.0" fill="#586e75" text-anchor="middle">Rejected</text><rect x="416.00" y="20.00" width="80.00" height="40.00" fill="#073642" stroke="#586e75" stroke-width="1.5" /><text x="456.00" y="44.67" font-family="sans-serif" font-size="14.0" fill="#586e75" text-anchor="middle">Replica</text><rect x="556.00" y="20.00" width="56.00" height="40.00" fill="#073642" stroke="#586e75" stroke-width="1.5" /><text x="584.00" y="44.67" font-family="sans-serif" font-size="14.0" fill="#586e75" text-anchor="middle">Sync</text><rect x="672.00" y="20.00" width="64.00" height="40.00" fill="#073642" stroke="#586e75" stroke-width="1.5" /><text x="704.00" y="44.67" font-family="sans-serif" font-size="14.0" fill="#586e75" text-anchor="middle">Ready</text></g><text x="32.00" y="2002.34" font-family="sans-serif" font-size="24.00" fill="#268bd2" font-weight="700">Sequence</text><rect x="32.00" y="2016.74" width="736.00" height="696.00" rx="4.00" fill="#073642" /><g transform="translate(127.00, 2026.74)"><rect x="40.00" y="20.00" width="120.00" height="40.00" fill="#073642" stroke="#586e75" stroke-width="1" rx="4" /><text x="100.00" y="44.67" font-family="sans-serif" font-size="14.0" fill="#586e75" text-anchor="middle">Client</text><rect x="240.00" y="20.00" width="120.00" height="40.00" fill="#073642" stroke="#586e75" stroke-width="1" rx="4" /><text x="300.00" y="44.67" font-family="sans-serif" font-size="14.0" fill="#586e75" text-anchor="middle">Service</text><line x1="100.00" y1="68.00" x2="100.00" y2="416.00" stroke="#586e75" stroke-width="1" stroke-dasharray="4,4" /><line x1="300.00" y1="68.00" x2="300.00" y2="416.00" stroke="#586e75" stroke-width="1" stroke-dasharray="4,4" /><rect x="112.00" y="324.00" width="110.00" height="28" rx="3" fill="#073642" fill-opacity="0.25" stroke="#586e75" stroke-width="1" /><text x="120.00" y="342.00" font-family="sans-serif" font-size="11.2" fill="#586e75">trigger request</text><text x="10.00" y="384.00" font-family="sans-serif" font-size="11.2" fill="#586e75" font-weight="bold">alt happy path</text><line x1="100.00" y1="402.00" x2="300.00" y2="402.00" stroke="#586e75" stroke-width="1.5" /><polygon points="300.00,402.00 290.00,397.00 290.00,407.00" fill="#586e75" /><text x="200.00" y="394.00" font-family="sans-serif" font-size="11.9" fill="#586e75" text-anchor="middle">GET /items</text><line x1="300.00" y1="452.00" x2="100.00" y2="452.00" stroke="#586e75" stroke-width="1.5" stroke-dasharray="4,4" /><polyline points="110.00,447.00 100.00,452.00 110.00,457.00" fill="none" stroke="#586e75" stroke-width="1.5" /><text x="200.00" y="444.00" font-family="sans-serif" font-size="11.9" fill="#586e75" text-anchor="middle">200 OK</text><line x1="4.00" y1="504.00" x2="336.00" y2="504.00" stroke="#586e75" stroke-width="1" stroke-dasharray="5,3" /><text x="10.00" y="500.00" font-family="sans-serif" font-size="10.9" fill="#586e75">retry</text><line x1="100.00" y1="526.00" x2="300.00" y2="526.00" stroke="#586e75" stroke-width="1.5" /><polygon points="300.00,526.00 290.00,521.00 290.00,531.00" fill="#586e75" /><text x="200.00" y="518.00" font-family="sans-serif" font-size="11.9" fill="#586e75" text-anchor="middle">GET /items (retry)</text><line x1="300.00" y1="576.00" x2="100.00" y2="576.00" stroke="#586e75" stroke-width="1.5" stroke-dasharray="4,4" /><polyline points="110.00,571.00 100.00,576.00 110.00,581.00" fill="none" stroke="#586e75" stroke-width="1.5" /><text x="200.00" y="568.00" font-family="sans-serif" font-size="11.9" fill="#586e75" text-anchor="middle">503</text><rect x="4.00" y="370.00" width="332.00" height="264.00" fill="none" stroke="#586e75" stroke-width="1" stroke-dasharray="5,3" /></g><text x="32.00" y="2752.74" font-family="sans-serif" font-size="24.00" fill="#268bd2" font-weight="700">Class</text><rect x="32.00" y="2767.14" width="736.00" height="190.00" rx="4.00" fill="#073642" /><g transform="translate(150.00, 2777.14)"><rect x="40.00" y="40.00" width="180.00" height="110.00" fill="#073642" stroke="#586e75" stroke-width="1.5" /><text x="130.00" y="62.00" font-family="sans-serif" font-size="14.0" fill="#586e75" text-anchor="middle" font-weight="bold">Animal</text><line x1="40.00" y1="68.00" x2="220.00" y2="68.00" stroke="#586e75" stroke-width="1" /><text x="48.00" y="86.00" font-family="monospace" font-size="11.9" fill="#586e75">+ String name</text><text x="48.00" y="98.60" font-family="monospace" font-size="11.9" fill="#586e75">+ int age</text><line x1="40.00" y1="113.20" x2="220.00" y2="113.20" stroke="#586e75" stroke-width="1" /><text x="48.00" y="129.20" font-family="monospace" font-size="11.9" fill="#586e75">+ makeSound()</text><rect x="320.00" y="40.00" width="180.00" height="70.00" fill="#073642" stroke="#586e75" stroke-width="1.5" /><text x="410.00" y="62.00" font-family="sans-serif" font-size="14.0" fill="#586e75" text-anchor="middle" font-weight="bold">Dog</text><line x1="320.00" y1="68.00" x2="500.00" y2="68.00" stroke="#586e75" stroke-width="1" /><line x1="320.00" y1="88.00" x2="500.00" y2="88.00" stroke="#586e75" stroke-width="1" /><text x="328.00" y="104.00" font-family="monospace" font-size="11.9" fill="#586e75">+ bark()</text><line x1="220.00" y1="88.57" x2="320.00" y2="81.43" stroke="#586e75" stroke-width="1.5" /><polygon points="220.00,88.57 234.46,94.56 233.47,80.59 229.97,87.86" fill="#073642" stroke="#586e75" stroke-width="1" /></g><text x="32.00" y="2997.14" font-family="sans-serif" font-size="24.00" fill="#268bd2" font-weight="700">State</text><rect x="32.00" y="3011.54" width="736.00" height="698.00" rx="4.00" fill="#073642" /><g transform="translate(280.00, 3021.54)"><line x1="57.28" y1="62.78" x2="92.40" y2="134.49" stroke="#586e75" stroke-width="1.5" /><polygon points="92.40,134.49 92.50,123.31 83.51,127.71" fill="#586e75" /><line x1="105.19" y1="170.00" x2="119.44" y2="224.84" stroke="#586e75" stroke-width="1.5" /><polygon points="119.44,224.84 121.76,213.90 112.09,216.42" fill="#586e75" /><line x1="89.37" y1="388.00" x2="60.78" y2="435.44" stroke="#586e75" stroke-width="1.5" /><polygon points="60.78,435.44 70.22,429.46 61.66,424.29" fill="#586e75" /><circle cx="52.00" cy="52.00" r="12.00" fill="#586e75" /><rect x="40.00" y="130.00" width="120.00" height="40.00" rx="10.00" fill="#073642" stroke="#586e75" stroke-width="1.5" /><text x="100.00" y="154.67" font-family="sans-serif" font-size="14.0" fill="#586e75" text-anchor="middle">Idle</text><rect x="40.00" y="220.00" width="200.00" height="168.00" rx="10.00" fill="#073642" stroke="#586e75" stroke-width="1.5" /><text x="140.00" y="242.00" font-family="sans-serif" font-size="14.0" fill="#586e75" text-anchor="middle">Running</text><rect x="60.00" y="280.00" width="160.00" height="40.00" rx="10.00" fill="#073642" stroke="#586e75" stroke-width="1.5" /><text x="140.00" y="304.67" font-family="sans-serif" font-size="14.0" fill="#586e75" text-anchor="middle">Validate</text><rect x="60.00" y="334.00" width="160.00" height="40.00" rx="10.00" fill="#073642" stroke="#586e75" stroke-width="1.5" /><text x="140.00" y="358.67" font-family="sans-serif" font-size="14.0" fill="#586e75" text-anchor="middle">Execute</text><line x1="140.00" y1="320.00" x2="140.00" y2="339.00" stroke="#586e75" stroke-width="1.5" /><polygon points="140.00,339.00 145.00,329.00 135.00,329.00" fill="#586e75" /><rect x="153.20" y="328.30" width="21.60" height="17.20" rx="2" fill="#fdf6e3" /><text x="164.00" y="343.50" font-family="sans-serif" font-size="11.9" fill="#586e75" text-anchor="middle">ok</text><line x1="140.00" y1="334.00" x2="140.00" y2="315.00" stroke="#586e75" stroke-width="1.5" /><polygon points="140.00,315.00 135.00,325.00 145.00,325.00" fill="#586e75" /><rect x="95.00" y="299.30" width="42.00" height="17.20" rx="2" fill="#fdf6e3" /><text x="116.00" y="314.50" font-family="sans-serif" font-size="11.9" fill="#586e75" text-anchor="middle">retry</text><rect x="232.00" y="284.00" width="72.00" height="26.00" rx="3" fill="#073642" fill-opacity="0.25" stroke="#586e75" stroke-width="1" /><text x="240.00" y="300.90" font-family="sans-serif" font-size="11.2" fill="#586e75">guard checks</text><circle cx="52.00" cy="450.00" r="9.00" fill="#586e75" stroke="#586e75" stroke-width="2" /><circle cx="52.00" cy="450.00" r="12.00" fill="none" stroke="#586e75" stroke-width="2" /></g><text x="32.00" y="3749.54" font-family="sans-serif" font-size="24.00" fill="#268bd2" font-weight="700">ER</text><rect x="32.00" y="3763.94" width="736.00" height="120.00" rx="4.00" fill="#073642" /><g transform="translate(180.00, 3773.94)"><line x1="180.00" y1="60.00" x2="300.00" y2="60.00" stroke="#586e75" stroke-width="1.5" /><line x1="188.00" y1="66.00" x2="188.00" y2="54.00" stroke="#586e75" stroke-width="1.5" /><line x1="194.00" y1="66.00" x2="194.00" y2="54.00" stroke="#586e75" stroke-width="1.5" /><circle cx="292.00" cy="60.00" r="4.50" fill="#fdf6e3" stroke="#586e75" stroke-width="1.2" /><line x1="284.00" y1="60.00" x2="276.00" y2="52.00" stroke="#586e75" stroke-width="1.5" /><line x1="284.00" y1="60.00" x2="274.00" y2="60.00" stroke="#586e75" stroke-width="1.5" /><line x1="284.00" y1="60.00" x2="276.00" y2="68.00" stroke="#586e75" stroke-width="1.5" /><rect x="40.00" y="40.00" width="140.00" height="40.00" fill="#073642" stroke="#586e75" stroke-width="1.5" /><text x="110.00" y="60.00" font-family="sans-serif" font-size="14.0" fill="#586e75" text-anchor="middle" font-weight="bold">CUSTOMER</text><rect x="300.00" y="40.00" width="140.00" height="40.00" fill="#073642" stroke="#586e75" stroke-width="1.5" /><text x="370.00" y="60.00" font-family="sans-serif" font-size="14.0" fill="#586e75" text-anchor="middle" font-weight="bold">ORDER</text></g><text x="32.00" y="3930.18" font-family="sans-serif" font-size="28.80" fill="#268bd2" font-weight="700">Footnotes</text><text x="32.00" y="3955.14" font-family="sans-serif" font-size="16.00" fill="#586e75">This</text><text x="66.77" y="3955.14" font-family="sans-serif" font-size="16.00" fill="#586e75">is</text><text x="82.24" y="3955.14" font-family="sans-serif" font-size="16.00" fill="#586e75">a</text><text x="94.83" y="3955.14" font-family="sans-serif" font-size="16.00" fill="#586e75">reference</text><text x="168.50" y="3947.94" font-family="sans-serif" font-size="10.40" fill="#586e75">1</text><text x="177.85" y="3955.14" font-family="sans-serif" font-size="16.00" fill="#586e75">to</text><text x="196.92" y="3955.14" font-family="sans-serif" font-size="16.00" fill="#586e75">a</text><text x="209.52" y="3955.14" font-family="sans-serif" font-size="16.00" fill="#586e75">footnote.</text><text x="59.70" y="3995.14" font-family="sans-serif" font-size="16.00" fill="#586e75">This</text><text x="32.00" y="3995.14" font-family="sans-serif" font-size="16.00" fill="#586e75">[1]</text><text x="94.46" y="3995.14" font-family="sans-serif" font-size="16.00" fill="#586e75">is</text><text x="109.94" y="3995.14" font-family="sans-serif" font-size="16.00" fill="#586e75">the</text><text x="138.13" y="3995.14" font-family="sans-serif" font-size="16.00" fill="#586e75">footnote</text><text x="205.66" y="3995.14" font-family="sans-serif" font-size="16.00" fill="#586e75">content.</text><text x="32.00" y="4044.58" font-family="sans-serif" font-size="28.80" fill="#268bd2" font-weight="700">Definition</text><text x="187.20" y="4044.58" font-family="sans-serif" font-size="28.80" fill="#268bd2" font-weight="700">Lists</text><text x="32.00" y="4063.14" font-family="sans-serif" font-size="16.00" fill="#586e75" font-weight="700">Term</text><text x="79.12" y="4063.14" font-family="sans-serif" font-size="16.00" fill="#586e75" font-weight="700">1</text><text x="32.00" y="4088.74" font-family="sans-serif" font-size="16.00" fill="#586e75">Definition</text><text x="109.10" y="4088.74" font-family="sans-serif" font-size="16.00" fill="#586e75">1</text><text x="32.00" y="4114.34" font-family="sans-serif" font-size="16.00" fill="#586e75" font-weight="700">Term</text><text x="79.12" y="4114.34" font-family="sans-serif" font-size="16.00" fill="#586e75" font-weight="700">2</text><text x="32.00" y="4139.94" font-family="sans-serif" font-size="16.00" fill="#586e75">Definition</text><text x="109.10" y="4139.94" font-family="sans-serif" font-size="16.00" fill="#586e75">2</text><text x="32.00" y="4211.78" font-family="sans-serif" font-size="28.80" fill="#268bd2" font-weight="700">HTML</text><text x="32.00" y="4236.74" font-family="sans-serif" font-size="16.00" fill="#586e75">Inline</text><rect x="77.60" y="4222.34" width="70.80" height="21.00" rx="4.00" fill="#073642" /><text x="89.60" y="4236.74" font-family="monospace" font-size="13.00" fill="#586e75">&lt;span&gt;</text><text x="151.98" y="4236.74" font-family="sans-serif" font-size="16.00" fill="#586e75">tags</text><text x="186.74" y="4236.74" font-family="sans-serif" font-size="16.00" fill="#586e75">are</text><text x="214.22" y="4236.74" font-family="sans-serif" font-size="16.00" fill="#586e75">rendered</text><text x="286.06" y="4236.74" font-family="sans-serif" font-size="16.00" fill="#586e75">as</text><text x="306.14" y="4236.74" font-family="sans-serif" font-size="16.00" fill="#586e75">code.</text><rect x="32.00" y="4255.94" width="367.20" height="29.00" rx="4.00" fill="#073642" /><text x="44.00" y="4274.34" font-family="monospace" font-size="13.00" fill="#586e75">&lt;</text><text x="51.80" y="4274.34" font-family="monospace" font-size="13.00" fill="#268bd2">div</text><text x="75.20" y="4274.34" font-family="monospace" font-size="13.00" fill="#586e75">&gt;</text><text x="83.00" y="4274.34" font-family="monospace" font-size="13.00" fill="#839496">HTML&#160;blocks&#160;render&#160;as&#160;code&#160;blocks</text><text x="340.40" y="4274.34" font-family="monospace" font-size="13.00" fill="#586e75">&lt;/</text><text x="356.00" y="4274.34" font-family="monospace" font-size="13.00" fill="#268bd2">div</text><text x="379.40" y="4274.34" font-family="monospace" font-size="13.00" fill="#586e75">&gt;</text></svg>