<svg xmlns="http://www.w3.org/2000/svg" viewBox="0 0 800 4358.6606" width="800" height="4358.6606"><rect width="100%" height="100%" fill="#fdf6e3" /><text x="32.00" y="60.16" font-family="sans-serif" font-size="35.20" fill="#268bd2" font-weight="700">Markie</text><text x="168.05" y="60.16" font-family="sans-serif" font-size="35.20" fill="#268bd2" font-weight="700">Feature</text><text x="312.97" y="60.16" font-family="sans-serif" font-size="35.20" fill="#268bd2" font-weight="700">Examples</text><text x="32.00" y="86.40" font-family="sans-serif" font-size="16.00" fill="#586e75">This</text><text x="66.77" y="86.40" font-family="sans-serif" font-size="16.00" fill="#586e75">document</text><text x="147.31" y="86.40" font-family="sans-serif" font-size="16.00" fill="#586e75">showcases</text><text x="231.33" y="86.40" font-family="sans-serif" font-size="16.00" fill="#586e75">Markdown</text><text x="313.78" y="86.40" font-family="sans-serif" font-size="16.00" fill="#586e75">features</text><text x="377.89" y="86.40" font-family="sans-serif" font-size="16.00" fill="#586e75">supported</text><text x="458.99" y="86.40" font-family="sans-serif" font-size="16.00" fill="#586e75">by</text><text x="480.74" y="86.40" font-family="sans-serif" font-size="16.00" fill="#586e75">Markie,</text><text x="539.07" y="86.40" font-family="sans-serif" font-size="16.00" fill="#586e75">including</text><text x="612.34" y="86.40" font-family="sans-serif" font-size="16.00" fill="#586e75">enhanced</text><text x="689.58" y="86.40" font-family="sans-serif" font-size="16.00" fill="#586e75">math</text><text x="732.50" y="86.40" font-family="sans-serif" font-size="16.00" fill="#586e75">and</text><text x="32.00" y="112.00" font-family="sans-serif" font-size="16.00" fill="#586e75">native</text><text x="81.68" y="112.00" font-family="sans-serif" font-size="16.00" fill="#586e75">Mermaid</text><text x="151.47" y="112.00" font-family="sans-serif" font-size="16.00" fill="#586e75">diagrams.</text><text x="32.00" y="161.44" font-family="sans-serif" font-size="28.80" fill="#268bd2" font-weight="700">Text</text><text x="101.72" y="161.44" font-family="sans-serif" font-size="28.80" fill="#268bd2" font-weight="700">Formatting</text><text x="32.00" y="186.40" font-family="sans-serif" font-size="16.00" fill="#586e75">You</text><text x="62.75" y="186.40" font-family="sans-serif" font-size="16.00" fill="#586e75">can</text><text x="93.09" y="186.40" font-family="sans-serif" font-size="16.00" fill="#586e75">use</text><text x="122.74" y="186.40" font-family="sans-serif" font-size="16.00" fill="#586e75" font-weight="700">bold</text><text x="163.68" y="186.40" font-family="sans-serif" font-size="16.00" fill="#586e75" font-weight="700">text</text><text x="194.86" y="186.40" font-family="sans-serif" font-size="16.00" fill="#586e75">,</text><text x="202.90" y="186.40" font-family="sans-serif" font-size="16.00" fill="#586e75" font-style="italic">italic</text><text x="270.10" y="186.40" font-family="sans-serif" font-size="16.00" fill="#586e75" font-style="italic">text</text><text x="308.50" y="186.40" font-family="sans-serif" font-size="16.00" fill="#586e75">,</text><text x="316.53" y="186.40" font-family="sans-serif" font-size="16.00" fill="#586e75">and</text><rect x="348.80" y="172.00" width="109.80" height="21.00" rx="4.00" fill="#073642" /><text x="360.80" y="186.40" font-family="monospace" font-size="13.00" fill="#586e75">inline&#160;code</text><text x="462.18" y="186.40" font-family="sans-serif" font-size="16.00" fill="#586e75">for</text><text x="486.70" y="186.40" font-family="sans-serif" font-size="16.00" fill="#586e75">emphasis.</text><text x="32.00" y="218.40" font-family="sans-serif" font-size="16.00" fill="#586e75">Strikethrough</text><line x1="32.00" y1="213.28" x2="134.86" y2="213.28" stroke="#586e75" stroke-width="1" /><text x="138.45" y="218.40" font-family="sans-serif" font-size="16.00" fill="#586e75">text</text><line x1="138.45" y1="213.28" x2="166.54" y2="213.28" stroke="#586e75" stroke-width="1" /><text x="170.13" y="218.40" font-family="sans-serif" font-size="16.00" fill="#586e75">is</text><text x="185.60" y="218.40" font-family="sans-serif" font-size="16.00" fill="#586e75">also</text><text x="219.92" y="218.40" font-family="sans-serif" font-size="16.00" fill="#586e75">supported.</text><text x="32.00" y="267.84" font-family="sans-serif" font-size="28.80" fill="#268bd2" font-weight="700">Links</text><text x="120.50" y="267.84" font-family="sans-serif" font-size="28.80" fill="#268bd2" font-weight="700">and</text><text x="183.23" y="267.84" font-family="sans-serif" font-size="28.80" fill="#268bd2" font-weight="700">Images</text><text x="32.00" y="292.80" font-family="sans-serif" font-size="16.00" fill="#2aa198">Link</text><line x1="32.00" y1="294.72" x2="63.68" y2="294.72" stroke="#2aa198" stroke-width="1" /><text x="67.26" y="292.80" font-family="sans-serif" font-size="16.00" fill="#2aa198">text</text><line x1="67.26" y1="294.72" x2="95.36" y2="294.72" stroke="#2aa198" stroke-width="1" /><text x="98.94" y="292.80" font-family="sans-serif" font-size="16.00" fill="#586e75">renders</text><text x="159.60" y="292.80" font-family="sans-serif" font-size="16.00" fill="#586e75">as</text><text x="179.68" y="292.80" font-family="sans-serif" font-size="16.00" fill="#586e75">colored</text><text x="239.79" y="292.80" font-family="sans-serif" font-size="16.00" fill="#586e75">text.</text><text x="32.00" y="324.80" font-family="sans-serif" font-size="16.00" fill="#586e75">Images</text><text x="89.23" y="324.80" font-family="sans-serif" font-size="16.00" fill="#586e75">from</text><text x="128.56" y="324.80" font-family="sans-serif" font-size="16.00" fill="#586e75">local</text><text x="167.92" y="324.80" font-family="sans-serif" font-size="16.00" fill="#586e75">files</text><text x="202.00" y="324.80" font-family="sans-serif" font-size="16.00" fill="#586e75">or</text><text x="221.49" y="324.80" font-family="sans-serif" font-size="16.00" fill="#586e75">URLs:</text><rect x="32.00" y="336.00" width="195.60" height="21.00" rx="4.00" fill="#073642" /><text x="44.00" y="350.40" font-family="monospace" font-size="13.00" fill="#586e75">![Alt&#160;text](image.png)</text><text x="32.00" y="399.84" font-family="sans-serif" font-size="28.80" fill="#268bd2" font-weight="700">Lists</text><text x="32.00" y="445.60" font-family="sans-serif" font-size="24.00" fill="#268bd2" font-weight="700">Unordered</text><text x="170.50" y="445.60" font-family="sans-serif" font-size="24.00" fill="#268bd2" font-weight="700">Lists</text><text x="45.44" y="476.00" font-family="sans-serif" font-size="16.00" fill="#586e75">Item</text><text x="32.00" y="476.00" font-family="sans-serif" font-size="16.00" fill="#586e75">•</text><text x="83.18" y="476.00" font-family="sans-serif" font-size="16.00" fill="#586e75">1</text><text x="45.44" y="501.60" font-family="sans-serif" font-size="16.00" fill="#586e75">Item</text><text x="32.00" y="501.60" font-family="sans-serif" font-size="16.00" fill="#586e75">•</text><text x="83.18" y="501.60" font-family="sans-serif" font-size="16.00" fill="#586e75">2</text><text x="69.44" y="527.20" font-family="sans-serif" font-size="16.00" fill="#586e75">Nested</text><text x="56.00" y="527.20" font-family="sans-serif" font-size="16.00" fill="#586e75">•</text><text x="125.17" y="527.20" font-family="sans-serif" font-size="16.00" fill="#586e75">item</text><text x="45.44" y="552.80" font-family="sans-serif" font-size="16.00" fill="#586e75">Item</text><text x="32.00" y="552.80" font-family="sans-serif" font-size="16.00" fill="#586e75">•</text><text x="83.18" y="552.80" font-family="sans-serif" font-size="16.00" fill="#586e75">3</text><text x="32.00" y="596.00" font-family="sans-serif" font-size="24.00" fill="#268bd2" font-weight="700">Ordered</text><text x="139.02" y="596.00" font-family="sans-serif" font-size="24.00" fill="#268bd2" font-weight="700">Lists</text><text x="53.33" y="626.40" font-family="sans-serif" font-size="16.00" fill="#586e75">First</text><text x="32.00" y="626.40" font-family="sans-serif" font-size="16.00" fill="#586e75">1.</text><text x="89.46" y="626.40" font-family="sans-serif" font-size="16.00" fill="#586e75">item</text><text x="53.33" y="652.00" font-family="sans-serif" font-size="16.00" fill="#586e75">Second</text><text x="32.00" y="652.00" font-family="sans-serif" font-size="16.00" fill="#586e75">2.</text><text x="112.46" y="652.00" font-family="sans-serif" font-size="16.00" fill="#586e75">item</text><text x="53.33" y="677.60" font-family="sans-serif" font-size="16.00" fill="#586e75">Third</text><text x="32.00" y="677.60" font-family="sans-serif" font-size="16.00" fill="#586e75">3.</text><text x="96.56" y="677.60" font-family="sans-serif" font-size="16.00" fill="#586e75">item</text><text x="32.00" y="720.80" font-family="sans-serif" font-size="24.00" fill="#268bd2" font-weight="700">Task</text><text x="94.54" y="720.80" font-family="sans-serif" font-size="24.00" fill="#268bd2" font-weight="700">Lists</text><rect x="32.00" y="741.68" width="13.60" height="13.60" rx="2" ry="2" stroke="#586e75" fill="none" stroke-width="1" /><polyline points="34.72,749.16 38.12,752.56 42.88,744.40" fill="none" stroke="#586e75" stroke-width="2" stroke-linecap="round" stroke-linejoin="round" /><text x="53.60" y="751.20" font-family="sans-serif" font-size="16.00" fill="#586e75">Completed</text><text x="139.63" y="751.20" font-family="sans-serif" font-size="16.00" fill="#586e75">task</text><rect x="32.00" y="767.28" width="13.60" height="13.60" rx="2" ry="2" stroke="#586e75" fill="none" stroke-width="1" /><text x="53.60" y="776.80" font-family="sans-serif" font-size="16.00" fill="#586e75">Pending</text><text x="118.61" y="776.80" font-family="sans-serif" font-size="16.00" fill="#586e75">task</text><text x="32.00" y="826.24" font-family="sans-serif" font-size="28.80" fill="#268bd2" font-weight="700">Code</text><text x="112.90" y="826.24" font-family="sans-serif" font-size="28.80" fill="#268bd2" font-weight="700">Blocks</text><rect x="32.00" y="838.40" width="265.80" height="70.60" rx="4.00" fill="#073642" /><text x="44.00" y="856.80" font-family="monospace" font-size="13.00" fill="#268bd2">fn</text><text x="59.60" y="856.80" font-family="monospace" font-size="13.00" fill="#839496">&#160;</text><text x="67.40" y="856.80" font-family="monospace" font-size="13.00" fill="#b58900">main</text><text x="98.60" y="856.80" font-family="monospace" font-size="13.00" fill="#657b83">(</text><text x="106.40" y="856.80" font-family="monospace" font-size="13.00" fill="#657b83">)</text><text x="114.20" y="856.80" font-family="monospace" font-size="13.00" fill="#839496">&#160;</text><text x="122.00" y="856.80" font-family="monospace" font-size="13.00" fill="#657b83">{</text><text x="44.00" y="877.60" font-family="monospace" font-size="13.00" fill="#839496">&#160;&#160;&#160;&#160;</text><text x="75.20" y="877.60" font-family="monospace" font-size="13.00" fill="#859900">println!</text><text x="137.60" y="877.60" font-family="monospace" font-size="13.00" fill="#657b83">(</text><text x="145.40" y="877.60" font-family="monospace" font-size="13.00" fill="#839496">&quot;</text><text x="153.20" y="877.60" font-family="monospace" font-size="13.00" fill="#2aa198">Hello,&#160;Markie!</text><text x="262.40" y="877.60" font-family="monospace" font-size="13.00" fill="#839496">&quot;</text><text x="270.20" y="877.60" font-family="monospace" font-size="13.00" fill="#657b83">)</text><text x="278.00" y="877.60" font-family="monospace" font-size="13.00" fill="#839496">;</text><text x="44.00" y="898.40" font-family="monospace" font-size="13.00" fill="#657b83">}</text><text x="32.00" y="955.24" font-family="sans-serif" font-size="28.80" fill="#268bd2" font-weight="700">Tables</text><rect x="32.00" y="977.00" width="188.69" height="73.60" fill="none" stroke="#eee8d5" stroke-width="1" /><rect x="32.00" y="977.00" width="62.90" height="36.80" fill="none" stroke="#eee8d5" stroke-width="1" /><text x="40.00" y="995.40" font-family="sans-serif" font-size="16.00" fill="#586e75">Data&#160;1</text><rect x="94.90" y="977.00" width="62.90" height="36.80" fill="none" stroke="#eee8d5" stroke-width="1" /><text x="102.90" y="995.40" font-family="sans-serif" font-size="16.00" fill="#586e75">Data&#160;2</text><rect x="157.79" y="977.00" width="62.90" height="36.80" fill="none" stroke="#eee8d5" stroke-width="1" /><text x="165.79" y="995.40" font-family="sans-serif" font-size="16.00" fill="#586e75">Data&#160;3</text><rect x="32.00" y="1013.80" width="62.90" height="36.80" fill="none" stroke="#eee8d5" stroke-width="1" /><text x="40.00" y="1032.20" font-family="sans-serif" font-size="16.00" fill="#586e75">Data&#160;4</text><rect x="94.90" y="1013.80" width="62.90" height="36.80" fill="none" stroke="#eee8d5" stroke-width="1" /><text x="102.90" y="1032.20" font-family="sans-serif" font-size="16.00" fill="#586e75">Data&#160;5</text><rect x="157.79" y="1013.80" width="62.90" height="36.80" fill="none" stroke="#eee8d5" stroke-width="1" /><text x="165.79" y="1032.20" font-family="sans-serif" font-size="16.00" fill="#586e75">Data&#160;6</text><text x="32.00" y="1096.84" font-family="sans-serif" font-size="28.80" fill="#268bd2" font-weight="700">Blockquotes</text><text x="64.00" y="1121.80" font-family="sans-serif" font-size="16.00" fill="#586e75">This</text><text x="98.77" y="1121.80" font-family="sans-serif" font-size="16.00" fill="#586e75">is</text><text x="114.24" y="1121.80" font-family="sans-serif" font-size="16.00" fill="#586e75">a</text><text x="126.83" y="1121.80" font-family="sans-serif" font-size="16.00" fill="#586e75">blockquote.</text><text x="64.00" y="1147.40" font-family="sans-serif" font-size="16.00" fill="#586e75">It</text><text x="78.30" y="1147.40" font-family="sans-serif" font-size="16.00" fill="#586e75">can</text><text x="108.64" y="1147.40" font-family="sans-serif" font-size="16.00" fill="#586e75">span</text><text x="148.14" y="1147.40" font-family="sans-serif" font-size="16.00" fill="#586e75">multiple</text><text x="214.56" y="1147.40" font-family="sans-serif" font-size="16.00" fill="#586e75">lines.</text><line x1="38.00" y1="1096.20" x2="38.00" y2="1166.60" stroke="#eee8d5" stroke-width="2" /><text x="32.00" y="1196.84" font-family="sans-serif" font-size="28.80" fill="#268bd2" font-weight="700">Math</text><text x="32.00" y="1221.80" font-family="sans-serif" font-size="16.00" fill="#586e75">Inline</text><text x="77.60" y="1221.80" font-family="sans-serif" font-size="16.00" fill="#586e75">math:</text><g transform="translate(124.96, 1221.80)"><text x="0.00" y="0.00" font-family="serif" font-size="16.00" fill="#586e75" font-style="italic">E</text><text x="12.00" y="0.00" font-family="serif" font-size="16.00" fill="#586e75">=</text><text x="23.28" y="0.00" font-family="serif" font-size="16.00" fill="#586e75" font-style="italic">m</text><text x="32.88" y="0.00" font-family="serif" font-size="16.00" fill="#586e75" font-style="italic">c</text><text x="42.48" y="-6.60" font-family="serif" font-size="11.20" fill="#586e75">2</text></g><text x="32.00" y="1253.80" font-family="sans-serif" font-size="16.00" fill="#586e75">Display</text><text x="90.29" y="1253.80" font-family="sans-serif" font-size="16.00" fill="#586e75">math:</text><g transform="translate(378.24, 1326.12)"><text x="2.40" y="1.28" font-family="serif" font-size="22.40" fill="#586e75">∑</text><text x="10.48" y="-22.92" font-family="serif" font-size="10.40" fill="#586e75" font-style="italic">n</text><text x="3.15" y="16.92" font-family="serif" font-size="10.40" fill="#586e75" font-style="italic">i</text><text x="10.95" y="16.92" font-family="serif" font-size="10.40" fill="#586e75">=</text><text x="18.28" y="16.92" font-family="serif" font-size="10.40" fill="#586e75">1</text><text x="27.20" y="0.00" font-family="serif" font-size="16.00" fill="#586e75" font-style="italic">x</text><text x="36.80" y="7.92" font-family="serif" font-size="11.20" fill="#586e75" font-style="italic">i</text></g><text x="32.00" y="1391.88" font-family="sans-serif" font-size="28.80" fill="#268bd2" font-weight="700">Advanced</text><text x="182.88" y="1391.88" font-family="sans-serif" font-size="28.80" fill="#268bd2" font-weight="700">Math</text><text x="266.23" y="1391.88" font-family="sans-serif" font-size="28.80" fill="#268bd2" font-weight="700">(nth</text><text x="335.32" y="1391.88" font-family="sans-serif" font-size="28.80" fill="#268bd2" font-weight="700">root,</text><text x="413.28" y="1391.88" font-family="sans-serif" font-size="28.80" fill="#268bd2" font-weight="700">binomial,</text><text x="563.24" y="1391.88" font-family="sans-serif" font-size="28.80" fill="#268bd2" font-weight="700">matrix)</text><text x="32.00" y="1416.84" font-family="sans-serif" font-size="16.00" fill="#586e75">Inline</text><text x="77.60" y="1416.84" font-family="sans-serif" font-size="16.00" fill="#586e75">nth-root:</text><g transform="translate(148.10, 1416.84)"><text x="0.00" y="-4.50" font-family="serif" font-size="9.60" fill="#586e75">3</text><path d="M 8.00 -2.40 L 11.36 0.00 L 13.76 -17.40 L 64.51 -17.40 L 62.91 -18.20" stroke="#586e75" stroke-width="1.2" fill="none" /><text x="17.60" y="0.00" font-family="serif" font-size="16.00" fill="#586e75" font-style="italic">x</text><text x="27.20" y="-6.60" font-family="serif" font-size="11.20" fill="#586e75">3</text><text x="35.82" y="0.00" font-family="serif" font-size="16.00" fill="#586e75">+</text><text x="47.10" y="0.00" font-family="serif" font-size="16.00" fill="#586e75" font-style="italic">y</text><text x="56.70" y="-6.60" font-family="serif" font-size="11.20" fill="#586e75">3</text></g><text x="32.00" y="1448.84" font-family="sans-serif" font-size="16.00" fill="#586e75">Inline</text><text x="77.60" y="1448.84" font-family="sans-serif" font-size="16.00" fill="#586e75">binomial:</text><g transform="translate(152.14, 1448.84)"><text x="1.28" y="0.00" font-family="serif" font-size="16.00" fill="#586e75">(</text><text x="8.61" y="-10.60" font-family="serif" font-size="13.60" fill="#586e75" font-style="italic">n</text><text x="8.61" y="7.80" font-family="serif" font-size="13.60" fill="#586e75" font-style="italic">k</text><text x="18.69" y="0.00" font-family="serif" font-size="16.00" fill="#586e75">)</text></g><text x="32.00" y="1480.84" font-family="sans-serif" font-size="16.00" fill="#586e75">Display</text><text x="90.29" y="1480.84" font-family="sans-serif" font-size="16.00" fill="#586e75">matrix:</text><g transform="translate(382.75, 1539.24)"><text x="1.28" y="0.00" font-family="serif" font-size="16.00" fill="#586e75">[</text><text x="5.41" y="-6.00" font-family="serif" font-size="14.40" fill="#586e75" font-style="italic">a</text><text x="20.45" y="-6.00" font-family="serif" font-size="14.40" fill="#586e75" font-style="italic">b</text><text x="5.41" y="13.20" font-family="serif" font-size="14.40" fill="#586e75" font-style="italic">c</text><text x="20.45" y="13.20" font-family="serif" font-size="14.40" fill="#586e75" font-style="italic">d</text><text x="27.81" y="0.00" font-family="serif" font-size="16.00" fill="#586e75">]</text></g><text x="32.00" y="1584.84" font-family="sans-serif" font-size="16.00" fill="#586e75">Mixed</text><text x="79.42" y="1584.84" font-family="sans-serif" font-size="16.00" fill="#586e75">expression:</text><g transform="translate(348.41, 1652.19)"><text x="0.00" y="-7.01" font-family="serif" font-size="9.60" fill="#586e75">4</text><path d="M 8.00 -2.40 L 11.36 0.00 L 13.76 -25.75 L 64.12 -25.75 L 62.52 -26.55" stroke="#586e75" stroke-width="1.2" fill="none" /><text x="20.80" y="-10.60" font-family="serif" font-size="13.60" fill="#586e75" font-style="italic">a</text><text x="28.96" y="-16.21" font-family="serif" font-size="9.52" fill="#586e75">2</text><text x="36.28" y="-10.60" font-family="serif" font-size="13.60" fill="#586e75">+</text><text x="45.87" y="-10.60" font-family="serif" font-size="13.60" fill="#586e75" font-style="italic">b</text><text x="54.03" y="-16.21" font-family="serif" font-size="9.52" fill="#586e75">2</text><line x1="17.60" y1="-4.80" x2="62.52" y2="-4.80" stroke="#586e75" stroke-width="1" /><text x="33.34" y="10.35" font-family="serif" font-size="13.60" fill="#586e75" font-style="italic">c</text><text x="41.50" y="4.74" font-family="serif" font-size="9.52" fill="#586e75">2</text><text x="66.52" y="0.00" font-family="serif" font-size="16.00" fill="#586e75">+</text><text x="79.08" y="0.00" font-family="serif" font-size="16.00" fill="#586e75">(</text><text x="86.40" y="-10.60" font-family="serif" font-size="13.60" fill="#586e75" font-style="italic">n</text><text x="86.71" y="7.80" font-family="serif" font-size="13.60" fill="#586e75">2</text><text x="96.48" y="0.00" font-family="serif" font-size="16.00" fill="#586e75">)</text></g><text x="32.00" y="1712.18" font-family="sans-serif" font-size="28.80" fill="#268bd2" font-weight="700">Mermaid</text><text x="172.80" y="1712.18" font-family="sans-serif" font-size="28.80" fill="#268bd2" font-weight="700">Diagrams</text><text x="32.00" y="1757.94" font-family="sans-serif" font-size="24.00" fill="#268bd2" font-weight="700">Flowchart</text><rect x="32.00" y="1772.34" width="736.00" height="223.60" rx="4.00" fill="#073642" /><g transform="translate(32.00, 1782.34)"><line x1="86.00" y1="106.80" x2="174.00" y2="106.80" stroke="#fdf6e3" stroke-width="1.5" /><polygon points="174.00,106.80 162.00,100.80 162.00,112.80" fill="#fdf6e3" /><circle cx="91.00" cy="106.80" r="5" fill="#073642" stroke="#fdf6e3" stroke-width="1" /><path d="M 254.46 106.80 C 298.46 106.80, 298.46 50.40, 342.46 50.40" fill="none" stroke="#fdf6e3" stroke-width="1.5" /><circle cx="258.67" cy="104.10" r="5" fill="#073642" stroke="#fdf6e3" stroke-width="1" /><path d="M 254.46 106.80 C 298.46 106.80, 298.46 163.20, 342.46 163.20" fill="none" stroke="#fdf6e3" stroke-width="1.5" /><line x1="333.03" y1="163.09" x2="338.42" y2="154.67" stroke="#fdf6e3" stroke-width="2" /><line x1="339.94" y1="161.58" x2="331.52" y2="156.19" stroke="#fdf6e3" stroke-width="2" /><path d="M 406.67 50.40 C 458.86 50.40, 458.86 106.80, 511.05 106.80" fill="none" stroke="#fdf6e3" stroke-width="1.5" /><line x1="501.63" y1="107.40" x2="506.39" y2="98.60" stroke="#fdf6e3" stroke-width="2" /><line x1="508.41" y1="105.37" x2="499.61" y2="100.62" stroke="#fdf6e3" stroke-width="2" /><line x1="416.09" y1="49.80" x2="411.33" y2="58.60" stroke="#fdf6e3" stroke-width="2" /><line x1="409.31" y1="51.83" x2="418.11" y2="56.58" stroke="#fdf6e3" stroke-width="2" /><line x1="582.92" y1="106.80" x2="670.92" y2="106.80" stroke="#fdf6e3" stroke-width="1.5" stroke-dasharray="4,4" /><polygon points="670.92,106.80 658.92,100.80 658.92,112.80" fill="#fdf6e3" /><polygon points="582.92,106.80 594.92,112.80 594.92,100.80" fill="#fdf6e3" /><line x1="726.92" y1="106.80" x2="814.92" y2="106.80" stroke="#fdf6e3" stroke-width="2.5" /><polygon points="814.92,106.80 802.92,100.80 802.92,112.80" fill="#fdf6e3" /><text x="770.92" y="73.47" font-family="sans-serif" font-size="11.9" fill="#073642" text-anchor="middle">fast lane</text><rect x="30.00" y="86.40" width="56.00" height="40.80" fill="#073642" stroke="#fdf6e3" stroke-width="1.5" /><text x="58.00" y="111.47" font-family="sans-serif" font-size="14.0" fill="#fdf6e3" text-anchor="middle">API</text><rect x="174.00" y="86.40" width="80.46" height="40.80" fill="#073642" stroke="#fdf6e3" stroke-width="1.5" /><text x="214.23" y="111.47" font-family="sans-serif" font-size="14.0" fill="#fdf6e3" text-anchor="middle">Gateway</text><rect x="342.46" y="30.00" width="64.21" height="40.80" fill="#073642" stroke="#fdf6e3" stroke-width="1.5" /><text x="374.57" y="55.07" font-family="sans-serif" font-size="14.0" fill="#fdf6e3" text-anchor="middle">Cache</text><rect x="342.46" y="142.80" width="80.59" height="40.80" fill="#073642" stroke="#fdf6e3" stroke-width="1.5" /><text x="382.76" y="167.87" font-family="sans-serif" font-size="14.0" fill="#fdf6e3" text-anchor="middle">Rejected</text><rect x="511.05" y="86.40" width="71.87" height="40.80" fill="#073642" stroke="#fdf6e3" stroke-width="1.5" /><text x="546.98" y="111.47" font-family="sans-serif" font-size="14.0" fill="#fdf6e3" text-anchor="middle">Replica</text><rect x="670.92" y="86.40" width="56.00" height="40.80" fill="#073642" stroke="#fdf6e3" stroke-width="1.5" /><text x="698.92" y="111.47" font-family="sans-serif" font-size="14.0" fill="#fdf6e3" text-anchor="middle">Sync</text><rect x="814.92" y="86.40" width="64.12" height="40.80" fill="#073642" stroke="#fdf6e3" stroke-width="1.5" /><text x="846.98" y="111.47" font-family="sans-serif" font-size="14.0" fill="#fdf6e3" text-anchor="middle">Ready</text></g><text x="32.00" y="2035.94" font-family="sans-serif" font-size="24.00" fill="#268bd2" font-weight="700">Sequence</text><rect x="32.00" y="2050.34" width="736.00" height="575.00" rx="4.00" fill="#073642" /><g transform="translate(94.59, 2060.34)"><rect x="40.00" y="20.00" width="96.00" height="36.00" fill="#073642" stroke="#fdf6e3" stroke-width="1" rx="4" /><text x="88.00" y="42.67" font-family="sans-serif" font-size="14.0" fill="#fdf6e3" text-anchor="middle">Client</text><rect x="208.00" y="20.00" width="96.00" height="36.00" fill="#073642" stroke="#fdf6e3" stroke-width="1" rx="4" /><text x="256.00" y="42.67" font-family="sans-serif" font-size="14.0" fill="#fdf6e3" text-anchor="middle">Gateway</text><rect x="376.00" y="20.00" width="96.00" height="36.00" fill="#073642" stroke="#fdf6e3" stroke-width="1" rx="4" /><text x="424.00" y="42.67" font-family="sans-serif" font-size="14.0" fill="#fdf6e3" text-anchor="middle">Service</text><line x1="88.00" y1="64.00" x2="88.00" y2="498.00" stroke="#fdf6e3" stroke-width="1" stroke-dasharray="4,4" /><line x1="256.00" y1="64.00" x2="256.00" y2="498.00" stroke="#fdf6e3" stroke-width="1" stroke-dasharray="4,4" /><line x1="424.00" y1="64.00" x2="424.00" y2="498.00" stroke="#fdf6e3" stroke-width="1" stroke-dasharray="4,4" /><rect x="100.00" y="72.00" width="96.76" height="28" rx="3" fill="#073642" fill-opacity="0.25" stroke="#fdf6e3" stroke-width="1" /><text x="108.00" y="90.00" font-family="sans-serif" font-size="11.2" fill="#fdf6e3">trigger request</text><line x1="88.00" y1="132.00" x2="256.00" y2="132.00" stroke="#fdf6e3" stroke-width="1.5" /><polygon points="256.00,132.00 246.00,127.00 246.00,137.00" fill="#fdf6e3" /><text x="172.00" y="124.00" font-family="sans-serif" font-size="11.9" fill="#fdf6e3" text-anchor="middle">GET /items</text><line x1="256.00" y1="182.00" x2="424.00" y2="182.00" stroke="#fdf6e3" stroke-width="1.5" /><polygon points="424.00,182.00 414.00,177.00 414.00,187.00" fill="#fdf6e3" /><text x="340.00" y="174.00" font-family="sans-serif" font-size="11.9" fill="#fdf6e3" text-anchor="middle">validate + fetch</text><text x="10.00" y="232.00" font-family="sans-serif" font-size="11.2" fill="#fdf6e3" font-weight="bold">alt success</text><line x1="424.00" y1="250.00" x2="256.00" y2="250.00" stroke="#fdf6e3" stroke-width="1.5" stroke-dasharray="4,4" /><polyline points="266.00,245.00 256.00,250.00 266.00,255.00" fill="none" stroke="#fdf6e3" stroke-width="1.5" /><text x="340.00" y="242.00" font-family="sans-serif" font-size="11.9" fill="#fdf6e3" text-anchor="middle">200 OK</text><line x1="256.00" y1="300.00" x2="88.00" y2="300.00" stroke="#fdf6e3" stroke-width="1.5" stroke-dasharray="4,4" /><polyline points="98.00,295.00 88.00,300.00 98.00,305.00" fill="none" stroke="#fdf6e3" stroke-width="1.5" /><text x="172.00" y="292.00" font-family="sans-serif" font-size="11.9" fill="#fdf6e3" text-anchor="middle">200 OK</text><line x1="4.00" y1="352.00" x2="460.00" y2="352.00" stroke="#fdf6e3" stroke-width="1" stroke-dasharray="5,3" /><text x="10.00" y="348.00" font-family="sans-serif" font-size="10.9" fill="#fdf6e3">transient error</text><line x1="424.00" y1="382.00" x2="256.00" y2="382.00" stroke="#fdf6e3" stroke-width="1.5" stroke-dasharray="4,4" /><polyline points="266.00,377.00 256.00,382.00 266.00,387.00" fill="none" stroke="#fdf6e3" stroke-width="1.5" /><text x="340.00" y="374.00" font-family="sans-serif" font-size="11.9" fill="#fdf6e3" text-anchor="middle">503</text><line x1="256.00" y1="432.00" x2="88.00" y2="432.00" stroke="#fdf6e3" stroke-width="1.5" stroke-dasharray="4,4" /><polyline points="98.00,427.00 88.00,432.00 98.00,437.00" fill="none" stroke="#fdf6e3" stroke-width="1.5" /><text x="172.00" y="424.00" font-family="sans-serif" font-size="11.9" fill="#fdf6e3" text-anchor="middle">retry later</text><rect x="4.00" y="218.00" width="456.00" height="280.00" fill="none" stroke="#fdf6e3" stroke-width="1" stroke-dasharray="5,3" /></g><text x="32.00" y="2665.34" font-family="sans-serif" font-size="24.00" fill="#268bd2" font-weight="700">Class</text><rect x="32.00" y="2679.74" width="736.00" height="315.12" rx="4.00" fill="#073642" /><g transform="translate(285.00, 2689.74)"><rect x="30.00" y="30.00" width="180.00" height="100.84" fill="#073642" stroke="#fdf6e3" stroke-width="1.5" /><text x="120.00" y="52.00" font-family="sans-serif" font-size="14.0" fill="#fdf6e3" text-anchor="middle" font-weight="bold">Animal</text><line x1="30.00" y1="58.00" x2="210.00" y2="58.00" stroke="#fdf6e3" stroke-width="1" /><text x="38.00" y="76.00" font-family="monospace" font-size="11.9" fill="#fdf6e3">+ String name</text><text x="38.00" y="88.60" font-family="monospace" font-size="11.9" fill="#fdf6e3">+ int age</text><line x1="30.00" y1="103.20" x2="210.00" y2="103.20" stroke="#fdf6e3" stroke-width="1" /><text x="38.00" y="119.20" font-family="monospace" font-size="11.9" fill="#fdf6e3">+ makeSound()</text><rect x="30.00" y="202.84" width="180.00" height="72.28" fill="#073642" stroke="#fdf6e3" stroke-width="1.5" /><text x="120.00" y="224.84" font-family="sans-serif" font-size="14.0" fill="#fdf6e3" text-anchor="middle" font-weight="bold">Dog</text><line x1="30.00" y1="230.84" x2="210.00" y2="230.84" stroke="#fdf6e3" stroke-width="1" /><line x1="30.00" y1="250.84" x2="210.00" y2="250.84" stroke="#fdf6e3" stroke-width="1" /><text x="38.00" y="266.84" font-family="monospace" font-size="11.9" fill="#fdf6e3">+ bark()</text><line x1="120.00" y1="130.84" x2="120.00" y2="202.84" stroke="#fdf6e3" stroke-width="1.5" /><polygon points="120.00,130.84 113.00,144.84 127.00,144.84 120.00,140.84" fill="#073642" stroke="#fdf6e3" stroke-width="1" /></g><text x="32.00" y="3034.86" font-family="sans-serif" font-size="24.00" fill="#268bd2" font-weight="700">State</text><rect x="32.00" y="3049.26" width="736.00" height="680.00" rx="4.00" fill="#073642" /><g transform="translate(121.00, 3059.26)"><polyline points="284.00,54.00 258.00,92.50 284.00,131.00" fill="none" stroke="#fdf6e3" stroke-width="1.5" /><polygon points="284.00,131.00 282.55,119.91 274.26,125.51" fill="#fdf6e3" /><line x1="272.99" y1="166.00" x2="230.97" y2="242.38" stroke="#fdf6e3" stroke-width="1.5" /><polygon points="230.97,242.38 240.17,236.03 231.41,231.21" fill="#fdf6e3" /><line x1="318.64" y1="166.00" x2="447.69" y2="240.50" stroke="#fdf6e3" stroke-width="1.5" /><polygon points="447.69,240.50 441.53,231.17 436.53,239.83" fill="#fdf6e3" /><line x1="233.38" y1="432.00" x2="275.41" y2="508.38" stroke="#fdf6e3" stroke-width="1.5" /><polygon points="275.41,508.38 274.96,497.21 266.20,502.03" fill="#fdf6e3" /><text x="222.22" y="473.96" font-family="sans-serif" font-size="11.9" fill="#073642" text-anchor="middle">done</text><line x1="330.00" y1="296.24" x2="422.84" y2="272.25" stroke="#fdf6e3" stroke-width="1.5" /><polygon points="422.84,272.25 411.91,269.91 414.41,279.60" fill="#fdf6e3" /><text x="388.41" y="250.16" font-family="sans-serif" font-size="11.9" fill="#073642" text-anchor="middle">fatal</text><line x1="443.36" y1="238.00" x2="314.31" y2="163.50" stroke="#fdf6e3" stroke-width="1.5" /><polygon points="314.31,163.50 320.47,172.83 325.47,164.17" fill="#fdf6e3" /><polyline points="284.00,544.00 310.00,577.50 284.00,611.00" fill="none" stroke="#fdf6e3" stroke-width="1.5" /><polygon points="284.00,611.00 294.08,606.17 286.18,600.03" fill="#fdf6e3" /><circle cx="284.00" cy="42.00" r="12.00" fill="#fdf6e3" /><rect x="224.00" y="126.00" width="120.00" height="40.00" rx="10.00" fill="#073642" stroke="#fdf6e3" stroke-width="1.5" /><text x="284.00" y="150.67" font-family="sans-serif" font-size="14.0" fill="#fdf6e3" text-anchor="middle">Idle</text><rect x="30.00" y="238.00" width="300.00" height="194.00" rx="10.00" fill="#073642" stroke="#fdf6e3" stroke-width="1.5" /><text x="180.00" y="260.00" font-family="sans-serif" font-size="14.0" fill="#fdf6e3" text-anchor="middle">Running</text><rect x="46.00" y="310.00" width="120.00" height="40.00" rx="10.00" fill="#073642" stroke="#fdf6e3" stroke-width="1.5" /><text x="106.00" y="334.67" font-family="sans-serif" font-size="14.0" fill="#fdf6e3" text-anchor="middle">Validate</text><rect x="194.00" y="310.00" width="120.00" height="40.00" rx="10.00" fill="#073642" stroke="#fdf6e3" stroke-width="1.5" /><text x="254.00" y="334.67" font-family="sans-serif" font-size="14.0" fill="#fdf6e3" text-anchor="middle">Execute</text><rect x="46.00" y="378.00" width="120.00" height="40.00" rx="10.00" fill="#073642" stroke="#fdf6e3" stroke-width="1.5" /><text x="106.00" y="402.67" font-family="sans-serif" font-size="14.0" fill="#fdf6e3" text-anchor="middle">Persist</text><rect x="194.00" y="378.00" width="120.00" height="40.00" rx="10.00" fill="#073642" stroke="#fdf6e3" stroke-width="1.5" /><text x="254.00" y="402.67" font-family="sans-serif" font-size="14.0" fill="#fdf6e3" text-anchor="middle">Recover</text><line x1="166.00" y1="330.00" x2="199.00" y2="330.00" stroke="#fdf6e3" stroke-width="1.5" /><polygon points="199.00,330.00 189.00,325.00 189.00,335.00" fill="#fdf6e3" /><text x="181.24" y="300.00" font-family="sans-serif" font-size="11.9" fill="#073642" text-anchor="middle">ok</text><line x1="210.47" y1="350.00" x2="144.99" y2="380.09" stroke="#fdf6e3" stroke-width="1.5" /><polygon points="144.99,380.09 156.16,380.46 151.99,371.37" fill="#fdf6e3" /><text x="173.76" y="318.44" font-family="sans-serif" font-size="11.9" fill="#073642" text-anchor="middle">save</text><line x1="166.00" y1="398.00" x2="199.00" y2="398.00" stroke="#fdf6e3" stroke-width="1.5" /><polygon points="199.00,398.00 189.00,393.00 189.00,403.00" fill="#fdf6e3" /><text x="163.57" y="440.00" font-family="sans-serif" font-size="11.9" fill="#073642" text-anchor="middle">fail</text><line x1="210.47" y1="378.00" x2="144.99" y2="347.91" stroke="#fdf6e3" stroke-width="1.5" /><polygon points="144.99,347.91 151.99,356.63 156.16,347.54" fill="#fdf6e3" /><rect x="342.00" y="382.00" width="119.30" height="26.00" rx="3" fill="#073642" fill-opacity="0.25" stroke="#fdf6e3" stroke-width="1" /><text x="350.00" y="398.90" font-family="sans-serif" font-size="11.2" fill="#073642">exponential backoff</text><rect x="418.00" y="238.00" width="120.00" height="40.00" rx="10.00" fill="#073642" stroke="#fdf6e3" stroke-width="1.5" /><text x="478.00" y="262.67" font-family="sans-serif" font-size="14.0" fill="#fdf6e3" text-anchor="middle">Error</text><rect x="224.00" y="504.00" width="120.00" height="40.00" rx="10.00" fill="#073642" stroke="#fdf6e3" stroke-width="1.5" /><text x="284.00" y="528.67" font-family="sans-serif" font-size="14.0" fill="#fdf6e3" text-anchor="middle">Success</text><circle cx="284.00" cy="628.00" r="9.00" fill="#fdf6e3" stroke="#fdf6e3" stroke-width="2" /><circle cx="284.00" cy="628.00" r="12.00" fill="none" stroke="#fdf6e3" stroke-width="2" /></g><text x="32.00" y="3769.26" font-family="sans-serif" font-size="24.00" fill="#268bd2" font-weight="700">ER</text><rect x="32.00" y="3783.66" width="736.00" height="126.00" rx="4.00" fill="#073642" /><g transform="translate(181.00, 3793.66)"><line x1="180.00" y1="58.00" x2="268.00" y2="58.00" stroke="#fdf6e3" stroke-width="1.5" /><line x1="188.00" y1="64.00" x2="188.00" y2="52.00" stroke="#fdf6e3" stroke-width="1.5" /><line x1="194.00" y1="64.00" x2="194.00" y2="52.00" stroke="#fdf6e3" stroke-width="1.5" /><circle cx="260.00" cy="58.00" r="4.50" fill="#fdf6e3" stroke="#fdf6e3" stroke-width="1.2" /><line x1="252.00" y1="58.00" x2="244.00" y2="50.00" stroke="#fdf6e3" stroke-width="1.5" /><line x1="252.00" y1="58.00" x2="242.00" y2="58.00" stroke="#fdf6e3" stroke-width="1.5" /><line x1="252.00" y1="58.00" x2="244.00" y2="66.00" stroke="#fdf6e3" stroke-width="1.5" /><rect x="30.00" y="30.00" width="150.00" height="56.00" fill="#073642" stroke="#fdf6e3" stroke-width="1.5" /><text x="105.00" y="50.00" font-family="sans-serif" font-size="14.0" fill="#fdf6e3" text-anchor="middle" font-weight="bold">CUSTOMER</text><rect x="268.00" y="30.00" width="150.00" height="56.00" fill="#073642" stroke="#fdf6e3" stroke-width="1.5" /><text x="343.00" y="50.00" font-family="sans-serif" font-size="14.0" fill="#fdf6e3" text-anchor="middle" font-weight="bold">ORDER</text></g><text x="32.00" y="3955.90" font-family="sans-serif" font-size="28.80" fill="#268bd2" font-weight="700">Footnotes</text><text x="32.00" y="3980.86" font-family="sans-serif" font-size="16.00" fill="#586e75">This</text><text x="66.77" y="3980.86" font-family="sans-serif" font-size="16.00" fill="#586e75">is</text><text x="82.24" y="3980.86" font-family="sans-serif" font-size="16.00" fill="#586e75">a</text><text x="94.83" y="3980.86" font-family="sans-serif" font-size="16.00" fill="#586e75">reference</text><text x="168.50" y="3973.66" font-family="sans-serif" font-size="10.40" fill="#586e75">1</text><text x="177.85" y="3980.86" font-family="sans-serif" font-size="16.00" fill="#586e75">to</text><text x="196.92" y="3980.86" font-family="sans-serif" font-size="16.00" fill="#586e75">a</text><text x="209.52" y="3980.86" font-family="sans-serif" font-size="16.00" fill="#586e75">footnote.</text><text x="59.70" y="4020.86" font-family="sans-serif" font-size="16.00" fill="#586e75">This</text><text x="32.00" y="4020.86" font-family="sans-serif" font-size="16.00" fill="#586e75">[1]</text><text x="94.46" y="4020.86" font-family="sans-serif" font-size="16.00" fill="#586e75">is</text><text x="109.94" y="4020.86" font-family="sans-serif" font-size="16.00" fill="#586e75">the</text><text x="138.13" y="4020.86" font-family="sans-serif" font-size="16.00" fill="#586e75">footnote</text><text x="205.66" y="4020.86" font-family="sans-serif" font-size="16.00" fill="#586e75">content.</text><text x="32.00" y="4070.30" font-family="sans-serif" font-size="28.80" fill="#268bd2" font-weight="700">Definition</text><text x="187.20" y="4070.30" font-family="sans-serif" font-size="28.80" fill="#268bd2" font-weight="700">Lists</text><text x="32.00" y="4088.86" font-family="sans-serif" font-size="16.00" fill="#586e75" font-weight="700">Term</text><text x="79.12" y="4088.86" font-family="sans-serif" font-size="16.00" fill="#586e75" font-weight="700">1</text><text x="32.00" y="4114.46" font-family="sans-serif" font-size="16.00" fill="#586e75">Definition</text><text x="109.10" y="4114.46" font-family="sans-serif" font-size="16.00" fill="#586e75">1</text><text x="32.00" y="4140.06" font-family="sans-serif" font-size="16.00" fill="#586e75" font-weight="700">Term</text><text x="79.12" y="4140.06" font-family="sans-serif" font-size="16.00" fill="#586e75" font-weight="700">2</text><text x="32.00" y="4165.66" font-family="sans-serif" font-size="16.00" fill="#586e75">Definition</text><text x="109.10" y="4165.66" font-family="sans-serif" font-size="16.00" fill="#586e75">2</text><text x="32.00" y="4237.50" font-family="sans-serif" font-size="28.80" fill="#268bd2" font-weight="700">HTML</text><text x="32.00" y="4262.46" font-family="sans-serif" font-size="16.00" fill="#586e75">Inline</text><rect x="77.60" y="4248.06" width="70.80" height="21.00" rx="4.00" fill="#073642" /><text x="89.60" y="4262.46" font-family="monospace" font-size="13.00" fill="#586e75">&lt;span&gt;</text><text x="151.98" y="4262.46" font-family="sans-serif" font-size="16.00" fill="#586e75">tags</text><text x="186.74" y="4262.46" font-family="sans-serif" font-size="16.00" fill="#586e75">are</text><text x="214.22" y="4262.46" font-family="sans-serif" font-size="16.00" fill="#586e75">rendered</text><text x="286.06" y="4262.46" font-family="sans-serif" font-size="16.00" fill="#586e75">as</text><text x="306.14" y="4262.46" font-family="sans-serif" font-size="16.00" fill="#586e75">code.</text><rect x="32.00" y="4281.66" width="367.20" height="29.00" rx="4.00" fill="#073642" /><text x="44.00" y="4300.06" font-family="monospace" font-size="13.00" fill="#586e75">&lt;</text><text x="51.80" y="4300.06" font-family="monospace" font-size="13.00" fill="#268bd2">div</text><text x="75.20" y="4300.06" font-family="monospace" font-size="13.00" fill="#586e75">&gt;</text><text x="83.00" y="4300.06" font-family="monospace" font-size="13.00" fill="#839496">HTML&#160;blocks&#160;render&#160;as&#160;code&#160;blocks</text><text x="340.40" y="4300.06" font-family="monospace" font-size="13.00" fill="#586e75">&lt;/</text><text x="356.00" y="4300.06" font-family="monospace" font-size="13.00" fill="#268bd2">div</text><text x="379.40" y="4300.06" font-family="monospace" font-size="13.00" fill="#586e75">&gt;</text></svg>