<svg xmlns="http://www.w3.org/2000/svg" viewBox="0 0 800 4508.94" width="800" height="4508.94"><rect width="100%" height="100%" fill="#fdf6e3" /><text x="32.00" y="60.16" font-family="sans-serif" font-size="35.20" fill="#268bd2" font-weight="700">Markie</text><text x="168.05" y="60.16" font-family="sans-serif" font-size="35.20" fill="#268bd2" font-weight="700">Feature</text><text x="312.97" y="60.16" font-family="sans-serif" font-size="35.20" fill="#268bd2" font-weight="700">Examples</text><text x="32.00" y="86.40" font-family="sans-serif" font-size="16.00" fill="#586e75">This</text><text x="66.77" y="86.40" font-family="sans-serif" font-size="16.00" fill="#586e75">document</text><text x="147.31" y="86.40" font-family="sans-serif" font-size="16.00" fill="#586e75">showcases</text><text x="231.33" y="86.40" font-family="sans-serif" font-size="16.00" fill="#586e75">Markdown</text><text x="313.78" y="86.40" font-family="sans-serif" font-size="16.00" fill="#586e75">features</text><text x="377.89" y="86.40" font-family="sans-serif" font-size="16.00" fill="#586e75">supported</text><text x="458.99" y="86.40" font-family="sans-serif" font-size="16.00" fill="#586e75">by</text><text x="480.74" y="86.40" font-family="sans-serif" font-size="16.00" fill="#586e75">Markie,</text><text x="539.07" y="86.40" font-family="sans-serif" font-size="16.00" fill="#586e75">including</text><text x="612.34" y="86.40" font-family="sans-serif" font-size="16.00" fill="#586e75">enhanced</text><text x="689.58" y="86.40" font-family="sans-serif" font-size="16.00" fill="#586e75">math</text><text x="732.50" y="86.40" font-family="sans-serif" font-size="16.00" fill="#586e75">and</text><text x="32.00" y="112.00" font-family="sans-serif" font-size="16.00" fill="#586e75">native</text><text x="81.68" y="112.00" font-family="sans-serif" font-size="16.00" fill="#586e75">Mermaid</text><text x="151.47" y="112.00" font-family="sans-serif" font-size="16.00" fill="#586e75">diagrams.</text><text x="32.00" y="161.44" font-family="sans-serif" font-size="28.80" fill="#268bd2" font-weight="700">Text</text><text x="101.72" y="161.44" font-family="sans-serif" font-size="28.80" fill="#268bd2" font-weight="700">Formatting</text><text x="32.00" y="186.40" font-family="sans-serif" font-size="16.00" fill="#586e75">You</text><text x="62.75" y="186.40" font-family="sans-serif" font-size="16.00" fill="#586e75">can</text><text x="93.09" y="186.40" font-family="sans-serif" font-size="16.00" fill="#586e75">use</text><text x="122.74" y="186.40" font-family="sans-serif" font-size="16.00" fill="#586e75" font-weight="700">bold</text><text x="163.68" y="186.40" font-family="sans-serif" font-size="16.00" fill="#586e75" font-weight="700">text</text><text x="194.86" y="186.40" font-family="sans-serif" font-size="16.00" fill="#586e75">,</text><text x="202.90" y="186.40" font-family="sans-serif" font-size="16.00" fill="#586e75" font-style="italic">italic</text><text x="270.10" y="186.40" font-family="sans-serif" font-size="16.00" fill="#586e75" font-style="italic">text</text><text x="308.50" y="186.40" font-family="sans-serif" font-size="16.00" fill="#586e75">,</text><text x="316.53" y="186.40" font-family="sans-serif" font-size="16.00" fill="#586e75">and</text><rect x="348.80" y="172.00" width="109.80" height="21.00" rx="4.00" fill="#073642" /><text x="360.80" y="186.40" font-family="monospace" font-size="13.00" fill="#586e75">inline&#160;code</text><text x="462.18" y="186.40" font-family="sans-serif" font-size="16.00" fill="#586e75">for</text><text x="486.70" y="186.40" font-family="sans-serif" font-size="16.00" fill="#586e75">emphasis.</text><text x="32.00" y="218.40" font-family="sans-serif" font-size="16.00" fill="#586e75">Strikethrough</text><line x1="32.00" y1="213.28" x2="134.86" y2="213.28" stroke="#586e75" stroke-width="1" /><text x="138.45" y="218.40" font-family="sans-serif" font-size="16.00" fill="#586e75">text</text><line x1="138.45" y1="213.28" x2="166.54" y2="213.28" stroke="#586e75" stroke-width="1" /><text x="170.13" y="218.40" font-family="sans-serif" font-size="16.00" fill="#586e75">is</text><text x="185.60" y="218.40" font-family="sans-serif" font-size="16.00" fill="#586e75">also</text><text x="219.92" y="218.40" font-family="sans-serif" font-size="16.00" fill="#586e75">supported.</text><text x="32.00" y="267.84" font-family="sans-serif" font-size="28.80" fill="#268bd2" font-weight="700">Links</text><text x="120.50" y="267.84" font-family="sans-serif" font-size="28.80" fill="#268bd2" font-weight="700">and</text><text x="183.23" y="267.84" font-family="sans-serif" font-size="28.80" fill="#268bd2" font-weight="700">Images</text><text x="32.00" y="292.80" font-family="sans-serif" font-size="16.00" fill="#2aa198">Link</text><line x1="32.00" y1="294.72" x2="63.68" y2="294.72" stroke="#2aa198" stroke-width="1" /><text x="67.26" y="292.80" font-family="sans-serif" font-size="16.00" fill="#2aa198">text</text><line x1="67.26" y1="294.72" x2="95.36" y2="294.72" stroke="#2aa198" stroke-width="1" /><text x="98.94" y="292.80" font-family="sans-serif" font-size="16.00" fill="#586e75">renders</text><text x="159.60" y="292.80" font-family="sans-serif" font-size="16.00" fill="#586e75">as</text><text x="179.68" y="292.80" font-family="sans-serif" font-size="16.00" fill="#586e75">colored</text><text x="239.79" y="292.80" font-family="sans-serif" font-size="16.00" fill="#586e75">text.</text><text x="32.00" y="324.80" font-family="sans-serif" font-size="16.00" fill="#586e75">Images</text><text x="89.23" y="324.80" font-family="sans-serif" font-size="16.00" fill="#586e75">from</text><text x="128.56" y="324.80" font-family="sans-serif" font-size="16.00" fill="#586e75">local</text><text x="167.92" y="324.80" font-family="sans-serif" font-size="16.00" fill="#586e75">files</text><text x="202.00" y="324.80" font-family="sans-serif" font-size="16.00" fill="#586e75">or</text><text x="221.49" y="324.80" font-family="sans-serif" font-size="16.00" fill="#586e75">URLs:</text><rect x="32.00" y="336.00" width="195.60" height="21.00" rx="4.00" fill="#073642" /><text x="44.00" y="350.40" font-family="monospace" font-size="13.00" fill="#586e75">![Alt&#160;text](image.png)</text><text x="32.00" y="399.84" font-family="sans-serif" font-size="28.80" fill="#268bd2" font-weight="700">Lists</text><text x="32.00" y="445.60" font-family="sans-serif" font-size="24.00" fill="#268bd2" font-weight="700">Unordered</text><text x="170.50" y="445.60" font-family="sans-serif" font-size="24.00" fill="#268bd2" font-weight="700">Lists</text><text x="45.44" y="476.00" font-family="sans-serif" font-size="16.00" fill="#586e75">Item</text><text x="32.00" y="476.00" font-family="sans-serif" font-size="16.00" fill="#586e75">•</text><text x="83.18" y="476.00" font-family="sans-serif" font-size="16.00" fill="#586e75">1</text><text x="45.44" y="501.60" font-family="sans-serif" font-size="16.00" fill="#586e75">Item</text><text x="32.00" y="501.60" font-family="sans-serif" font-size="16.00" fill="#586e75">•</text><text x="83.18" y="501.60" font-family="sans-serif" font-size="16.00" fill="#586e75">2</text><text x="69.44" y="527.20" font-family="sans-serif" font-size="16.00" fill="#586e75">Nested</text><text x="56.00" y="527.20" font-family="sans-serif" font-size="16.00" fill="#586e75">•</text><text x="125.17" y="527.20" font-family="sans-serif" font-size="16.00" fill="#586e75">item</text><text x="45.44" y="552.80" font-family="sans-serif" font-size="16.00" fill="#586e75">Item</text><text x="32.00" y="552.80" font-family="sans-serif" font-size="16.00" fill="#586e75">•</text><text x="83.18" y="552.80" font-family="sans-serif" font-size="16.00" fill="#586e75">3</text><text x="32.00" y="596.00" font-family="sans-serif" font-size="24.00" fill="#268bd2" font-weight="700">Ordered</text><text x="139.02" y="596.00" font-family="sans-serif" font-size="24.00" fill="#268bd2" font-weight="700">Lists</text><text x="53.33" y="626.40" font-family="sans-serif" font-size="16.00" fill="#586e75">First</text><text x="32.00" y="626.40" font-family="sans-serif" font-size="16.00" fill="#586e75">1.</text><text x="89.46" y="626.40" font-family="sans-serif" font-size="16.00" fill="#586e75">item</text><text x="53.33" y="652.00" font-family="sans-serif" font-size="16.00" fill="#586e75">Second</text><text x="32.00" y="652.00" font-family="sans-serif" font-size="16.00" fill="#586e75">2.</text><text x="112.46" y="652.00" font-family="sans-serif" font-size="16.00" fill="#586e75">item</text><text x="53.33" y="677.60" font-family="sans-serif" font-size="16.00" fill="#586e75">Third</text><text x="32.00" y="677.60" font-family="sans-serif" font-size="16.00" fill="#586e75">3.</text><text x="96.56" y="677.60" font-family="sans-serif" font-size="16.00" fill="#586e75">item</text><text x="32.00" y="720.80" font-family="sans-serif" font-size="24.00" fill="#268bd2" font-weight="700">Task</text><text x="94.54" y="720.80" font-family="sans-serif" font-size="24.00" fill="#268bd2" font-weight="700">Lists</text><rect x="32.00" y="741.68" width="13.60" height="13.60" rx="2" ry="2" stroke="#586e75" fill="none" stroke-width="1" /><polyline points="34.72,749.16 38.12,752.56 42.88,744.40" fill="none" stroke="#586e75" stroke-width="2" stroke-linecap="round" stroke-linejoin="round" /><text x="53.60" y="751.20" font-family="sans-serif" font-size="16.00" fill="#586e75">Completed</text><text x="139.63" y="751.20" font-family="sans-serif" font-size="16.00" fill="#586e75">task</text><rect x="32.00" y="767.28" width="13.60" height="13.60" rx="2" ry="2" stroke="#586e75" fill="none" stroke-width="1" /><text x="53.60" y="776.80" font-family="sans-serif" font-size="16.00" fill="#586e75">Pending</text><text x="118.61" y="776.80" font-family="sans-serif" font-size="16.00" fill="#586e75">task</text><text x="32.00" y="826.24" font-family="sans-serif" font-size="28.80" fill="#268bd2" font-weight="700">Code</text><text x="112.90" y="826.24" font-family="sans-serif" font-size="28.80" fill="#268bd2" font-weight="700">Blocks</text><rect x="32.00" y="838.40" width="265.80" height="70.60" rx="4.00" fill="#073642" /><text x="44.00" y="856.80" font-family="monospace" font-size="13.00" fill="#268bd2">fn</text><text x="59.60" y="856.80" font-family="monospace" font-size="13.00" fill="#839496">&#160;</text><text x="67.40" y="856.80" font-family="monospace" font-size="13.00" fill="#b58900">main</text><text x="98.60" y="856.80" font-family="monospace" font-size="13.00" fill="#657b83">(</text><text x="106.40" y="856.80" font-family="monospace" font-size="13.00" fill="#657b83">)</text><text x="114.20" y="856.80" font-family="monospace" font-size="13.00" fill="#839496">&#160;</text><text x="122.00" y="856.80" font-family="monospace" font-size="13.00" fill="#657b83">{</text><text x="44.00" y="877.60" font-family="monospace" font-size="13.00" fill="#839496">&#160;&#160;&#160;&#160;</text><text x="75.20" y="877.60" font-family="monospace" font-size="13.00" fill="#859900">println!</text><text x="137.60" y="877.60" font-family="monospace" font-size="13.00" fill="#657b83">(</text><text x="145.40" y="877.60" font-family="monospace" font-size="13.00" fill="#839496">&quot;</text><text x="153.20" y="877.60" font-family="monospace" font-size="13.00" fill="#2aa198">Hello,&#160;Markie!</text><text x="262.40" y="877.60" font-family="monospace" font-size="13.00" fill="#839496">&quot;</text><text x="270.20" y="877.60" font-family="monospace" font-size="13.00" fill="#657b83">)</text><text x="278.00" y="877.60" font-family="monospace" font-size="13.00" fill="#839496">;</text><text x="44.00" y="898.40" font-family="monospace" font-size="13.00" fill="#657b83">}</text><text x="32.00" y="955.24" font-family="sans-serif" font-size="28.80" fill="#268bd2" font-weight="700">Tables</text><rect x="32.00" y="977.00" width="188.69" height="73.60" fill="none" stroke="#eee8d5" stroke-width="1" /><rect x="32.00" y="977.00" width="62.90" height="36.80" fill="none" stroke="#eee8d5" stroke-width="1" /><text x="40.00" y="995.40" font-family="sans-serif" font-size="16.00" fill="#586e75">Data&#160;1</text><rect x="94.90" y="977.00" width="62.90" height="36.80" fill="none" stroke="#eee8d5" stroke-width="1" /><text x="102.90" y="995.40" font-family="sans-serif" font-size="16.00" fill="#586e75">Data&#160;2</text><rect x="157.79" y="977.00" width="62.90" height="36.80" fill="none" stroke="#eee8d5" stroke-width="1" /><text x="165.79" y="995.40" font-family="sans-serif" font-size="16.00" fill="#586e75">Data&#160;3</text><rect x="32.00" y="1013.80" width="62.90" height="36.80" fill="none" stroke="#eee8d5" stroke-width="1" /><text x="40.00" y="1032.20" font-family="sans-serif" font-size="16.00" fill="#586e75">Data&#160;4</text><rect x="94.90" y="1013.80" width="62.90" height="36.80" fill="none" stroke="#eee8d5" stroke-width="1" /><text x="102.90" y="1032.20" font-family="sans-serif" font-size="16.00" fill="#586e75">Data&#160;5</text><rect x="157.79" y="1013.80" width="62.90" height="36.80" fill="none" stroke="#eee8d5" stroke-width="1" /><text x="165.79" y="1032.20" font-family="sans-serif" font-size="16.00" fill="#586e75">Data&#160;6</text><text x="32.00" y="1096.84" font-family="sans-serif" font-size="28.80" fill="#268bd2" font-weight="700">Blockquotes</text><text x="64.00" y="1121.80" font-family="sans-serif" font-size="16.00" fill="#586e75">This</text><text x="98.77" y="1121.80" font-family="sans-serif" font-size="16.00" fill="#586e75">is</text><text x="114.24" y="1121.80" font-family="sans-serif" font-size="16.00" fill="#586e75">a</text><text x="126.83" y="1121.80" font-family="sans-serif" font-size="16.00" fill="#586e75">blockquote.</text><text x="64.00" y="1147.40" font-family="sans-serif" font-size="16.00" fill="#586e75">It</text><text x="78.30" y="1147.40" font-family="sans-serif" font-size="16.00" fill="#586e75">can</text><text x="108.64" y="1147.40" font-family="sans-serif" font-size="16.00" fill="#586e75">span</text><text x="148.14" y="1147.40" font-family="sans-serif" font-size="16.00" fill="#586e75">multiple</text><text x="214.56" y="1147.40" font-family="sans-serif" font-size="16.00" fill="#586e75">lines.</text><line x1="38.00" y1="1096.20" x2="38.00" y2="1166.60" stroke="#eee8d5" stroke-width="2" /><text x="32.00" y="1196.84" font-family="sans-serif" font-size="28.80" fill="#268bd2" font-weight="700">Math</text><text x="32.00" y="1221.80" font-family="sans-serif" font-size="16.00" fill="#586e75">Inline</text><text x="77.60" y="1221.80" font-family="sans-serif" font-size="16.00" fill="#586e75">math:</text><g transform="translate(124.96, 1221.80)"><text x="0.00" y="0.00" font-family="serif" font-size="16.00" fill="#586e75" font-style="italic">E</text><text x="12.00" y="0.00" font-family="serif" font-size="16.00" fill="#586e75">=</text><text x="23.28" y="0.00" font-family="serif" font-size="16.00" fill="#586e75" font-style="italic">m</text><text x="32.88" y="0.00" font-family="serif" font-size="16.00" fill="#586e75" font-style="italic">c</text><text x="42.48" y="-6.60" font-family="serif" font-size="11.20" fill="#586e75">2</text></g><text x="32.00" y="1253.80" font-family="sans-serif" font-size="16.00" fill="#586e75">Display</text><text x="90.29" y="1253.80" font-family="sans-serif" font-size="16.00" fill="#586e75">math:</text><g transform="translate(378.24, 1326.12)"><text x="2.40" y="1.28" font-family="serif" font-size="22.40" fill="#586e75">∑</text><text x="10.48" y="-22.92" font-family="serif" font-size="10.40" fill="#586e75" font-style="italic">n</text><text x="3.15" y="16.92" font-family="serif" font-size="10.40" fill="#586e75" font-style="italic">i</text><text x="10.95" y="16.92" font-family="serif" font-size="10.40" fill="#586e75">=</text><text x="18.28" y="16.92" font-family="serif" font-size="10.40" fill="#586e75">1</text><text x="27.20" y="0.00" font-family="serif" font-size="16.00" fill="#586e75" font-style="italic">x</text><text x="36.80" y="7.92" font-family="serif" font-size="11.20" fill="#586e75" font-style="italic">i</text></g><text x="32.00" y="1391.88" font-family="sans-serif" font-size="28.80" fill="#268bd2" font-weight="700">Advanced</text><text x="182.88" y="1391.88" font-family="sans-serif" font-size="28.80" fill="#268bd2" font-weight="700">Math</text><text x="266.23" y="1391.88" font-family="sans-serif" font-size="28.80" fill="#268bd2" font-weight="700">(nth</text><text x="335.32" y="1391.88" font-family="sans-serif" font-size="28.80" fill="#268bd2" font-weight="700">root,</text><text x="413.28" y="1391.88" font-family="sans-serif" font-size="28.80" fill="#268bd2" font-weight="700">binomial,</text><text x="563.24" y="1391.88" font-family="sans-serif" font-size="28.80" fill="#268bd2" font-weight="700">matrix)</text><text x="32.00" y="1416.84" font-family="sans-serif" font-size="16.00" fill="#586e75">Inline</text><text x="77.60" y="1416.84" font-family="sans-serif" font-size="16.00" fill="#586e75">nth-root:</text><g transform="translate(148.10, 1416.84)"><text x="0.00" y="-4.50" font-family="serif" font-size="9.60" fill="#586e75">3</text><path d="M 8.00 -2.40 L 11.36 0.00 L 13.76 -17.40 L 64.51 -17.40 L 62.91 -18.20" stroke="#586e75" stroke-width="1.2" fill="none" /><text x="17.60" y="0.00" font-family="serif" font-size="16.00" fill="#586e75" font-style="italic">x</text><text x="27.20" y="-6.60" font-family="serif" font-size="11.20" fill="#586e75">3</text><text x="35.82" y="0.00" font-family="serif" font-size="16.00" fill="#586e75">+</text><text x="47.10" y="0.00" font-family="serif" font-size="16.00" fill="#586e75" font-style="italic">y</text><text x="56.70" y="-6.60" font-family="serif" font-size="11.20" fill="#586e75">3</text></g><text x="32.00" y="1448.84" font-family="sans-serif" font-size="16.00" fill="#586e75">Inline</text><text x="77.60" y="1448.84" font-family="sans-serif" font-size="16.00" fill="#586e75">binomial:</text><g transform="translate(152.14, 1448.84)"><text x="1.28" y="0.00" font-family="serif" font-size="16.00" fill="#586e75">(</text><text x="8.61" y="-10.60" font-family="serif" font-size="13.60" fill="#586e75" font-style="italic">n</text><text x="8.61" y="7.80" font-family="serif" font-size="13.60" fill="#586e75" font-style="italic">k</text><text x="18.69" y="0.00" font-family="serif" font-size="16.00" fill="#586e75">)</text></g><text x="32.00" y="1480.84" font-family="sans-serif" font-size="16.00" fill="#586e75">Display</text><text x="90.29" y="1480.84" font-family="sans-serif" font-size="16.00" fill="#586e75">matrix:</text><g transform="translate(382.75, 1539.24)"><text x="1.28" y="0.00" font-family="serif" font-size="16.00" fill="#586e75">[</text><text x="5.41" y="-6.00" font-family="serif" font-size="14.40" fill="#586e75" font-style="italic">a</text><text x="20.45" y="-6.00" font-family="serif" font-size="14.40" fill="#586e75" font-style="italic">b</text><text x="5.41" y="13.20" font-family="serif" font-size="14.40" fill="#586e75" font-style="italic">c</text><text x="20.45" y="13.20" font-family="serif" font-size="14.40" fill="#586e75" font-style="italic">d</text><text x="27.81" y="0.00" font-family="serif" font-size="16.00" fill="#586e75">]</text></g><text x="32.00" y="1584.84" font-family="sans-serif" font-size="16.00" fill="#586e75">Mixed</text><text x="79.42" y="1584.84" font-family="sans-serif" font-size="16.00" fill="#586e75">expression:</text><g transform="translate(348.41, 1652.19)"><text x="0.00" y="-7.01" font-family="serif" font-size="9.60" fill="#586e75">4</text><path d="M 8.00 -2.40 L 11.36 0.00 L 13.76 -25.75 L 64.12 -25.75 L 62.52 -26.55" stroke="#586e75" stroke-width="1.2" fill="none" /><text x="20.80" y="-10.60" font-family="serif" font-size="13.60" fill="#586e75" font-style="italic">a</text><text x="28.96" y="-16.21" font-family="serif" font-size="9.52" fill="#586e75">2</text><text x="36.28" y="-10.60" font-family="serif" font-size="13.60" fill="#586e75">+</text><text x="45.87" y="-10.60" font-family="serif" font-size="13.60" fill="#586e75" font-style="italic">b</text><text x="54.03" y="-16.21" font-family="serif" font-size="9.52" fill="#586e75">2</text><line x1="17.60" y1="-4.80" x2="62.52" y2="-4.80" stroke="#586e75" stroke-width="1" /><text x="33.34" y="10.35" font-family="serif" font-size="13.60" fill="#586e75" font-style="italic">c</text><text x="41.50" y="4.74" font-family="serif" font-size="9.52" fill="#586e75">2</text><text x="66.52" y="0.00" font-family="serif" font-size="16.00" fill="#586e75">+</text><text x="79.08" y="0.00" font-family="serif" font-size="16.00" fill="#586e75">(</text><text x="86.40" y="-10.60" font-family="serif" font-size="13.60" fill="#586e75" font-style="italic">n</text><text x="86.71" y="7.80" font-family="serif" font-size="13.60" fill="#586e75">2</text><text x="96.48" y="0.00" font-family="serif" font-size="16.00" fill="#586e75">)</text></g><text x="32.00" y="1712.18" font-family="sans-serif" font-size="28.80" fill="#268bd2" font-weight="700">Mermaid</text><text x="172.80" y="1712.18" font-family="sans-serif" font-size="28.80" fill="#268bd2" font-weight="700">Diagrams</text><text x="32.00" y="1757.94" font-family="sans-serif" font-size="24.00" fill="#268bd2" font-weight="700">Flowchart</text><rect x="32.00" y="1772.34" width="736.00" height="190.00" rx="4.00" fill="#073642" /><g transform="translate(32.00, 1782.34)"><line x1="58.00" y1="40.00" x2="118.00" y2="40.00" stroke="#fdf6e3" stroke-width="1.5" /><polygon points="118.00,40.00 106.00,34.00 106.00,46.00" fill="#fdf6e3" /><circle cx="63.00" cy="40.00" r="5" fill="#073642" stroke="#fdf6e3" stroke-width="1" /><path d="M 198.00 40.00 C 228.00 40.00, 228.00 130.00, 258.00 130.00" fill="none" stroke="#fdf6e3" stroke-width="1.5" /><circle cx="200.77" cy="44.16" r="5" fill="#073642" stroke="#fdf6e3" stroke-width="1" /><line x1="198.00" y1="40.00" x2="258.00" y2="40.00" stroke="#fdf6e3" stroke-width="1.5" /><line x1="250.00" y1="45.00" x2="250.00" y2="35.00" stroke="#fdf6e3" stroke-width="2" /><line x1="255.00" y1="40.00" x2="245.00" y2="40.00" stroke="#fdf6e3" stroke-width="2" /><path d="M 322.00 130.00 C 364.00 130.00, 364.00 40.00, 406.00 40.00" fill="none" stroke="#fdf6e3" stroke-width="1.5" /><line x1="404.20" y1="49.26" x2="396.89" y2="42.44" stroke="#fdf6e3" stroke-width="2" /><line x1="403.95" y1="42.19" x2="397.13" y2="49.50" stroke="#fdf6e3" stroke-width="2" /><line x1="323.80" y1="120.74" x2="331.11" y2="127.56" stroke="#fdf6e3" stroke-width="2" /><line x1="324.05" y1="127.81" x2="330.87" y2="120.50" stroke="#fdf6e3" stroke-width="2" /><line x1="486.00" y1="40.00" x2="546.00" y2="40.00" stroke="#fdf6e3" stroke-width="1.5" stroke-dasharray="4,4" /><polygon points="546.00,40.00 534.00,34.00 534.00,46.00" fill="#fdf6e3" /><polygon points="486.00,40.00 498.00,46.00 498.00,34.00" fill="#fdf6e3" /><line x1="602.00" y1="40.00" x2="662.00" y2="40.00" stroke="#fdf6e3" stroke-width="2.5" /><polygon points="662.00,40.00 650.00,34.00 650.00,46.00" fill="#fdf6e3" /><rect x="596.50" y="0.00" width="71.00" height="20.00" rx="2" fill="#fdf6e3" /><text x="632.00" y="14.67" font-family="sans-serif" font-size="11.9" fill="#073642" text-anchor="middle">fast lane</text><rect x="10.00" y="20.00" width="48.00" height="40.00" fill="#073642" stroke="#fdf6e3" stroke-width="1.5" /><text x="34.00" y="44.67" font-family="sans-serif" font-size="14.0" fill="#fdf6e3" text-anchor="middle">API</text><rect x="118.00" y="20.00" width="80.00" height="40.00" fill="#073642" stroke="#fdf6e3" stroke-width="1.5" /><text x="158.00" y="44.67" font-family="sans-serif" font-size="14.0" fill="#fdf6e3" text-anchor="middle">Gateway</text><rect x="258.00" y="110.00" width="64.00" height="40.00" fill="#073642" stroke="#fdf6e3" stroke-width="1.5" /><text x="290.00" y="134.67" font-family="sans-serif" font-size="14.0" fill="#fdf6e3" text-anchor="middle">Cache</text><rect x="258.00" y="20.00" width="88.00" height="40.00" fill="#073642" stroke="#fdf6e3" stroke-width="1.5" /><text x="302.00" y="44.67" font-family="sans-serif" font-size="14.0" fill="#fdf6e3" text-anchor="middle">Rejected</text><rect x="406.00" y="20.00" width="80.00" height="40.00" fill="#073642" stroke="#fdf6e3" stroke-width="1.5" /><text x="446.00" y="44.67" font-family="sans-serif" font-size="14.0" fill="#fdf6e3" text-anchor="middle">Replica</text><rect x="546.00" y="20.00" width="56.00" height="40.00" fill="#073642" stroke="#fdf6e3" stroke-width="1.5" /><text x="574.00" y="44.67" font-family="sans-serif" font-size="14.0" fill="#fdf6e3" text-anchor="middle">Sync</text><rect x="662.00" y="20.00" width="64.00" height="40.00" fill="#073642" stroke="#fdf6e3" stroke-width="1.5" /><text x="694.00" y="44.67" font-family="sans-serif" font-size="14.0" fill="#fdf6e3" text-anchor="middle">Ready</text></g><text x="32.00" y="2002.34" font-family="sans-serif" font-size="24.00" fill="#268bd2" font-weight="700">Sequence</text><rect x="32.00" y="2016.74" width="736.00" height="576.00" rx="4.00" fill="#073642" /><g transform="translate(32.00, 2026.74)"><rect x="40.00" y="20.00" width="120.00" height="40.00" fill="#073642" stroke="#fdf6e3" stroke-width="1" rx="4" /><text x="100.00" y="44.67" font-family="sans-serif" font-size="14.0" fill="#fdf6e3" text-anchor="middle">Client</text><rect x="240.00" y="20.00" width="120.00" height="40.00" fill="#073642" stroke="#fdf6e3" stroke-width="1" rx="4" /><text x="300.00" y="44.67" font-family="sans-serif" font-size="14.0" fill="#fdf6e3" text-anchor="middle">Gateway</text><rect x="440.00" y="20.00" width="120.00" height="40.00" fill="#073642" stroke="#fdf6e3" stroke-width="1" rx="4" /><text x="500.00" y="44.67" font-family="sans-serif" font-size="14.0" fill="#fdf6e3" text-anchor="middle">Service</text><line x1="100.00" y1="68.00" x2="100.00" y2="502.00" stroke="#fdf6e3" stroke-width="1" stroke-dasharray="4,4" /><line x1="300.00" y1="68.00" x2="300.00" y2="502.00" stroke="#fdf6e3" stroke-width="1" stroke-dasharray="4,4" /><line x1="500.00" y1="68.00" x2="500.00" y2="502.00" stroke="#fdf6e3" stroke-width="1" stroke-dasharray="4,4" /><rect x="112.00" y="76.00" width="110.00" height="28" rx="3" fill="#073642" fill-opacity="0.25" stroke="#fdf6e3" stroke-width="1" /><text x="120.00" y="94.00" font-family="sans-serif" font-size="11.2" fill="#fdf6e3">trigger request</text><line x1="100.00" y1="136.00" x2="300.00" y2="136.00" stroke="#fdf6e3" stroke-width="1.5" /><polygon points="300.00,136.00 290.00,131.00 290.00,141.00" fill="#fdf6e3" /><text x="200.00" y="128.00" font-family="sans-serif" font-size="11.9" fill="#fdf6e3" text-anchor="middle">GET /items</text><line x1="300.00" y1="186.00" x2="500.00" y2="186.00" stroke="#fdf6e3" stroke-width="1.5" /><polygon points="500.00,186.00 490.00,181.00 490.00,191.00" fill="#fdf6e3" /><text x="400.00" y="178.00" font-family="sans-serif" font-size="11.9" fill="#fdf6e3" text-anchor="middle">validate + fetch</text><text x="10.00" y="236.00" font-family="sans-serif" font-size="11.2" fill="#fdf6e3" font-weight="bold">alt success</text><line x1="500.00" y1="254.00" x2="300.00" y2="254.00" stroke="#fdf6e3" stroke-width="1.5" stroke-dasharray="4,4" /><polyline points="310.00,249.00 300.00,254.00 310.00,259.00" fill="none" stroke="#fdf6e3" stroke-width="1.5" /><text x="400.00" y="246.00" font-family="sans-serif" font-size="11.9" fill="#fdf6e3" text-anchor="middle">200 OK</text><line x1="300.00" y1="304.00" x2="100.00" y2="304.00" stroke="#fdf6e3" stroke-width="1.5" stroke-dasharray="4,4" /><polyline points="110.00,299.00 100.00,304.00 110.00,309.00" fill="none" stroke="#fdf6e3" stroke-width="1.5" /><text x="200.00" y="296.00" font-family="sans-serif" font-size="11.9" fill="#fdf6e3" text-anchor="middle">200 OK</text><line x1="4.00" y1="356.00" x2="536.00" y2="356.00" stroke="#fdf6e3" stroke-width="1" stroke-dasharray="5,3" /><text x="10.00" y="352.00" font-family="sans-serif" font-size="10.9" fill="#fdf6e3">transient error</text><line x1="500.00" y1="386.00" x2="300.00" y2="386.00" stroke="#fdf6e3" stroke-width="1.5" stroke-dasharray="4,4" /><polyline points="310.00,381.00 300.00,386.00 310.00,391.00" fill="none" stroke="#fdf6e3" stroke-width="1.5" /><text x="400.00" y="378.00" font-family="sans-serif" font-size="11.9" fill="#fdf6e3" text-anchor="middle">503</text><line x1="300.00" y1="436.00" x2="100.00" y2="436.00" stroke="#fdf6e3" stroke-width="1.5" stroke-dasharray="4,4" /><polyline points="110.00,431.00 100.00,436.00 110.00,441.00" fill="none" stroke="#fdf6e3" stroke-width="1.5" /><text x="200.00" y="428.00" font-family="sans-serif" font-size="11.9" fill="#fdf6e3" text-anchor="middle">retry later</text><rect x="4.00" y="222.00" width="532.00" height="280.00" fill="none" stroke="#fdf6e3" stroke-width="1" stroke-dasharray="5,3" /></g><text x="32.00" y="2632.74" font-family="sans-serif" font-size="24.00" fill="#268bd2" font-weight="700">Class</text><rect x="32.00" y="2647.14" width="736.00" height="190.00" rx="4.00" fill="#073642" /><g transform="translate(140.00, 2657.14)"><rect x="40.00" y="40.00" width="180.00" height="110.00" fill="#073642" stroke="#fdf6e3" stroke-width="1.5" /><text x="130.00" y="62.00" font-family="sans-serif" font-size="14.0" fill="#fdf6e3" text-anchor="middle" font-weight="bold">Animal</text><line x1="40.00" y1="68.00" x2="220.00" y2="68.00" stroke="#fdf6e3" stroke-width="1" /><text x="48.00" y="86.00" font-family="monospace" font-size="11.9" fill="#fdf6e3">+ String name</text><text x="48.00" y="98.60" font-family="monospace" font-size="11.9" fill="#fdf6e3">+ int age</text><line x1="40.00" y1="113.20" x2="220.00" y2="113.20" stroke="#fdf6e3" stroke-width="1" /><text x="48.00" y="129.20" font-family="monospace" font-size="11.9" fill="#fdf6e3">+ makeSound()</text><rect x="320.00" y="40.00" width="180.00" height="70.00" fill="#073642" stroke="#fdf6e3" stroke-width="1.5" /><text x="410.00" y="62.00" font-family="sans-serif" font-size="14.0" fill="#fdf6e3" text-anchor="middle" font-weight="bold">Dog</text><line x1="320.00" y1="68.00" x2="500.00" y2="68.00" stroke="#fdf6e3" stroke-width="1" /><line x1="320.00" y1="88.00" x2="500.00" y2="88.00" stroke="#fdf6e3" stroke-width="1" /><text x="328.00" y="104.00" font-family="monospace" font-size="11.9" fill="#fdf6e3">+ bark()</text><line x1="220.00" y1="88.57" x2="320.00" y2="81.43" stroke="#fdf6e3" stroke-width="1.5" /><polygon points="220.00,88.57 234.46,94.56 233.47,80.59 229.97,87.86" fill="#073642" stroke="#fdf6e3" stroke-width="1" /></g><text x="32.00" y="2877.14" font-family="sans-serif" font-size="24.00" fill="#268bd2" font-weight="700">State</text><rect x="32.00" y="2891.54" width="736.00" height="994.00" rx="4.00" fill="#073642" /><g transform="translate(130.00, 2901.54)"><line x1="57.28" y1="62.78" x2="92.40" y2="134.49" stroke="#fdf6e3" stroke-width="1.5" /><polygon points="92.40,134.49 92.50,123.31 83.51,127.71" fill="#fdf6e3" /><line x1="110.78" y1="170.00" x2="140.10" y2="224.40" stroke="#fdf6e3" stroke-width="1.5" /><polygon points="140.10,224.40 139.75,213.23 130.95,217.97" fill="#fdf6e3" /><line x1="160.00" y1="165.00" x2="404.85" y2="226.21" stroke="#fdf6e3" stroke-width="1.5" /><polygon points="404.85,226.21 396.36,218.94 393.94,228.64" fill="#fdf6e3" /><line x1="137.72" y1="414.00" x2="108.41" y2="468.40" stroke="#fdf6e3" stroke-width="1.5" /><polygon points="108.41,468.40 117.55,461.97 108.75,457.23" fill="#fdf6e3" /><rect x="91.38" y="418.41" width="35.20" height="17.20" rx="2" fill="#fdf6e3" /><text x="108.98" y="433.61" font-family="sans-serif" font-size="11.9" fill="#073642" text-anchor="middle">done</text><line x1="340.00" y1="274.22" x2="404.81" y2="255.74" stroke="#fdf6e3" stroke-width="1.5" /><polygon points="404.81,255.74 393.82,253.67 396.56,263.29" fill="#fdf6e3" /><rect x="347.02" y="234.39" width="42.00" height="17.20" rx="2" fill="#fdf6e3" /><text x="368.02" y="249.59" font-family="sans-serif" font-size="11.9" fill="#073642" text-anchor="middle">fatal</text><line x1="400.00" y1="225.00" x2="155.15" y2="163.79" stroke="#fdf6e3" stroke-width="1.5" /><polygon points="155.15,163.79 163.64,171.06 166.06,161.36" fill="#fdf6e3" /><line x1="88.29" y1="504.00" x2="60.59" y2="551.33" stroke="#fdf6e3" stroke-width="1.5" /><polygon points="60.59,551.33 69.95,545.22 61.32,540.17" fill="#fdf6e3" /><circle cx="52.00" cy="52.00" r="12.00" fill="#fdf6e3" /><rect x="40.00" y="130.00" width="120.00" height="40.00" rx="10.00" fill="#073642" stroke="#fdf6e3" stroke-width="1.5" /><text x="100.00" y="154.67" font-family="sans-serif" font-size="14.0" fill="#fdf6e3" text-anchor="middle">Idle</text><rect x="40.00" y="220.00" width="300.00" height="194.00" rx="10.00" fill="#073642" stroke="#fdf6e3" stroke-width="1.5" /><text x="190.00" y="242.00" font-family="sans-serif" font-size="14.0" fill="#fdf6e3" text-anchor="middle">Running</text><rect x="56.00" y="292.00" width="120.00" height="40.00" rx="10.00" fill="#073642" stroke="#fdf6e3" stroke-width="1.5" /><text x="116.00" y="316.67" font-family="sans-serif" font-size="14.0" fill="#fdf6e3" text-anchor="middle">Validate</text><rect x="204.00" y="292.00" width="120.00" height="40.00" rx="10.00" fill="#073642" stroke="#fdf6e3" stroke-width="1.5" /><text x="264.00" y="316.67" font-family="sans-serif" font-size="14.0" fill="#fdf6e3" text-anchor="middle">Execute</text><rect x="56.00" y="360.00" width="120.00" height="40.00" rx="10.00" fill="#073642" stroke="#fdf6e3" stroke-width="1.5" /><text x="116.00" y="384.67" font-family="sans-serif" font-size="14.0" fill="#fdf6e3" text-anchor="middle">Persist</text><rect x="204.00" y="360.00" width="120.00" height="40.00" rx="10.00" fill="#073642" stroke="#fdf6e3" stroke-width="1.5" /><text x="264.00" y="384.67" font-family="sans-serif" font-size="14.0" fill="#fdf6e3" text-anchor="middle">Recover</text><line x1="176.00" y1="312.00" x2="209.00" y2="312.00" stroke="#fdf6e3" stroke-width="1.5" /><polygon points="209.00,312.00 199.00,307.00 199.00,317.00" fill="#fdf6e3" /><rect x="185.70" y="277.80" width="21.60" height="17.20" rx="2" fill="#fdf6e3" /><text x="196.50" y="293.00" font-family="sans-serif" font-size="11.9" fill="#073642" text-anchor="middle">ok</text><line x1="220.47" y1="332.00" x2="154.99" y2="362.09" stroke="#fdf6e3" stroke-width="1.5" /><polygon points="154.99,362.09 166.16,362.46 161.99,353.37" fill="#fdf6e3" /><rect x="163.45" y="317.30" width="35.20" height="17.20" rx="2" fill="#fdf6e3" /><text x="181.05" y="332.50" font-family="sans-serif" font-size="11.9" fill="#073642" text-anchor="middle">save</text><line x1="176.00" y1="380.00" x2="209.00" y2="380.00" stroke="#fdf6e3" stroke-width="1.5" /><polygon points="209.00,380.00 199.00,375.00 199.00,385.00" fill="#fdf6e3" /><rect x="166.90" y="386.80" width="35.20" height="17.20" rx="2" fill="#fdf6e3" /><text x="184.50" y="402.00" font-family="sans-serif" font-size="11.9" fill="#073642" text-anchor="middle">fail</text><line x1="220.47" y1="360.00" x2="154.99" y2="329.91" stroke="#fdf6e3" stroke-width="1.5" /><polygon points="154.99,329.91 161.99,338.63 166.16,329.54" fill="#fdf6e3" /><rect x="352.00" y="364.00" width="114.00" height="26.00" rx="3" fill="#073642" fill-opacity="0.25" stroke="#fdf6e3" stroke-width="1" /><text x="360.00" y="380.90" font-family="sans-serif" font-size="11.2" fill="#073642">exponential backoff</text><rect x="400.00" y="220.00" width="120.00" height="40.00" rx="10.00" fill="#073642" stroke="#fdf6e3" stroke-width="1.5" /><text x="460.00" y="244.67" font-family="sans-serif" font-size="14.0" fill="#fdf6e3" text-anchor="middle">Error</text><rect x="40.00" y="464.00" width="120.00" height="40.00" rx="10.00" fill="#073642" stroke="#fdf6e3" stroke-width="1.5" /><text x="100.00" y="488.67" font-family="sans-serif" font-size="14.0" fill="#fdf6e3" text-anchor="middle">Success</text><circle cx="52.00" cy="566.00" r="9.00" fill="#fdf6e3" stroke="#fdf6e3" stroke-width="2" /><circle cx="52.00" cy="566.00" r="12.00" fill="none" stroke="#fdf6e3" stroke-width="2" /></g><text x="32.00" y="3925.54" font-family="sans-serif" font-size="24.00" fill="#268bd2" font-weight="700">ER</text><rect x="32.00" y="3939.94" width="736.00" height="120.00" rx="4.00" fill="#073642" /><g transform="translate(170.00, 3949.94)"><line x1="180.00" y1="60.00" x2="300.00" y2="60.00" stroke="#fdf6e3" stroke-width="1.5" /><line x1="188.00" y1="66.00" x2="188.00" y2="54.00" stroke="#fdf6e3" stroke-width="1.5" /><line x1="194.00" y1="66.00" x2="194.00" y2="54.00" stroke="#fdf6e3" stroke-width="1.5" /><circle cx="292.00" cy="60.00" r="4.50" fill="#fdf6e3" stroke="#fdf6e3" stroke-width="1.2" /><line x1="284.00" y1="60.00" x2="276.00" y2="52.00" stroke="#fdf6e3" stroke-width="1.5" /><line x1="284.00" y1="60.00" x2="274.00" y2="60.00" stroke="#fdf6e3" stroke-width="1.5" /><line x1="284.00" y1="60.00" x2="276.00" y2="68.00" stroke="#fdf6e3" stroke-width="1.5" /><rect x="40.00" y="40.00" width="140.00" height="40.00" fill="#073642" stroke="#fdf6e3" stroke-width="1.5" /><text x="110.00" y="60.00" font-family="sans-serif" font-size="14.0" fill="#fdf6e3" text-anchor="middle" font-weight="bold">CUSTOMER</text><rect x="300.00" y="40.00" width="140.00" height="40.00" fill="#073642" stroke="#fdf6e3" stroke-width="1.5" /><text x="370.00" y="60.00" font-family="sans-serif" font-size="14.0" fill="#fdf6e3" text-anchor="middle" font-weight="bold">ORDER</text></g><text x="32.00" y="4106.18" font-family="sans-serif" font-size="28.80" fill="#268bd2" font-weight="700">Footnotes</text><text x="32.00" y="4131.14" font-family="sans-serif" font-size="16.00" fill="#586e75">This</text><text x="66.77" y="4131.14" font-family="sans-serif" font-size="16.00" fill="#586e75">is</text><text x="82.24" y="4131.14" font-family="sans-serif" font-size="16.00" fill="#586e75">a</text><text x="94.83" y="4131.14" font-family="sans-serif" font-size="16.00" fill="#586e75">reference</text><text x="168.50" y="4123.94" font-family="sans-serif" font-size="10.40" fill="#586e75">1</text><text x="177.85" y="4131.14" font-family="sans-serif" font-size="16.00" fill="#586e75">to</text><text x="196.92" y="4131.14" font-family="sans-serif" font-size="16.00" fill="#586e75">a</text><text x="209.52" y="4131.14" font-family="sans-serif" font-size="16.00" fill="#586e75">footnote.</text><text x="59.70" y="4171.14" font-family="sans-serif" font-size="16.00" fill="#586e75">This</text><text x="32.00" y="4171.14" font-family="sans-serif" font-size="16.00" fill="#586e75">[1]</text><text x="94.46" y="4171.14" font-family="sans-serif" font-size="16.00" fill="#586e75">is</text><text x="109.94" y="4171.14" font-family="sans-serif" font-size="16.00" fill="#586e75">the</text><text x="138.13" y="4171.14" font-family="sans-serif" font-size="16.00" fill="#586e75">footnote</text><text x="205.66" y="4171.14" font-family="sans-serif" font-size="16.00" fill="#586e75">content.</text><text x="32.00" y="4220.58" font-family="sans-serif" font-size="28.80" fill="#268bd2" font-weight="700">Definition</text><text x="187.20" y="4220.58" font-family="sans-serif" font-size="28.80" fill="#268bd2" font-weight="700">Lists</text><text x="32.00" y="4239.14" font-family="sans-serif" font-size="16.00" fill="#586e75" font-weight="700">Term</text><text x="79.12" y="4239.14" font-family="sans-serif" font-size="16.00" fill="#586e75" font-weight="700">1</text><text x="32.00" y="4264.74" font-family="sans-serif" font-size="16.00" fill="#586e75">Definition</text><text x="109.10" y="4264.74" font-family="sans-serif" font-size="16.00" fill="#586e75">1</text><text x="32.00" y="4290.34" font-family="sans-serif" font-size="16.00" fill="#586e75" font-weight="700">Term</text><text x="79.12" y="4290.34" font-family="sans-serif" font-size="16.00" fill="#586e75" font-weight="700">2</text><text x="32.00" y="4315.94" font-family="sans-serif" font-size="16.00" fill="#586e75">Definition</text><text x="109.10" y="4315.94" font-family="sans-serif" font-size="16.00" fill="#586e75">2</text><text x="32.00" y="4387.78" font-family="sans-serif" font-size="28.80" fill="#268bd2" font-weight="700">HTML</text><text x="32.00" y="4412.74" font-family="sans-serif" font-size="16.00" fill="#586e75">Inline</text><rect x="77.60" y="4398.34" width="70.80" height="21.00" rx="4.00" fill="#073642" /><text x="89.60" y="4412.74" font-family="monospace" font-size="13.00" fill="#586e75">&lt;span&gt;</text><text x="151.98" y="4412.74" font-family="sans-serif" font-size="16.00" fill="#586e75">tags</text><text x="186.74" y="4412.74" font-family="sans-serif" font-size="16.00" fill="#586e75">are</text><text x="214.22" y="4412.74" font-family="sans-serif" font-size="16.00" fill="#586e75">rendered</text><text x="286.06" y="4412.74" font-family="sans-serif" font-size="16.00" fill="#586e75">as</text><text x="306.14" y="4412.74" font-family="sans-serif" font-size="16.00" fill="#586e75">code.</text><rect x="32.00" y="4431.94" width="367.20" height="29.00" rx="4.00" fill="#073642" /><text x="44.00" y="4450.34" font-family="monospace" font-size="13.00" fill="#586e75">&lt;</text><text x="51.80" y="4450.34" font-family="monospace" font-size="13.00" fill="#268bd2">div</text><text x="75.20" y="4450.34" font-family="monospace" font-size="13.00" fill="#586e75">&gt;</text><text x="83.00" y="4450.34" font-family="monospace" font-size="13.00" fill="#839496">HTML&#160;blocks&#160;render&#160;as&#160;code&#160;blocks</text><text x="340.40" y="4450.34" font-family="monospace" font-size="13.00" fill="#586e75">&lt;/</text><text x="356.00" y="4450.34" font-family="monospace" font-size="13.00" fill="#268bd2">div</text><text x="379.40" y="4450.34" font-family="monospace" font-size="13.00" fill="#586e75">&gt;</text></svg>