<svg xmlns="http://www.w3.org/2000/svg" viewBox="0 0 1200 4586.78" width="1200" height="4586.78"><rect width="100%" height="100%" fill="#fdf6e3" /><text x="32.00" y="60.16" font-family="sans-serif" font-size="35.20" fill="#268bd2" font-weight="700">Markie</text><text x="168.05" y="60.16" font-family="sans-serif" font-size="35.20" fill="#268bd2" font-weight="700">Feature</text><text x="312.97" y="60.16" font-family="sans-serif" font-size="35.20" fill="#268bd2" font-weight="700">Examples</text><text x="32.00" y="86.40" font-family="sans-serif" font-size="16.00" fill="#586e75">This</text><text x="66.77" y="86.40" font-family="sans-serif" font-size="16.00" fill="#586e75">document</text><text x="147.31" y="86.40" font-family="sans-serif" font-size="16.00" fill="#586e75">showcases</text><text x="231.33" y="86.40" font-family="sans-serif" font-size="16.00" fill="#586e75">Markdown</text><text x="313.78" y="86.40" font-family="sans-serif" font-size="16.00" fill="#586e75">features</text><text x="377.89" y="86.40" font-family="sans-serif" font-size="16.00" fill="#586e75">supported</text><text x="458.99" y="86.40" font-family="sans-serif" font-size="16.00" fill="#586e75">by</text><text x="480.74" y="86.40" font-family="sans-serif" font-size="16.00" fill="#586e75">Markie,</text><text x="539.07" y="86.40" font-family="sans-serif" font-size="16.00" fill="#586e75">including</text><text x="612.34" y="86.40" font-family="sans-serif" font-size="16.00" fill="#586e75">enhanced</text><text x="689.58" y="86.40" font-family="sans-serif" font-size="16.00" fill="#586e75">math</text><text x="732.50" y="86.40" font-family="sans-serif" font-size="16.00" fill="#586e75">and</text><text x="764.77" y="86.40" font-family="sans-serif" font-size="16.00" fill="#586e75">native</text><text x="814.45" y="86.40" font-family="sans-serif" font-size="16.00" fill="#586e75">Mermaid</text><text x="884.24" y="86.40" font-family="sans-serif" font-size="16.00" fill="#586e75">diagrams.</text><text x="32.00" y="135.84" font-family="sans-serif" font-size="28.80" fill="#268bd2" font-weight="700">Text</text><text x="101.72" y="135.84" font-family="sans-serif" font-size="28.80" fill="#268bd2" font-weight="700">Formatting</text><text x="32.00" y="160.80" font-family="sans-serif" font-size="16.00" fill="#586e75">You</text><text x="62.75" y="160.80" font-family="sans-serif" font-size="16.00" fill="#586e75">can</text><text x="93.09" y="160.80" font-family="sans-serif" font-size="16.00" fill="#586e75">use</text><text x="122.74" y="160.80" font-family="sans-serif" font-size="16.00" fill="#586e75" font-weight="700">bold</text><text x="163.68" y="160.80" font-family="sans-serif" font-size="16.00" fill="#586e75" font-weight="700">text</text><text x="194.86" y="160.80" font-family="sans-serif" font-size="16.00" fill="#586e75">,</text><text x="202.90" y="160.80" font-family="sans-serif" font-size="16.00" fill="#586e75" font-style="italic">italic</text><text x="266.90" y="160.80" font-family="sans-serif" font-size="16.00" fill="#586e75" font-style="italic">text</text><text x="305.30" y="160.80" font-family="sans-serif" font-size="16.00" fill="#586e75">,</text><text x="313.33" y="160.80" font-family="sans-serif" font-size="16.00" fill="#586e75">and</text><rect x="345.60" y="147.05" width="109.80" height="24.25" rx="4.00" fill="#073642" /><text x="357.60" y="160.80" font-family="monospace" font-size="13.00" fill="#586e75">inline&#160;code</text><text x="458.98" y="160.80" font-family="sans-serif" font-size="16.00" fill="#586e75">for</text><text x="483.50" y="160.80" font-family="sans-serif" font-size="16.00" fill="#586e75">emphasis.</text><text x="32.00" y="192.80" font-family="sans-serif" font-size="16.00" fill="#586e75">Strikethrough</text><line x1="32.00" y1="187.68" x2="134.86" y2="187.68" stroke="#586e75" stroke-width="1" /><text x="138.45" y="192.80" font-family="sans-serif" font-size="16.00" fill="#586e75">text</text><line x1="138.45" y1="187.68" x2="166.54" y2="187.68" stroke="#586e75" stroke-width="1" /><text x="170.13" y="192.80" font-family="sans-serif" font-size="16.00" fill="#586e75">is</text><text x="185.60" y="192.80" font-family="sans-serif" font-size="16.00" fill="#586e75">also</text><text x="219.92" y="192.80" font-family="sans-serif" font-size="16.00" fill="#586e75">supported.</text><text x="32.00" y="242.24" font-family="sans-serif" font-size="28.80" fill="#268bd2" font-weight="700">Links</text><text x="120.50" y="242.24" font-family="sans-serif" font-size="28.80" fill="#268bd2" font-weight="700">and</text><text x="183.23" y="242.24" font-family="sans-serif" font-size="28.80" fill="#268bd2" font-weight="700">Images</text><text x="32.00" y="267.20" font-family="sans-serif" font-size="16.00" fill="#2aa198">Link</text><line x1="32.00" y1="269.12" x2="63.68" y2="269.12" stroke="#2aa198" stroke-width="1" /><text x="67.26" y="267.20" font-family="sans-serif" font-size="16.00" fill="#2aa198">text</text><line x1="67.26" y1="269.12" x2="95.36" y2="269.12" stroke="#2aa198" stroke-width="1" /><text x="98.94" y="267.20" font-family="sans-serif" font-size="16.00" fill="#586e75">renders</text><text x="159.60" y="267.20" font-family="sans-serif" font-size="16.00" fill="#586e75">as</text><text x="179.68" y="267.20" font-family="sans-serif" font-size="16.00" fill="#586e75">colored</text><text x="239.79" y="267.20" font-family="sans-serif" font-size="16.00" fill="#586e75">text.</text><text x="32.00" y="299.20" font-family="sans-serif" font-size="16.00" fill="#586e75">Images</text><text x="89.23" y="299.20" font-family="sans-serif" font-size="16.00" fill="#586e75">from</text><text x="128.56" y="299.20" font-family="sans-serif" font-size="16.00" fill="#586e75">local</text><text x="167.92" y="299.20" font-family="sans-serif" font-size="16.00" fill="#586e75">files</text><text x="202.00" y="299.20" font-family="sans-serif" font-size="16.00" fill="#586e75">or</text><text x="221.49" y="299.20" font-family="sans-serif" font-size="16.00" fill="#586e75">URLs:</text><rect x="32.00" y="313.45" width="195.60" height="24.25" rx="4.00" fill="#073642" /><text x="44.00" y="327.20" font-family="monospace" font-size="13.00" fill="#586e75">![Alt&#160;text](image.png)</text><text x="32.00" y="376.64" font-family="sans-serif" font-size="28.80" fill="#268bd2" font-weight="700">Lists</text><text x="32.00" y="422.40" font-family="sans-serif" font-size="24.00" fill="#268bd2" font-weight="700">Unordered</text><text x="170.50" y="422.40" font-family="sans-serif" font-size="24.00" fill="#268bd2" font-weight="700">Lists</text><text x="69.44" y="452.80" font-family="sans-serif" font-size="16.00" fill="#586e75">Item</text><text x="56.00" y="452.80" font-family="sans-serif" font-size="16.00" fill="#586e75">•</text><text x="107.18" y="452.80" font-family="sans-serif" font-size="16.00" fill="#586e75">1</text><text x="69.44" y="480.80" font-family="sans-serif" font-size="16.00" fill="#586e75">Item</text><text x="56.00" y="480.80" font-family="sans-serif" font-size="16.00" fill="#586e75">•</text><text x="107.18" y="480.80" font-family="sans-serif" font-size="16.00" fill="#586e75">2</text><text x="93.44" y="508.80" font-family="sans-serif" font-size="16.00" fill="#586e75">Nested</text><text x="80.00" y="508.80" font-family="sans-serif" font-size="16.00" fill="#586e75">•</text><text x="149.17" y="508.80" font-family="sans-serif" font-size="16.00" fill="#586e75">item</text><text x="69.44" y="536.80" font-family="sans-serif" font-size="16.00" fill="#586e75">Item</text><text x="56.00" y="536.80" font-family="sans-serif" font-size="16.00" fill="#586e75">•</text><text x="107.18" y="536.80" font-family="sans-serif" font-size="16.00" fill="#586e75">3</text><text x="32.00" y="580.00" font-family="sans-serif" font-size="24.00" fill="#268bd2" font-weight="700">Ordered</text><text x="139.02" y="580.00" font-family="sans-serif" font-size="24.00" fill="#268bd2" font-weight="700">Lists</text><text x="77.33" y="610.40" font-family="sans-serif" font-size="16.00" fill="#586e75">First</text><text x="56.00" y="610.40" font-family="sans-serif" font-size="16.00" fill="#586e75">1.</text><text x="113.46" y="610.40" font-family="sans-serif" font-size="16.00" fill="#586e75">item</text><text x="77.33" y="638.40" font-family="sans-serif" font-size="16.00" fill="#586e75">Second</text><text x="56.00" y="638.40" font-family="sans-serif" font-size="16.00" fill="#586e75">2.</text><text x="136.46" y="638.40" font-family="sans-serif" font-size="16.00" fill="#586e75">item</text><text x="77.33" y="666.40" font-family="sans-serif" font-size="16.00" fill="#586e75">Third</text><text x="56.00" y="666.40" font-family="sans-serif" font-size="16.00" fill="#586e75">3.</text><text x="120.56" y="666.40" font-family="sans-serif" font-size="16.00" fill="#586e75">item</text><text x="32.00" y="709.60" font-family="sans-serif" font-size="24.00" fill="#268bd2" font-weight="700">Task</text><text x="94.54" y="709.60" font-family="sans-serif" font-size="24.00" fill="#268bd2" font-weight="700">Lists</text><rect x="56.00" y="730.48" width="13.60" height="13.60" rx="2" ry="2" stroke="#586e75" fill="none" stroke-width="1" /><polyline points="58.72,737.96 62.12,741.36 66.88,733.20" fill="none" stroke="#586e75" stroke-width="2" stroke-linecap="round" stroke-linejoin="round" /><text x="77.60" y="740.00" font-family="sans-serif" font-size="16.00" fill="#586e75">Completed</text><text x="163.63" y="740.00" font-family="sans-serif" font-size="16.00" fill="#586e75">task</text><rect x="56.00" y="758.48" width="13.60" height="13.60" rx="2" ry="2" stroke="#586e75" fill="none" stroke-width="1" /><text x="77.60" y="768.00" font-family="sans-serif" font-size="16.00" fill="#586e75">Pending</text><text x="142.61" y="768.00" font-family="sans-serif" font-size="16.00" fill="#586e75">task</text><text x="32.00" y="817.44" font-family="sans-serif" font-size="28.80" fill="#268bd2" font-weight="700">Code</text><text x="112.90" y="817.44" font-family="sans-serif" font-size="28.80" fill="#268bd2" font-weight="700">Blocks</text><rect x="32.00" y="839.20" width="265.80" height="70.60" rx="4.00" fill="#073642" /><text x="44.00" y="857.60" font-family="monospace" font-size="13.00" fill="#268bd2">fn</text><text x="59.60" y="857.60" font-family="monospace" font-size="13.00" fill="#839496">&#160;</text><text x="67.40" y="857.60" font-family="monospace" font-size="13.00" fill="#b58900">main</text><text x="98.60" y="857.60" font-family="monospace" font-size="13.00" fill="#657b83">(</text><text x="106.40" y="857.60" font-family="monospace" font-size="13.00" fill="#657b83">)</text><text x="114.20" y="857.60" font-family="monospace" font-size="13.00" fill="#839496">&#160;</text><text x="122.00" y="857.60" font-family="monospace" font-size="13.00" fill="#657b83">{</text><text x="44.00" y="878.40" font-family="monospace" font-size="13.00" fill="#839496">&#160;&#160;&#160;&#160;</text><text x="75.20" y="878.40" font-family="monospace" font-size="13.00" fill="#859900">println!</text><text x="137.60" y="878.40" font-family="monospace" font-size="13.00" fill="#657b83">(</text><text x="145.40" y="878.40" font-family="monospace" font-size="13.00" fill="#839496">&quot;</text><text x="153.20" y="878.40" font-family="monospace" font-size="13.00" fill="#2aa198">Hello,&#160;Markie!</text><text x="262.40" y="878.40" font-family="monospace" font-size="13.00" fill="#839496">&quot;</text><text x="270.20" y="878.40" font-family="monospace" font-size="13.00" fill="#657b83">)</text><text x="278.00" y="878.40" font-family="monospace" font-size="13.00" fill="#839496">;</text><text x="44.00" y="899.20" font-family="monospace" font-size="13.00" fill="#657b83">}</text><text x="32.00" y="956.04" font-family="sans-serif" font-size="28.80" fill="#268bd2" font-weight="700">Tables</text><rect x="32.00" y="977.80" width="188.69" height="73.60" fill="none" stroke="#eee8d5" stroke-width="1" /><rect x="32.00" y="977.80" width="62.90" height="36.80" fill="none" stroke="#eee8d5" stroke-width="1" /><text x="40.00" y="996.20" font-family="sans-serif" font-size="16.00" fill="#586e75">Data&#160;1</text><rect x="94.90" y="977.80" width="62.90" height="36.80" fill="none" stroke="#eee8d5" stroke-width="1" /><text x="102.90" y="996.20" font-family="sans-serif" font-size="16.00" fill="#586e75">Data&#160;2</text><rect x="157.79" y="977.80" width="62.90" height="36.80" fill="none" stroke="#eee8d5" stroke-width="1" /><text x="165.79" y="996.20" font-family="sans-serif" font-size="16.00" fill="#586e75">Data&#160;3</text><rect x="32.00" y="1014.60" width="62.90" height="36.80" fill="none" stroke="#eee8d5" stroke-width="1" /><text x="40.00" y="1033.00" font-family="sans-serif" font-size="16.00" fill="#586e75">Data&#160;4</text><rect x="94.90" y="1014.60" width="62.90" height="36.80" fill="none" stroke="#eee8d5" stroke-width="1" /><text x="102.90" y="1033.00" font-family="sans-serif" font-size="16.00" fill="#586e75">Data&#160;5</text><rect x="157.79" y="1014.60" width="62.90" height="36.80" fill="none" stroke="#eee8d5" stroke-width="1" /><text x="165.79" y="1033.00" font-family="sans-serif" font-size="16.00" fill="#586e75">Data&#160;6</text><text x="32.00" y="1097.64" font-family="sans-serif" font-size="28.80" fill="#268bd2" font-weight="700">Blockquotes</text><text x="64.00" y="1132.20" font-family="sans-serif" font-size="16.00" fill="#586e75">This</text><text x="98.77" y="1132.20" font-family="sans-serif" font-size="16.00" fill="#586e75">is</text><text x="114.24" y="1132.20" font-family="sans-serif" font-size="16.00" fill="#586e75">a</text><text x="126.83" y="1132.20" font-family="sans-serif" font-size="16.00" fill="#586e75">blockquote.</text><text x="64.00" y="1160.20" font-family="sans-serif" font-size="16.00" fill="#586e75">It</text><text x="78.30" y="1160.20" font-family="sans-serif" font-size="16.00" fill="#586e75">can</text><text x="108.64" y="1160.20" font-family="sans-serif" font-size="16.00" fill="#586e75">span</text><text x="148.14" y="1160.20" font-family="sans-serif" font-size="16.00" fill="#586e75">multiple</text><text x="214.56" y="1160.20" font-family="sans-serif" font-size="16.00" fill="#586e75">lines.</text><rect x="36.00" y="1100.20" width="1132.00" height="85.60" fill="#eee8d5" fill-opacity="0.06" /><line x1="38.00" y1="1100.20" x2="38.00" y2="1185.80" stroke="#eee8d5" stroke-width="3" /><text x="32.00" y="1209.64" font-family="sans-serif" font-size="28.80" fill="#268bd2" font-weight="700">Math</text><text x="32.00" y="1234.60" font-family="sans-serif" font-size="16.00" fill="#586e75">Inline</text><text x="77.60" y="1234.60" font-family="sans-serif" font-size="16.00" fill="#586e75">math:</text><g transform="translate(124.96, 1234.60)"><text x="0.00" y="0.00" font-family="serif" font-size="16.00" fill="#586e75" font-style="italic">E</text><text x="12.00" y="0.00" font-family="serif" font-size="16.00" fill="#586e75">=</text><text x="23.28" y="0.00" font-family="serif" font-size="16.00" fill="#586e75" font-style="italic">m</text><text x="32.88" y="0.00" font-family="serif" font-size="16.00" fill="#586e75" font-style="italic">c</text><text x="42.48" y="-6.60" font-family="serif" font-size="11.20" fill="#586e75">2</text></g><text x="32.00" y="1266.60" font-family="sans-serif" font-size="16.00" fill="#586e75">Display</text><text x="90.29" y="1266.60" font-family="sans-serif" font-size="16.00" fill="#586e75">math:</text><g transform="translate(578.24, 1341.32)"><text x="2.40" y="1.28" font-family="serif" font-size="22.40" fill="#586e75">∑</text><text x="10.48" y="-22.92" font-family="serif" font-size="10.40" fill="#586e75" font-style="italic">n</text><text x="3.15" y="16.92" font-family="serif" font-size="10.40" fill="#586e75" font-style="italic">i</text><text x="10.95" y="16.92" font-family="serif" font-size="10.40" fill="#586e75">=</text><text x="18.28" y="16.92" font-family="serif" font-size="10.40" fill="#586e75">1</text><text x="27.20" y="0.00" font-family="serif" font-size="16.00" fill="#586e75" font-style="italic">x</text><text x="36.80" y="7.92" font-family="serif" font-size="11.20" fill="#586e75" font-style="italic">i</text></g><text x="32.00" y="1407.08" font-family="sans-serif" font-size="28.80" fill="#268bd2" font-weight="700">Advanced</text><text x="182.88" y="1407.08" font-family="sans-serif" font-size="28.80" fill="#268bd2" font-weight="700">Math</text><text x="266.23" y="1407.08" font-family="sans-serif" font-size="28.80" fill="#268bd2" font-weight="700">(nth</text><text x="335.32" y="1407.08" font-family="sans-serif" font-size="28.80" fill="#268bd2" font-weight="700">root,</text><text x="413.28" y="1407.08" font-family="sans-serif" font-size="28.80" fill="#268bd2" font-weight="700">binomial,</text><text x="563.24" y="1407.08" font-family="sans-serif" font-size="28.80" fill="#268bd2" font-weight="700">matrix)</text><text x="32.00" y="1432.04" font-family="sans-serif" font-size="16.00" fill="#586e75">Inline</text><text x="77.60" y="1432.04" font-family="sans-serif" font-size="16.00" fill="#586e75">nth-root:</text><g transform="translate(148.10, 1432.04)"><text x="0.00" y="-4.50" font-family="serif" font-size="9.60" fill="#586e75">3</text><path d="M 8.00 -2.40 L 11.36 0.00 L 13.76 -17.40 L 64.51 -17.40 L 62.91 -18.20" stroke="#586e75" stroke-width="1.2" fill="none" /><text x="17.60" y="0.00" font-family="serif" font-size="16.00" fill="#586e75" font-style="italic">x</text><text x="27.20" y="-6.60" font-family="serif" font-size="11.20" fill="#586e75">3</text><text x="35.82" y="0.00" font-family="serif" font-size="16.00" fill="#586e75">+</text><text x="47.10" y="0.00" font-family="serif" font-size="16.00" fill="#586e75" font-style="italic">y</text><text x="56.70" y="-6.60" font-family="serif" font-size="11.20" fill="#586e75">3</text></g><text x="32.00" y="1464.04" font-family="sans-serif" font-size="16.00" fill="#586e75">Inline</text><text x="77.60" y="1464.04" font-family="sans-serif" font-size="16.00" fill="#586e75">binomial:</text><g transform="translate(152.14, 1464.04)"><text x="1.28" y="0.00" font-family="serif" font-size="16.00" fill="#586e75">(</text><text x="8.61" y="-10.60" font-family="serif" font-size="13.60" fill="#586e75" font-style="italic">n</text><text x="8.61" y="7.80" font-family="serif" font-size="13.60" fill="#586e75" font-style="italic">k</text><text x="18.69" y="0.00" font-family="serif" font-size="16.00" fill="#586e75">)</text></g><text x="32.00" y="1496.04" font-family="sans-serif" font-size="16.00" fill="#586e75">Display</text><text x="90.29" y="1496.04" font-family="sans-serif" font-size="16.00" fill="#586e75">matrix:</text><g transform="translate(582.75, 1556.84)"><text x="1.28" y="0.00" font-family="serif" font-size="16.00" fill="#586e75">[</text><text x="5.41" y="-6.00" font-family="serif" font-size="14.40" fill="#586e75" font-style="italic">a</text><text x="20.45" y="-6.00" font-family="serif" font-size="14.40" fill="#586e75" font-style="italic">b</text><text x="5.41" y="13.20" font-family="serif" font-size="14.40" fill="#586e75" font-style="italic">c</text><text x="20.45" y="13.20" font-family="serif" font-size="14.40" fill="#586e75" font-style="italic">d</text><text x="27.81" y="0.00" font-family="serif" font-size="16.00" fill="#586e75">]</text></g><text x="32.00" y="1602.44" font-family="sans-serif" font-size="16.00" fill="#586e75">Mixed</text><text x="79.42" y="1602.44" font-family="sans-serif" font-size="16.00" fill="#586e75">expression:</text><g transform="translate(548.41, 1672.19)"><text x="0.00" y="-7.01" font-family="serif" font-size="9.60" fill="#586e75">4</text><path d="M 8.00 -2.40 L 11.36 0.00 L 13.76 -25.75 L 64.12 -25.75 L 62.52 -26.55" stroke="#586e75" stroke-width="1.2" fill="none" /><text x="20.80" y="-10.60" font-family="serif" font-size="13.60" fill="#586e75" font-style="italic">a</text><text x="28.96" y="-16.21" font-family="serif" font-size="9.52" fill="#586e75">2</text><text x="36.28" y="-10.60" font-family="serif" font-size="13.60" fill="#586e75">+</text><text x="45.87" y="-10.60" font-family="serif" font-size="13.60" fill="#586e75" font-style="italic">b</text><text x="54.03" y="-16.21" font-family="serif" font-size="9.52" fill="#586e75">2</text><line x1="17.60" y1="-4.80" x2="62.52" y2="-4.80" stroke="#586e75" stroke-width="1" /><text x="33.34" y="10.35" font-family="serif" font-size="13.60" fill="#586e75" font-style="italic">c</text><text x="41.50" y="4.74" font-family="serif" font-size="9.52" fill="#586e75">2</text><text x="66.52" y="0.00" font-family="serif" font-size="16.00" fill="#586e75">+</text><text x="79.08" y="0.00" font-family="serif" font-size="16.00" fill="#586e75">(</text><text x="86.40" y="-10.60" font-family="serif" font-size="13.60" fill="#586e75" font-style="italic">n</text><text x="86.71" y="7.80" font-family="serif" font-size="13.60" fill="#586e75">2</text><text x="96.48" y="0.00" font-family="serif" font-size="16.00" fill="#586e75">)</text></g><text x="32.00" y="1732.18" font-family="sans-serif" font-size="28.80" fill="#268bd2" font-weight="700">Mermaid</text><text x="172.80" y="1732.18" font-family="sans-serif" font-size="28.80" fill="#268bd2" font-weight="700">Diagrams</text><text x="32.00" y="1777.94" font-family="sans-serif" font-size="24.00" fill="#268bd2" font-weight="700">Flowchart</text><rect x="32.00" y="1798.74" width="1136.00" height="221.20" rx="4.00" fill="#073642" /><g transform="translate(189.12, 1808.74) scale(1.0000)"><polyline points="86.00,161.40 86.00,161.40 150.00,161.40 150.00,161.40" fill="none" stroke="#517072" stroke-width="0.75" stroke-linecap="round" stroke-linejoin="round" /><polygon points="150.00,161.40 142.00,156.60 142.00,166.20" fill="#517072" /><circle cx="81.00" cy="161.40" r="5" fill="#0e3c47" stroke="#517072" stroke-width="1" /><polyline points="238.43,161.40 270.43,161.40 270.43,49.80 302.43,49.80" fill="none" stroke="#517072" stroke-width="0.75" stroke-linecap="round" stroke-linejoin="round" /><circle cx="243.43" cy="161.40" r="5" fill="#0e3c47" stroke="#517072" stroke-width="1" /><polyline points="238.43,161.40 238.43,161.40 302.43,161.40 302.43,161.40" fill="none" stroke="#517072" stroke-width="0.75" stroke-linecap="round" stroke-linejoin="round" /><line x1="300.38" y1="166.35" x2="290.48" y2="156.45" stroke="#517072" stroke-width="2.5" /><line x1="300.38" y1="156.45" x2="290.48" y2="166.35" stroke="#517072" stroke-width="2.5" /><polyline points="375.77,49.80 375.77,49.80 454.98,49.80 454.98,49.80" fill="none" stroke="#517072" stroke-width="0.75" stroke-linecap="round" stroke-linejoin="round" /><line x1="452.92" y1="54.75" x2="443.03" y2="44.85" stroke="#517072" stroke-width="2.5" /><line x1="452.92" y1="44.85" x2="443.03" y2="54.75" stroke="#517072" stroke-width="2.5" /><line x1="373.71" y1="54.75" x2="363.82" y2="44.85" stroke="#517072" stroke-width="2.5" /><line x1="373.71" y1="44.85" x2="363.82" y2="54.75" stroke="#517072" stroke-width="2.5" /><polyline points="535.42,49.80 535.42,49.80 599.42,49.80 599.42,49.80" fill="none" stroke="#517072" stroke-width="0.75" stroke-linecap="round" stroke-linejoin="round" stroke-dasharray="4,4" /><polygon points="599.42,49.80 591.42,45.00 591.42,54.60" fill="#517072" /><polygon points="535.42,49.80 527.42,45.00 527.42,54.60" fill="#517072" /><polyline points="664.50,49.80 664.50,49.80 728.50,49.80 728.50,49.80" fill="none" stroke="#517072" stroke-width="1.50" stroke-linecap="round" stroke-linejoin="round" /><polygon points="728.50,49.80 720.50,45.00 720.50,54.60" fill="#517072" /><rect x="666.82" y="36.28" width="59.36" height="27.05" rx="4" fill="#fdf6e3" stroke="#385c62" stroke-width="0.5" /><text x="696.50" y="49.80" dy="0.35em" font-family="sans-serif" font-size="11.1" fill="#9ba9a3" text-anchor="middle">fast lane</text><rect x="30.00" y="141.60" width="56.00" height="39.60" fill="#0e3c47" stroke="#385c62" stroke-width="1" /><text x="58.00" y="161.40" dy="0.35em" font-family="sans-serif" font-size="13.0" font-weight="500" fill="#fdf6e3" text-anchor="middle">API</text><rect x="150.00" y="141.60" width="88.43" height="39.60" fill="#0e3c47" stroke="#385c62" stroke-width="1" /><text x="194.21" y="161.40" dy="0.35em" font-family="sans-serif" font-size="13.0" font-weight="500" fill="#fdf6e3" text-anchor="middle">Gateway</text><rect x="302.43" y="30.00" width="73.34" height="39.60" fill="#0e3c47" stroke="#385c62" stroke-width="1" /><text x="339.10" y="49.80" dy="0.35em" font-family="sans-serif" font-size="13.0" font-weight="500" fill="#fdf6e3" text-anchor="middle">Cache</text><rect x="302.43" y="141.60" width="88.55" height="39.60" fill="#0e3c47" stroke="#385c62" stroke-width="1" /><text x="346.70" y="161.40" dy="0.35em" font-family="sans-serif" font-size="13.0" font-weight="500" fill="#fdf6e3" text-anchor="middle">Rejected</text><rect x="454.98" y="30.00" width="80.45" height="39.60" fill="#0e3c47" stroke="#385c62" stroke-width="1" /><text x="495.20" y="49.80" dy="0.35em" font-family="sans-serif" font-size="13.0" font-weight="500" fill="#fdf6e3" text-anchor="middle">Replica</text><rect x="599.42" y="30.00" width="65.08" height="39.60" fill="#0e3c47" stroke="#385c62" stroke-width="1" /><text x="631.96" y="49.80" dy="0.35em" font-family="sans-serif" font-size="13.0" font-weight="500" fill="#fdf6e3" text-anchor="middle">Sync</text><rect x="728.50" y="30.00" width="73.26" height="39.60" fill="#0e3c47" stroke="#385c62" stroke-width="1" /><text x="765.13" y="49.80" dy="0.35em" font-family="sans-serif" font-size="13.0" font-weight="500" fill="#fdf6e3" text-anchor="middle">Ready</text></g><text x="32.00" y="2059.94" font-family="sans-serif" font-size="24.00" fill="#268bd2" font-weight="700">Sequence</text><rect x="32.00" y="2080.74" width="1136.00" height="586.00" rx="4.00" fill="#073642" /><g transform="translate(305.08, 2090.74) scale(1.0000)"><rect x="40.00" y="20.00" width="96.00" height="36.00" fill="#0e3c47" stroke="#385c62" stroke-width="1" rx="4" /><text x="88.00" y="38.00" dy="0.35em" font-family="sans-serif" font-size="13.0" font-weight="500" fill="#fdf6e3" text-anchor="middle">Client</text><rect x="208.00" y="20.00" width="96.00" height="36.00" fill="#0e3c47" stroke="#385c62" stroke-width="1" rx="4" /><text x="256.00" y="38.00" dy="0.35em" font-family="sans-serif" font-size="13.0" font-weight="500" fill="#fdf6e3" text-anchor="middle">Gateway</text><rect x="376.00" y="20.00" width="96.00" height="36.00" fill="#0e3c47" stroke="#385c62" stroke-width="1" rx="4" /><text x="424.00" y="38.00" dy="0.35em" font-family="sans-serif" font-size="13.0" font-weight="500" fill="#fdf6e3" text-anchor="middle">Service</text><line x1="88.00" y1="64.00" x2="88.00" y2="514.00" stroke="#517072" stroke-width="0.75" stroke-dasharray="6,4" /><line x1="256.00" y1="64.00" x2="256.00" y2="514.00" stroke="#517072" stroke-width="0.75" stroke-dasharray="6,4" /><line x1="424.00" y1="64.00" x2="424.00" y2="514.00" stroke="#517072" stroke-width="0.75" stroke-dasharray="6,4" /><rect x="100.00" y="72.00" width="91.28" height="28" rx="3" fill="#0e3c47" fill-opacity="0.25" stroke="#385c62" stroke-width="1" /><text x="108.00" y="90.00" font-family="sans-serif" font-size="10.4" fill="#fdf6e3">trigger request</text><line x1="88.00" y1="132.00" x2="256.00" y2="132.00" stroke="#517072" stroke-width="0.75" /><polygon points="256.00,132.00 249.00,128.50 249.00,135.50" fill="#517072" /><rect x="138.93" y="110.67" width="66.13" height="22.66" rx="4" fill="#0e3c47" stroke="#385c62" stroke-width="0.5" /><text x="172.00" y="122.35" font-family="sans-serif" font-size="10.7" fill="#9ba9a3" text-anchor="middle">GET /items</text><line x1="256.00" y1="182.00" x2="424.00" y2="182.00" stroke="#517072" stroke-width="0.75" /><polygon points="424.00,182.00 417.00,178.50 417.00,185.50" fill="#517072" /><rect x="296.46" y="160.67" width="87.09" height="22.66" rx="4" fill="#0e3c47" stroke="#385c62" stroke-width="0.5" /><text x="340.00" y="172.35" font-family="sans-serif" font-size="10.7" fill="#9ba9a3" text-anchor="middle">validate + fetch</text><rect x="8.00" y="232.60" width="68.63" height="16.40" fill="#0e3c47" stroke="#385c62" stroke-width="0.75" /><text x="14.00" y="244.00" font-family="sans-serif" font-size="10.4" fill="#fdf6e3" font-weight="bold">alt success</text><line x1="424.00" y1="266.00" x2="256.00" y2="266.00" stroke="#517072" stroke-width="0.75" stroke-dasharray="4,4" /><polyline points="263.00,262.50 256.00,266.00 263.00,269.50" fill="none" stroke="#517072" stroke-width="0.75" /><rect x="316.53" y="244.67" width="46.93" height="22.66" rx="4" fill="#0e3c47" stroke="#385c62" stroke-width="0.5" /><text x="340.00" y="256.35" font-family="sans-serif" font-size="10.7" fill="#9ba9a3" text-anchor="middle">200 OK</text><line x1="256.00" y1="316.00" x2="88.00" y2="316.00" stroke="#517072" stroke-width="0.75" stroke-dasharray="4,4" /><polyline points="95.00,312.50 88.00,316.00 95.00,319.50" fill="none" stroke="#517072" stroke-width="0.75" /><rect x="148.53" y="294.67" width="46.93" height="22.66" rx="4" fill="#0e3c47" stroke="#385c62" stroke-width="0.5" /><text x="172.00" y="306.35" font-family="sans-serif" font-size="10.7" fill="#9ba9a3" text-anchor="middle">200 OK</text><line x1="4.00" y1="368.00" x2="460.00" y2="368.00" stroke="#517072" stroke-width="1" stroke-dasharray="5,3" /><text x="14.00" y="356.00" font-family="sans-serif" font-size="10.1" fill="#fdf6e3">transient error</text><line x1="424.00" y1="398.00" x2="256.00" y2="398.00" stroke="#517072" stroke-width="0.75" stroke-dasharray="4,4" /><polyline points="263.00,394.50 256.00,398.00 263.00,401.50" fill="none" stroke="#517072" stroke-width="0.75" /><rect x="325.13" y="376.67" width="29.75" height="22.66" rx="4" fill="#0e3c47" stroke="#385c62" stroke-width="0.5" /><text x="340.00" y="388.35" font-family="sans-serif" font-size="10.7" fill="#9ba9a3" text-anchor="middle">503</text><line x1="256.00" y1="448.00" x2="88.00" y2="448.00" stroke="#517072" stroke-width="0.75" stroke-dasharray="4,4" /><polyline points="95.00,444.50 88.00,448.00 95.00,451.50" fill="none" stroke="#517072" stroke-width="0.75" /><rect x="141.51" y="426.67" width="60.98" height="22.66" rx="4" fill="#0e3c47" stroke="#385c62" stroke-width="0.5" /><text x="172.00" y="438.35" font-family="sans-serif" font-size="10.7" fill="#9ba9a3" text-anchor="middle">retry later</text><rect x="4.00" y="224.00" width="456.00" height="290.00" fill="none" stroke="#517072" stroke-width="1" stroke-dasharray="5,3" /></g><text x="32.00" y="2706.74" font-family="sans-serif" font-size="24.00" fill="#268bd2" font-weight="700">Class</text><rect x="32.00" y="2727.54" width="1136.00" height="353.04" rx="4.00" fill="#073642" /><g transform="translate(485.00, 2737.54) scale(1.0000)"><rect x="30.00" y="30.00" width="180.00" height="118.78" fill="#0e3c47" stroke="#385c62" stroke-width="1" /><rect x="30.50" y="30.50" width="179.00" height="27.00" fill="#1a454f" /><text x="120.00" y="43.50" dy="0.35em" font-family="sans-serif" font-size="13.0" fill="#fdf6e3" text-anchor="middle" font-weight="bold">Animal</text><line x1="30.00" y1="57.00" x2="210.00" y2="57.00" stroke="#385c62" stroke-width="0.75" /><text x="38.00" y="74.00" font-family="monospace" font-size="11.1" fill="#fdf6e3">+ String name</text><text x="38.00" y="85.70" font-family="monospace" font-size="11.1" fill="#fdf6e3">+ int age</text><line x1="30.00" y1="99.40" x2="210.00" y2="99.40" stroke="#385c62" stroke-width="1" /><text x="38.00" y="114.40" font-family="monospace" font-size="11.1" fill="#fdf6e3">+ makeSound()</text><rect x="30.00" y="220.78" width="180.00" height="92.26" fill="#0e3c47" stroke="#385c62" stroke-width="1" /><rect x="30.50" y="221.28" width="179.00" height="27.00" fill="#1a454f" /><text x="120.00" y="234.28" dy="0.35em" font-family="sans-serif" font-size="13.0" fill="#fdf6e3" text-anchor="middle" font-weight="bold">Dog</text><line x1="30.00" y1="247.78" x2="210.00" y2="247.78" stroke="#385c62" stroke-width="0.75" /><line x1="30.00" y1="266.78" x2="210.00" y2="266.78" stroke="#385c62" stroke-width="1" /><text x="38.00" y="281.78" font-family="monospace" font-size="11.1" fill="#fdf6e3">+ bark()</text><line x1="120.00" y1="148.78" x2="120.00" y2="220.78" stroke="#517072" stroke-width="0.75" /><polygon points="120.00,148.78 113.00,162.78 127.00,162.78" fill="#0e3c47" stroke="#517072" stroke-width="1" /></g><text x="32.00" y="3120.58" font-family="sans-serif" font-size="24.00" fill="#268bd2" font-weight="700">State</text><rect x="32.00" y="3141.38" width="1136.00" height="780.00" rx="4.00" fill="#073642" /><g transform="translate(256.50, 3151.38) scale(1.0000)"><polyline points="558.00,42.00 480.00,42.00 480.00,146.00 510.00,146.00" fill="none" stroke="#517072" stroke-width="0.75" /><polygon points="510.00,146.00 520.00,151.00 520.00,141.00" fill="#517072" /><line x1="549.92" y1="166.00" x2="446.00" y2="269.48" stroke="#517072" stroke-width="0.75" /><polygon points="446.00,269.48 456.61,265.97 449.56,258.88" fill="#517072" /><polyline points="510.00,146.00 473.00,146.00 473.00,258.00 510.00,258.00" fill="none" stroke="#517072" stroke-width="0.75" /><polygon points="510.00,258.00 520.00,263.00 520.00,253.00" fill="#517072" /><line x1="214.00" y1="500.52" x2="110.08" y2="604.00" stroke="#517072" stroke-width="0.75" /><polygon points="110.08,604.00 120.70,600.49 113.64,593.40" fill="#517072" /><rect x="174.24" y="542.45" width="34.41" height="16.40" rx="3" fill="#0e3c47" stroke="#385c62" stroke-width="0.5" /><text x="191.45" y="556.85" font-family="sans-serif" font-size="11.1" fill="#9ba9a3" text-anchor="middle">done</text><line x1="446.00" y1="323.62" x2="532.20" y2="278.00" stroke="#517072" stroke-width="0.75" /><polygon points="532.20,278.00 521.03,278.26 525.70,287.10" fill="#517072" /><rect x="495.34" y="302.15" width="30.66" height="16.40" rx="3" fill="#0e3c47" stroke="#385c62" stroke-width="0.5" /><text x="510.67" y="316.55" font-family="sans-serif" font-size="11.1" fill="#9ba9a3" text-anchor="middle">fatal</text><polyline points="630.00,258.00 667.00,258.00 667.00,146.00 630.00,146.00" fill="none" stroke="#517072" stroke-width="0.75" /><polygon points="630.00,146.00 620.00,141.00 620.00,151.00" fill="#517072" /><polyline points="150.00,624.00 180.00,624.00 180.00,728.00 102.00,728.00" fill="none" stroke="#517072" stroke-width="0.75" /><polygon points="102.00,728.00 92.00,723.00 92.00,733.00" fill="#517072" /><circle cx="570.00" cy="42.00" r="12.00" fill="#385c62" /><rect x="510.00" y="126.00" width="120.00" height="40.00" rx="10.00" fill="#0e3c47" stroke="#385c62" stroke-width="1" /><text x="570.00" y="150.33" font-family="sans-serif" font-size="13.0" fill="#fdf6e3" text-anchor="middle">Idle</text><rect x="214.00" y="238.00" width="232.00" height="294.00" rx="10.00" fill="#0e3c47" stroke="#385c62" stroke-width="1" /><text x="330.00" y="259.00" font-family="sans-serif" font-size="13.0" fill="#fdf6e3" text-anchor="middle">Running</text><rect x="270.00" y="296.00" width="120.00" height="40.00" rx="10.00" fill="#0e3c47" stroke="#385c62" stroke-width="1" /><text x="330.00" y="320.33" font-family="sans-serif" font-size="13.0" fill="#fdf6e3" text-anchor="middle">Validate</text><rect x="270.00" y="356.00" width="120.00" height="40.00" rx="10.00" fill="#0e3c47" stroke="#385c62" stroke-width="1" /><text x="330.00" y="380.33" font-family="sans-serif" font-size="13.0" fill="#fdf6e3" text-anchor="middle">Execute</text><rect x="270.00" y="416.00" width="120.00" height="40.00" rx="10.00" fill="#0e3c47" stroke="#385c62" stroke-width="1" /><text x="330.00" y="440.33" font-family="sans-serif" font-size="13.0" fill="#fdf6e3" text-anchor="middle">Persist</text><rect x="270.00" y="476.00" width="120.00" height="40.00" rx="10.00" fill="#0e3c47" stroke="#385c62" stroke-width="1" /><text x="330.00" y="500.33" font-family="sans-serif" font-size="13.0" fill="#fdf6e3" text-anchor="middle">Recover</text><line x1="330.00" y1="336.00" x2="330.00" y2="356.00" stroke="#517072" stroke-width="0.75" /><polygon points="330.00,356.00 335.00,346.00 325.00,346.00" fill="#517072" /><rect x="397.60" y="335.20" width="20.80" height="16.40" rx="3" fill="#0e3c47" stroke="#385c62" stroke-width="0.5" /><text x="408.00" y="349.60" font-family="sans-serif" font-size="11.1" fill="#9ba9a3" text-anchor="middle">ok</text><line x1="330.00" y1="396.00" x2="330.00" y2="416.00" stroke="#517072" stroke-width="0.75" /><polygon points="330.00,416.00 335.00,406.00 325.00,406.00" fill="#517072" /><rect x="290.39" y="389.20" width="31.23" height="16.40" rx="3" fill="#0e3c47" stroke="#385c62" stroke-width="0.5" /><text x="306.00" y="403.60" font-family="sans-serif" font-size="11.1" fill="#9ba9a3" text-anchor="middle">save</text><line x1="330.00" y1="456.00" x2="330.00" y2="476.00" stroke="#517072" stroke-width="0.75" /><polygon points="330.00,476.00 335.00,466.00 325.00,466.00" fill="#517072" /><rect x="240.13" y="442.00" width="23.75" height="16.40" rx="3" fill="#0e3c47" stroke="#385c62" stroke-width="0.5" /><text x="252.00" y="456.40" font-family="sans-serif" font-size="11.1" fill="#9ba9a3" text-anchor="middle">fail</text><polyline points="390.00,496.00 420.00,496.00 420.00,316.00 390.00,316.00" fill="none" stroke="#517072" stroke-width="0.75" /><polygon points="390.00,316.00 380.00,311.00 380.00,321.00" fill="#517072" /><line x1="390.00" y1="493.00" x2="418.00" y2="493.00" stroke="#517072" stroke-width="1" stroke-dasharray="4,3" /><rect x="418.00" y="480.00" width="111.92" height="26.00" rx="3" fill="#0e3c47" fill-opacity="0.25" stroke="#385c62" stroke-width="1" /><text x="426.00" y="496.90" font-family="sans-serif" font-size="10.4" fill="#9ba9a3">exponential backoff</text><rect x="510.00" y="238.00" width="120.00" height="40.00" rx="10.00" fill="#0e3c47" stroke="#385c62" stroke-width="1" /><text x="570.00" y="262.33" font-family="sans-serif" font-size="13.0" fill="#fdf6e3" text-anchor="middle">Error</text><rect x="30.00" y="604.00" width="120.00" height="40.00" rx="10.00" fill="#0e3c47" stroke="#385c62" stroke-width="1" /><text x="90.00" y="628.33" font-family="sans-serif" font-size="13.0" fill="#fdf6e3" text-anchor="middle">Success</text><circle cx="90.00" cy="728.00" r="9.00" fill="#385c62" stroke="#385c62" stroke-width="2" /><circle cx="90.00" cy="728.00" r="12.00" fill="none" stroke="#385c62" stroke-width="2" /></g><text x="32.00" y="3961.38" font-family="sans-serif" font-size="24.00" fill="#268bd2" font-weight="700">ER</text><rect x="32.00" y="3982.18" width="1136.00" height="126.00" rx="4.00" fill="#073642" /><g transform="translate(393.00, 3992.18) scale(1.0000)"><line x1="180.00" y1="58.00" x2="244.00" y2="58.00" stroke="#517072" stroke-width="0.75" /><line x1="188.00" y1="64.00" x2="188.00" y2="52.00" stroke="#517072" stroke-width="0.75" /><line x1="194.00" y1="64.00" x2="194.00" y2="52.00" stroke="#517072" stroke-width="0.75" /><circle cx="236.00" cy="58.00" r="4.50" fill="#fdf6e3" stroke="#517072" stroke-width="1.2" /><line x1="228.00" y1="58.00" x2="220.00" y2="50.00" stroke="#517072" stroke-width="0.75" /><line x1="228.00" y1="58.00" x2="218.00" y2="58.00" stroke="#517072" stroke-width="0.75" /><line x1="228.00" y1="58.00" x2="220.00" y2="66.00" stroke="#517072" stroke-width="0.75" /><rect x="30.00" y="30.00" width="150.00" height="56.00" fill="#0e3c47" stroke="#385c62" stroke-width="1" /><text x="105.00" y="49.00" font-family="sans-serif" font-size="13.0" fill="#fdf6e3" text-anchor="middle" font-weight="bold">CUSTOMER</text><rect x="244.00" y="30.00" width="150.00" height="56.00" fill="#0e3c47" stroke="#385c62" stroke-width="1" /><text x="319.00" y="49.00" font-family="sans-serif" font-size="13.0" fill="#fdf6e3" text-anchor="middle" font-weight="bold">ORDER</text></g><text x="32.00" y="4154.42" font-family="sans-serif" font-size="28.80" fill="#268bd2" font-weight="700">Footnotes</text><text x="32.00" y="4179.38" font-family="sans-serif" font-size="16.00" fill="#586e75">This</text><text x="66.77" y="4179.38" font-family="sans-serif" font-size="16.00" fill="#586e75">is</text><text x="82.24" y="4179.38" font-family="sans-serif" font-size="16.00" fill="#586e75">a</text><text x="94.83" y="4179.38" font-family="sans-serif" font-size="16.00" fill="#586e75">reference</text><text x="168.50" y="4172.18" font-family="sans-serif" font-size="10.40" fill="#586e75">1</text><text x="177.85" y="4179.38" font-family="sans-serif" font-size="16.00" fill="#586e75">to</text><text x="196.92" y="4179.38" font-family="sans-serif" font-size="16.00" fill="#586e75">a</text><text x="209.52" y="4179.38" font-family="sans-serif" font-size="16.00" fill="#586e75">footnote.</text><text x="59.70" y="4219.38" font-family="sans-serif" font-size="16.00" fill="#586e75">This</text><text x="32.00" y="4219.38" font-family="sans-serif" font-size="16.00" fill="#586e75">[1]</text><text x="94.46" y="4219.38" font-family="sans-serif" font-size="16.00" fill="#586e75">is</text><text x="109.94" y="4219.38" font-family="sans-serif" font-size="16.00" fill="#586e75">the</text><text x="138.13" y="4219.38" font-family="sans-serif" font-size="16.00" fill="#586e75">footnote</text><text x="205.66" y="4219.38" font-family="sans-serif" font-size="16.00" fill="#586e75">content.</text><text x="32.00" y="4268.82" font-family="sans-serif" font-size="28.80" fill="#268bd2" font-weight="700">Definition</text><text x="187.20" y="4268.82" font-family="sans-serif" font-size="28.80" fill="#268bd2" font-weight="700">Lists</text><text x="32.00" y="4309.78" font-family="sans-serif" font-size="16.00" fill="#586e75" font-weight="700">Term</text><text x="79.12" y="4309.78" font-family="sans-serif" font-size="16.00" fill="#586e75" font-weight="700">1</text><text x="56.00" y="4337.78" font-family="sans-serif" font-size="16.00" fill="#586e75">Definition</text><text x="133.10" y="4337.78" font-family="sans-serif" font-size="16.00" fill="#586e75">1</text><text x="32.00" y="4388.18" font-family="sans-serif" font-size="16.00" fill="#586e75" font-weight="700">Term</text><text x="79.12" y="4388.18" font-family="sans-serif" font-size="16.00" fill="#586e75" font-weight="700">2</text><text x="56.00" y="4416.18" font-family="sans-serif" font-size="16.00" fill="#586e75">Definition</text><text x="133.10" y="4416.18" font-family="sans-serif" font-size="16.00" fill="#586e75">2</text><text x="32.00" y="4465.62" font-family="sans-serif" font-size="28.80" fill="#268bd2" font-weight="700">HTML</text><text x="32.00" y="4490.58" font-family="sans-serif" font-size="16.00" fill="#586e75">Inline</text><rect x="77.60" y="4476.83" width="70.80" height="24.25" rx="4.00" fill="#073642" /><text x="89.60" y="4490.58" font-family="monospace" font-size="13.00" fill="#586e75">&lt;span&gt;</text><text x="151.98" y="4490.58" font-family="sans-serif" font-size="16.00" fill="#586e75">tags</text><text x="186.74" y="4490.58" font-family="sans-serif" font-size="16.00" fill="#586e75">are</text><text x="214.22" y="4490.58" font-family="sans-serif" font-size="16.00" fill="#586e75">rendered</text><text x="286.06" y="4490.58" font-family="sans-serif" font-size="16.00" fill="#586e75">as</text><text x="306.14" y="4490.58" font-family="sans-serif" font-size="16.00" fill="#586e75">code.</text><rect x="32.00" y="4509.78" width="367.20" height="29.00" rx="4.00" fill="#073642" /><text x="44.00" y="4528.18" font-family="monospace" font-size="13.00" fill="#586e75">&lt;</text><text x="51.80" y="4528.18" font-family="monospace" font-size="13.00" fill="#268bd2">div</text><text x="75.20" y="4528.18" font-family="monospace" font-size="13.00" fill="#586e75">&gt;</text><text x="83.00" y="4528.18" font-family="monospace" font-size="13.00" fill="#839496">HTML&#160;blocks&#160;render&#160;as&#160;code&#160;blocks</text><text x="340.40" y="4528.18" font-family="monospace" font-size="13.00" fill="#586e75">&lt;/</text><text x="356.00" y="4528.18" font-family="monospace" font-size="13.00" fill="#268bd2">div</text><text x="379.40" y="4528.18" font-family="monospace" font-size="13.00" fill="#586e75">&gt;</text></svg>