<svg xmlns="http://www.w3.org/2000/svg" viewBox="0 0 800 4318.5913" width="800" height="4318.5913"><rect width="100%" height="100%" fill="#fdf6e3" /><text x="32.00" y="60.16" font-family="sans-serif" font-size="35.20" fill="#268bd2" font-weight="700">Markie</text><text x="168.05" y="60.16" font-family="sans-serif" font-size="35.20" fill="#268bd2" font-weight="700">Feature</text><text x="312.97" y="60.16" font-family="sans-serif" font-size="35.20" fill="#268bd2" font-weight="700">Examples</text><text x="32.00" y="86.40" font-family="sans-serif" font-size="16.00" fill="#586e75">This</text><text x="66.77" y="86.40" font-family="sans-serif" font-size="16.00" fill="#586e75">document</text><text x="147.31" y="86.40" font-family="sans-serif" font-size="16.00" fill="#586e75">showcases</text><text x="231.33" y="86.40" font-family="sans-serif" font-size="16.00" fill="#586e75">Markdown</text><text x="313.78" y="86.40" font-family="sans-serif" font-size="16.00" fill="#586e75">features</text><text x="377.89" y="86.40" font-family="sans-serif" font-size="16.00" fill="#586e75">supported</text><text x="458.99" y="86.40" font-family="sans-serif" font-size="16.00" fill="#586e75">by</text><text x="480.74" y="86.40" font-family="sans-serif" font-size="16.00" fill="#586e75">Markie,</text><text x="539.07" y="86.40" font-family="sans-serif" font-size="16.00" fill="#586e75">including</text><text x="612.34" y="86.40" font-family="sans-serif" font-size="16.00" fill="#586e75">enhanced</text><text x="689.58" y="86.40" font-family="sans-serif" font-size="16.00" fill="#586e75">math</text><text x="732.50" y="86.40" font-family="sans-serif" font-size="16.00" fill="#586e75">and</text><text x="32.00" y="112.00" font-family="sans-serif" font-size="16.00" fill="#586e75">native</text><text x="81.68" y="112.00" font-family="sans-serif" font-size="16.00" fill="#586e75">Mermaid</text><text x="151.47" y="112.00" font-family="sans-serif" font-size="16.00" fill="#586e75">diagrams.</text><text x="32.00" y="161.44" font-family="sans-serif" font-size="28.80" fill="#268bd2" font-weight="700">Text</text><text x="101.72" y="161.44" font-family="sans-serif" font-size="28.80" fill="#268bd2" font-weight="700">Formatting</text><text x="32.00" y="186.40" font-family="sans-serif" font-size="16.00" fill="#586e75">You</text><text x="62.75" y="186.40" font-family="sans-serif" font-size="16.00" fill="#586e75">can</text><text x="93.09" y="186.40" font-family="sans-serif" font-size="16.00" fill="#586e75">use</text><text x="122.74" y="186.40" font-family="sans-serif" font-size="16.00" fill="#586e75" font-weight="700">bold</text><text x="163.68" y="186.40" font-family="sans-serif" font-size="16.00" fill="#586e75" font-weight="700">text</text><text x="194.86" y="186.40" font-family="sans-serif" font-size="16.00" fill="#586e75">,</text><text x="202.90" y="186.40" font-family="sans-serif" font-size="16.00" fill="#586e75" font-style="italic">italic</text><text x="270.10" y="186.40" font-family="sans-serif" font-size="16.00" fill="#586e75" font-style="italic">text</text><text x="308.50" y="186.40" font-family="sans-serif" font-size="16.00" fill="#586e75">,</text><text x="316.53" y="186.40" font-family="sans-serif" font-size="16.00" fill="#586e75">and</text><rect x="348.80" y="172.00" width="109.80" height="21.00" rx="4.00" fill="#073642" /><text x="360.80" y="186.40" font-family="monospace" font-size="13.00" fill="#586e75">inline&#160;code</text><text x="462.18" y="186.40" font-family="sans-serif" font-size="16.00" fill="#586e75">for</text><text x="486.70" y="186.40" font-family="sans-serif" font-size="16.00" fill="#586e75">emphasis.</text><text x="32.00" y="218.40" font-family="sans-serif" font-size="16.00" fill="#586e75">Strikethrough</text><line x1="32.00" y1="213.28" x2="134.86" y2="213.28" stroke="#586e75" stroke-width="1" /><text x="138.45" y="218.40" font-family="sans-serif" font-size="16.00" fill="#586e75">text</text><line x1="138.45" y1="213.28" x2="166.54" y2="213.28" stroke="#586e75" stroke-width="1" /><text x="170.13" y="218.40" font-family="sans-serif" font-size="16.00" fill="#586e75">is</text><text x="185.60" y="218.40" font-family="sans-serif" font-size="16.00" fill="#586e75">also</text><text x="219.92" y="218.40" font-family="sans-serif" font-size="16.00" fill="#586e75">supported.</text><text x="32.00" y="267.84" font-family="sans-serif" font-size="28.80" fill="#268bd2" font-weight="700">Links</text><text x="120.50" y="267.84" font-family="sans-serif" font-size="28.80" fill="#268bd2" font-weight="700">and</text><text x="183.23" y="267.84" font-family="sans-serif" font-size="28.80" fill="#268bd2" font-weight="700">Images</text><text x="32.00" y="292.80" font-family="sans-serif" font-size="16.00" fill="#2aa198">Link</text><line x1="32.00" y1="294.72" x2="63.68" y2="294.72" stroke="#2aa198" stroke-width="1" /><text x="67.26" y="292.80" font-family="sans-serif" font-size="16.00" fill="#2aa198">text</text><line x1="67.26" y1="294.72" x2="95.36" y2="294.72" stroke="#2aa198" stroke-width="1" /><text x="98.94" y="292.80" font-family="sans-serif" font-size="16.00" fill="#586e75">renders</text><text x="159.60" y="292.80" font-family="sans-serif" font-size="16.00" fill="#586e75">as</text><text x="179.68" y="292.80" font-family="sans-serif" font-size="16.00" fill="#586e75">colored</text><text x="239.79" y="292.80" font-family="sans-serif" font-size="16.00" fill="#586e75">text.</text><text x="32.00" y="324.80" font-family="sans-serif" font-size="16.00" fill="#586e75">Images</text><text x="89.23" y="324.80" font-family="sans-serif" font-size="16.00" fill="#586e75">from</text><text x="128.56" y="324.80" font-family="sans-serif" font-size="16.00" fill="#586e75">local</text><text x="167.92" y="324.80" font-family="sans-serif" font-size="16.00" fill="#586e75">files</text><text x="202.00" y="324.80" font-family="sans-serif" font-size="16.00" fill="#586e75">or</text><text x="221.49" y="324.80" font-family="sans-serif" font-size="16.00" fill="#586e75">URLs:</text><rect x="32.00" y="336.00" width="195.60" height="21.00" rx="4.00" fill="#073642" /><text x="44.00" y="350.40" font-family="monospace" font-size="13.00" fill="#586e75">![Alt&#160;text](image.png)</text><text x="32.00" y="399.84" font-family="sans-serif" font-size="28.80" fill="#268bd2" font-weight="700">Lists</text><text x="32.00" y="445.60" font-family="sans-serif" font-size="24.00" fill="#268bd2" font-weight="700">Unordered</text><text x="170.50" y="445.60" font-family="sans-serif" font-size="24.00" fill="#268bd2" font-weight="700">Lists</text><text x="45.44" y="476.00" font-family="sans-serif" font-size="16.00" fill="#586e75">Item</text><text x="32.00" y="476.00" font-family="sans-serif" font-size="16.00" fill="#586e75">•</text><text x="83.18" y="476.00" font-family="sans-serif" font-size="16.00" fill="#586e75">1</text><text x="45.44" y="501.60" font-family="sans-serif" font-size="16.00" fill="#586e75">Item</text><text x="32.00" y="501.60" font-family="sans-serif" font-size="16.00" fill="#586e75">•</text><text x="83.18" y="501.60" font-family="sans-serif" font-size="16.00" fill="#586e75">2</text><text x="69.44" y="527.20" font-family="sans-serif" font-size="16.00" fill="#586e75">Nested</text><text x="56.00" y="527.20" font-family="sans-serif" font-size="16.00" fill="#586e75">•</text><text x="125.17" y="527.20" font-family="sans-serif" font-size="16.00" fill="#586e75">item</text><text x="45.44" y="552.80" font-family="sans-serif" font-size="16.00" fill="#586e75">Item</text><text x="32.00" y="552.80" font-family="sans-serif" font-size="16.00" fill="#586e75">•</text><text x="83.18" y="552.80" font-family="sans-serif" font-size="16.00" fill="#586e75">3</text><text x="32.00" y="596.00" font-family="sans-serif" font-size="24.00" fill="#268bd2" font-weight="700">Ordered</text><text x="139.02" y="596.00" font-family="sans-serif" font-size="24.00" fill="#268bd2" font-weight="700">Lists</text><text x="53.33" y="626.40" font-family="sans-serif" font-size="16.00" fill="#586e75">First</text><text x="32.00" y="626.40" font-family="sans-serif" font-size="16.00" fill="#586e75">1.</text><text x="89.46" y="626.40" font-family="sans-serif" font-size="16.00" fill="#586e75">item</text><text x="53.33" y="652.00" font-family="sans-serif" font-size="16.00" fill="#586e75">Second</text><text x="32.00" y="652.00" font-family="sans-serif" font-size="16.00" fill="#586e75">2.</text><text x="112.46" y="652.00" font-family="sans-serif" font-size="16.00" fill="#586e75">item</text><text x="53.33" y="677.60" font-family="sans-serif" font-size="16.00" fill="#586e75">Third</text><text x="32.00" y="677.60" font-family="sans-serif" font-size="16.00" fill="#586e75">3.</text><text x="96.56" y="677.60" font-family="sans-serif" font-size="16.00" fill="#586e75">item</text><text x="32.00" y="720.80" font-family="sans-serif" font-size="24.00" fill="#268bd2" font-weight="700">Task</text><text x="94.54" y="720.80" font-family="sans-serif" font-size="24.00" fill="#268bd2" font-weight="700">Lists</text><rect x="32.00" y="741.68" width="13.60" height="13.60" rx="2" ry="2" stroke="#586e75" fill="none" stroke-width="1" /><polyline points="34.72,749.16 38.12,752.56 42.88,744.40" fill="none" stroke="#586e75" stroke-width="2" stroke-linecap="round" stroke-linejoin="round" /><text x="53.60" y="751.20" font-family="sans-serif" font-size="16.00" fill="#586e75">Completed</text><text x="139.63" y="751.20" font-family="sans-serif" font-size="16.00" fill="#586e75">task</text><rect x="32.00" y="767.28" width="13.60" height="13.60" rx="2" ry="2" stroke="#586e75" fill="none" stroke-width="1" /><text x="53.60" y="776.80" font-family="sans-serif" font-size="16.00" fill="#586e75">Pending</text><text x="118.61" y="776.80" font-family="sans-serif" font-size="16.00" fill="#586e75">task</text><text x="32.00" y="826.24" font-family="sans-serif" font-size="28.80" fill="#268bd2" font-weight="700">Code</text><text x="112.90" y="826.24" font-family="sans-serif" font-size="28.80" fill="#268bd2" font-weight="700">Blocks</text><rect x="32.00" y="838.40" width="265.80" height="70.60" rx="4.00" fill="#073642" /><text x="44.00" y="856.80" font-family="monospace" font-size="13.00" fill="#268bd2">fn</text><text x="59.60" y="856.80" font-family="monospace" font-size="13.00" fill="#839496">&#160;</text><text x="67.40" y="856.80" font-family="monospace" font-size="13.00" fill="#b58900">main</text><text x="98.60" y="856.80" font-family="monospace" font-size="13.00" fill="#657b83">(</text><text x="106.40" y="856.80" font-family="monospace" font-size="13.00" fill="#657b83">)</text><text x="114.20" y="856.80" font-family="monospace" font-size="13.00" fill="#839496">&#160;</text><text x="122.00" y="856.80" font-family="monospace" font-size="13.00" fill="#657b83">{</text><text x="44.00" y="877.60" font-family="monospace" font-size="13.00" fill="#839496">&#160;&#160;&#160;&#160;</text><text x="75.20" y="877.60" font-family="monospace" font-size="13.00" fill="#859900">println!</text><text x="137.60" y="877.60" font-family="monospace" font-size="13.00" fill="#657b83">(</text><text x="145.40" y="877.60" font-family="monospace" font-size="13.00" fill="#839496">&quot;</text><text x="153.20" y="877.60" font-family="monospace" font-size="13.00" fill="#2aa198">Hello,&#160;Markie!</text><text x="262.40" y="877.60" font-family="monospace" font-size="13.00" fill="#839496">&quot;</text><text x="270.20" y="877.60" font-family="monospace" font-size="13.00" fill="#657b83">)</text><text x="278.00" y="877.60" font-family="monospace" font-size="13.00" fill="#839496">;</text><text x="44.00" y="898.40" font-family="monospace" font-size="13.00" fill="#657b83">}</text><text x="32.00" y="955.24" font-family="sans-serif" font-size="28.80" fill="#268bd2" font-weight="700">Tables</text><rect x="32.00" y="977.00" width="188.69" height="73.60" fill="none" stroke="#eee8d5" stroke-width="1" /><rect x="32.00" y="977.00" width="62.90" height="36.80" fill="none" stroke="#eee8d5" stroke-width="1" /><text x="40.00" y="995.40" font-family="sans-serif" font-size="16.00" fill="#586e75">Data&#160;1</text><rect x="94.90" y="977.00" width="62.90" height="36.80" fill="none" stroke="#eee8d5" stroke-width="1" /><text x="102.90" y="995.40" font-family="sans-serif" font-size="16.00" fill="#586e75">Data&#160;2</text><rect x="157.79" y="977.00" width="62.90" height="36.80" fill="none" stroke="#eee8d5" stroke-width="1" /><text x="165.79" y="995.40" font-family="sans-serif" font-size="16.00" fill="#586e75">Data&#160;3</text><rect x="32.00" y="1013.80" width="62.90" height="36.80" fill="none" stroke="#eee8d5" stroke-width="1" /><text x="40.00" y="1032.20" font-family="sans-serif" font-size="16.00" fill="#586e75">Data&#160;4</text><rect x="94.90" y="1013.80" width="62.90" height="36.80" fill="none" stroke="#eee8d5" stroke-width="1" /><text x="102.90" y="1032.20" font-family="sans-serif" font-size="16.00" fill="#586e75">Data&#160;5</text><rect x="157.79" y="1013.80" width="62.90" height="36.80" fill="none" stroke="#eee8d5" stroke-width="1" /><text x="165.79" y="1032.20" font-family="sans-serif" font-size="16.00" fill="#586e75">Data&#160;6</text><text x="32.00" y="1096.84" font-family="sans-serif" font-size="28.80" fill="#268bd2" font-weight="700">Blockquotes</text><text x="64.00" y="1121.80" font-family="sans-serif" font-size="16.00" fill="#586e75">This</text><text x="98.77" y="1121.80" font-family="sans-serif" font-size="16.00" fill="#586e75">is</text><text x="114.24" y="1121.80" font-family="sans-serif" font-size="16.00" fill="#586e75">a</text><text x="126.83" y="1121.80" font-family="sans-serif" font-size="16.00" fill="#586e75">blockquote.</text><text x="64.00" y="1147.40" font-family="sans-serif" font-size="16.00" fill="#586e75">It</text><text x="78.30" y="1147.40" font-family="sans-serif" font-size="16.00" fill="#586e75">can</text><text x="108.64" y="1147.40" font-family="sans-serif" font-size="16.00" fill="#586e75">span</text><text x="148.14" y="1147.40" font-family="sans-serif" font-size="16.00" fill="#586e75">multiple</text><text x="214.56" y="1147.40" font-family="sans-serif" font-size="16.00" fill="#586e75">lines.</text><line x1="38.00" y1="1096.20" x2="38.00" y2="1166.60" stroke="#eee8d5" stroke-width="2" /><text x="32.00" y="1196.84" font-family="sans-serif" font-size="28.80" fill="#268bd2" font-weight="700">Math</text><text x="32.00" y="1221.80" font-family="sans-serif" font-size="16.00" fill="#586e75">Inline</text><text x="77.60" y="1221.80" font-family="sans-serif" font-size="16.00" fill="#586e75">math:</text><g transform="translate(124.96, 1221.80)"><text x="0.00" y="0.00" font-family="serif" font-size="16.00" fill="#586e75" font-style="italic">E</text><text x="12.00" y="0.00" font-family="serif" font-size="16.00" fill="#586e75">=</text><text x="23.28" y="0.00" font-family="serif" font-size="16.00" fill="#586e75" font-style="italic">m</text><text x="32.88" y="0.00" font-family="serif" font-size="16.00" fill="#586e75" font-style="italic">c</text><text x="42.48" y="-6.60" font-family="serif" font-size="11.20" fill="#586e75">2</text></g><text x="32.00" y="1253.80" font-family="sans-serif" font-size="16.00" fill="#586e75">Display</text><text x="90.29" y="1253.80" font-family="sans-serif" font-size="16.00" fill="#586e75">math:</text><g transform="translate(378.24, 1326.12)"><text x="2.40" y="1.28" font-family="serif" font-size="22.40" fill="#586e75">∑</text><text x="10.48" y="-22.92" font-family="serif" font-size="10.40" fill="#586e75" font-style="italic">n</text><text x="3.15" y="16.92" font-family="serif" font-size="10.40" fill="#586e75" font-style="italic">i</text><text x="10.95" y="16.92" font-family="serif" font-size="10.40" fill="#586e75">=</text><text x="18.28" y="16.92" font-family="serif" font-size="10.40" fill="#586e75">1</text><text x="27.20" y="0.00" font-family="serif" font-size="16.00" fill="#586e75" font-style="italic">x</text><text x="36.80" y="7.92" font-family="serif" font-size="11.20" fill="#586e75" font-style="italic">i</text></g><text x="32.00" y="1391.88" font-family="sans-serif" font-size="28.80" fill="#268bd2" font-weight="700">Advanced</text><text x="182.88" y="1391.88" font-family="sans-serif" font-size="28.80" fill="#268bd2" font-weight="700">Math</text><text x="266.23" y="1391.88" font-family="sans-serif" font-size="28.80" fill="#268bd2" font-weight="700">(nth</text><text x="335.32" y="1391.88" font-family="sans-serif" font-size="28.80" fill="#268bd2" font-weight="700">root,</text><text x="413.28" y="1391.88" font-family="sans-serif" font-size="28.80" fill="#268bd2" font-weight="700">binomial,</text><text x="563.24" y="1391.88" font-family="sans-serif" font-size="28.80" fill="#268bd2" font-weight="700">matrix)</text><text x="32.00" y="1416.84" font-family="sans-serif" font-size="16.00" fill="#586e75">Inline</text><text x="77.60" y="1416.84" font-family="sans-serif" font-size="16.00" fill="#586e75">nth-root:</text><g transform="translate(148.10, 1416.84)"><text x="0.00" y="-4.50" font-family="serif" font-size="9.60" fill="#586e75">3</text><path d="M 8.00 -2.40 L 11.36 0.00 L 13.76 -17.40 L 64.51 -17.40 L 62.91 -18.20" stroke="#586e75" stroke-width="1.2" fill="none" /><text x="17.60" y="0.00" font-family="serif" font-size="16.00" fill="#586e75" font-style="italic">x</text><text x="27.20" y="-6.60" font-family="serif" font-size="11.20" fill="#586e75">3</text><text x="35.82" y="0.00" font-family="serif" font-size="16.00" fill="#586e75">+</text><text x="47.10" y="0.00" font-family="serif" font-size="16.00" fill="#586e75" font-style="italic">y</text><text x="56.70" y="-6.60" font-family="serif" font-size="11.20" fill="#586e75">3</text></g><text x="32.00" y="1448.84" font-family="sans-serif" font-size="16.00" fill="#586e75">Inline</text><text x="77.60" y="1448.84" font-family="sans-serif" font-size="16.00" fill="#586e75">binomial:</text><g transform="translate(152.14, 1448.84)"><text x="1.28" y="0.00" font-family="serif" font-size="16.00" fill="#586e75">(</text><text x="8.61" y="-10.60" font-family="serif" font-size="13.60" fill="#586e75" font-style="italic">n</text><text x="8.61" y="7.80" font-family="serif" font-size="13.60" fill="#586e75" font-style="italic">k</text><text x="18.69" y="0.00" font-family="serif" font-size="16.00" fill="#586e75">)</text></g><text x="32.00" y="1480.84" font-family="sans-serif" font-size="16.00" fill="#586e75">Display</text><text x="90.29" y="1480.84" font-family="sans-serif" font-size="16.00" fill="#586e75">matrix:</text><g transform="translate(382.75, 1539.24)"><text x="1.28" y="0.00" font-family="serif" font-size="16.00" fill="#586e75">[</text><text x="5.41" y="-6.00" font-family="serif" font-size="14.40" fill="#586e75" font-style="italic">a</text><text x="20.45" y="-6.00" font-family="serif" font-size="14.40" fill="#586e75" font-style="italic">b</text><text x="5.41" y="13.20" font-family="serif" font-size="14.40" fill="#586e75" font-style="italic">c</text><text x="20.45" y="13.20" font-family="serif" font-size="14.40" fill="#586e75" font-style="italic">d</text><text x="27.81" y="0.00" font-family="serif" font-size="16.00" fill="#586e75">]</text></g><text x="32.00" y="1584.84" font-family="sans-serif" font-size="16.00" fill="#586e75">Mixed</text><text x="79.42" y="1584.84" font-family="sans-serif" font-size="16.00" fill="#586e75">expression:</text><g transform="translate(348.41, 1652.19)"><text x="0.00" y="-7.01" font-family="serif" font-size="9.60" fill="#586e75">4</text><path d="M 8.00 -2.40 L 11.36 0.00 L 13.76 -25.75 L 64.12 -25.75 L 62.52 -26.55" stroke="#586e75" stroke-width="1.2" fill="none" /><text x="20.80" y="-10.60" font-family="serif" font-size="13.60" fill="#586e75" font-style="italic">a</text><text x="28.96" y="-16.21" font-family="serif" font-size="9.52" fill="#586e75">2</text><text x="36.28" y="-10.60" font-family="serif" font-size="13.60" fill="#586e75">+</text><text x="45.87" y="-10.60" font-family="serif" font-size="13.60" fill="#586e75" font-style="italic">b</text><text x="54.03" y="-16.21" font-family="serif" font-size="9.52" fill="#586e75">2</text><line x1="17.60" y1="-4.80" x2="62.52" y2="-4.80" stroke="#586e75" stroke-width="1" /><text x="33.34" y="10.35" font-family="serif" font-size="13.60" fill="#586e75" font-style="italic">c</text><text x="41.50" y="4.74" font-family="serif" font-size="9.52" fill="#586e75">2</text><text x="66.52" y="0.00" font-family="serif" font-size="16.00" fill="#586e75">+</text><text x="79.08" y="0.00" font-family="serif" font-size="16.00" fill="#586e75">(</text><text x="86.40" y="-10.60" font-family="serif" font-size="13.60" fill="#586e75" font-style="italic">n</text><text x="86.71" y="7.80" font-family="serif" font-size="13.60" fill="#586e75">2</text><text x="96.48" y="0.00" font-family="serif" font-size="16.00" fill="#586e75">)</text></g><text x="32.00" y="1712.18" font-family="sans-serif" font-size="28.80" fill="#268bd2" font-weight="700">Mermaid</text><text x="172.80" y="1712.18" font-family="sans-serif" font-size="28.80" fill="#268bd2" font-weight="700">Diagrams</text><text x="32.00" y="1757.94" font-family="sans-serif" font-size="24.00" fill="#268bd2" font-weight="700">Flowchart</text><rect x="32.00" y="1772.34" width="736.00" height="192.61" rx="4.00" fill="#073642" /><g transform="translate(42.00, 1782.34) scale(0.9920)"><line x1="86.00" y1="92.00" x2="134.00" y2="92.00" stroke="#517072" stroke-width="0.75" /><polygon points="134.00,92.00 126.00,87.20 126.00,96.80" fill="#517072" /><circle cx="91.00" cy="92.00" r="5" fill="#0e3c47" stroke="#517072" stroke-width="1" /><polyline points="218.43,77.13 242.43,77.13 242.43,60.21 266.43,60.21" fill="none" stroke="#517072" stroke-width="0.75" /><circle cx="223.43" cy="77.13" r="5" fill="#0e3c47" stroke="#517072" stroke-width="1" /><polyline points="218.43,106.02 242.43,106.02 242.43,121.96 266.43,121.96" fill="none" stroke="#517072" stroke-width="0.75" /><line x1="264.38" y1="126.91" x2="254.48" y2="117.01" stroke="#517072" stroke-width="2.5" /><line x1="264.38" y1="117.01" x2="254.48" y2="126.91" stroke="#517072" stroke-width="2.5" /><polyline points="335.77,59.21 367.37,59.21 367.37,79.64 398.98,79.64" fill="none" stroke="#517072" stroke-width="0.75" /><line x1="396.92" y1="84.59" x2="387.03" y2="74.69" stroke="#517072" stroke-width="2.5" /><line x1="396.92" y1="74.69" x2="387.03" y2="84.59" stroke="#517072" stroke-width="2.5" /><line x1="337.82" y1="54.26" x2="347.71" y2="64.16" stroke="#517072" stroke-width="2.5" /><line x1="337.82" y1="64.16" x2="347.71" y2="54.26" stroke="#517072" stroke-width="2.5" /><line x1="475.42" y1="92.00" x2="523.42" y2="92.00" stroke="#517072" stroke-width="0.75" stroke-dasharray="4,4" /><polygon points="523.42,92.00 515.42,87.20 515.42,96.80" fill="#517072" /><polygon points="475.42,92.00 483.42,96.80 483.42,87.20" fill="#517072" /><line x1="584.50" y1="92.00" x2="632.50" y2="92.00" stroke="#517072" stroke-width="1.50" /><polygon points="632.50,92.00 624.50,87.20 624.50,96.80" fill="#517072" /><rect x="580.82" y="80.47" width="55.36" height="23.05" rx="4" fill="#fdf6e3" stroke="#385c62" stroke-width="0.5" /><text x="608.50" y="92.00" dy="0.35em" font-family="sans-serif" font-size="11.1" fill="#9ba9a3" text-anchor="middle">fast lane</text><rect x="30.00" y="74.00" width="56.00" height="36.00" fill="#0e3c47" stroke="#385c62" stroke-width="1" /><text x="58.00" y="92.00" dy="0.35em" font-family="sans-serif" font-size="13.0" font-weight="500" fill="#fdf6e3" text-anchor="middle">API</text><rect x="134.00" y="74.00" width="84.43" height="36.00" fill="#0e3c47" stroke="#385c62" stroke-width="1" /><text x="176.21" y="92.00" dy="0.35em" font-family="sans-serif" font-size="13.0" font-weight="500" fill="#fdf6e3" text-anchor="middle">Gateway</text><rect x="266.43" y="30.00" width="69.34" height="36.00" fill="#0e3c47" stroke="#385c62" stroke-width="1" /><text x="301.10" y="48.00" dy="0.35em" font-family="sans-serif" font-size="13.0" font-weight="500" fill="#fdf6e3" text-anchor="middle">Cache</text><rect x="266.43" y="118.00" width="84.55" height="36.00" fill="#0e3c47" stroke="#385c62" stroke-width="1" /><text x="308.70" y="136.00" dy="0.35em" font-family="sans-serif" font-size="13.0" font-weight="500" fill="#fdf6e3" text-anchor="middle">Rejected</text><rect x="398.98" y="74.00" width="76.45" height="36.00" fill="#0e3c47" stroke="#385c62" stroke-width="1" /><text x="437.20" y="92.00" dy="0.35em" font-family="sans-serif" font-size="13.0" font-weight="500" fill="#fdf6e3" text-anchor="middle">Replica</text><rect x="523.42" y="74.00" width="61.08" height="36.00" fill="#0e3c47" stroke="#385c62" stroke-width="1" /><text x="553.96" y="92.00" dy="0.35em" font-family="sans-serif" font-size="13.0" font-weight="500" fill="#fdf6e3" text-anchor="middle">Sync</text><rect x="632.50" y="74.00" width="69.26" height="36.00" fill="#0e3c47" stroke="#385c62" stroke-width="1" /><text x="667.13" y="92.00" dy="0.35em" font-family="sans-serif" font-size="13.0" font-weight="500" fill="#fdf6e3" text-anchor="middle">Ready</text></g><text x="32.00" y="2004.95" font-family="sans-serif" font-size="24.00" fill="#268bd2" font-weight="700">Sequence</text><rect x="32.00" y="2019.35" width="736.00" height="572.00" rx="4.00" fill="#073642" /><g transform="translate(105.08, 2029.35) scale(1.0000)"><rect x="40.00" y="20.00" width="96.00" height="36.00" fill="#0e3c47" stroke="#385c62" stroke-width="1" rx="4" /><text x="88.00" y="38.00" dy="0.35em" font-family="sans-serif" font-size="13.0" font-weight="500" fill="#fdf6e3" text-anchor="middle">Client</text><rect x="208.00" y="20.00" width="96.00" height="36.00" fill="#0e3c47" stroke="#385c62" stroke-width="1" rx="4" /><text x="256.00" y="38.00" dy="0.35em" font-family="sans-serif" font-size="13.0" font-weight="500" fill="#fdf6e3" text-anchor="middle">Gateway</text><rect x="376.00" y="20.00" width="96.00" height="36.00" fill="#0e3c47" stroke="#385c62" stroke-width="1" rx="4" /><text x="424.00" y="38.00" dy="0.35em" font-family="sans-serif" font-size="13.0" font-weight="500" fill="#fdf6e3" text-anchor="middle">Service</text><line x1="88.00" y1="64.00" x2="88.00" y2="498.00" stroke="#517072" stroke-width="0.75" stroke-dasharray="6,4" /><line x1="256.00" y1="64.00" x2="256.00" y2="498.00" stroke="#517072" stroke-width="0.75" stroke-dasharray="6,4" /><line x1="424.00" y1="64.00" x2="424.00" y2="498.00" stroke="#517072" stroke-width="0.75" stroke-dasharray="6,4" /><rect x="100.00" y="72.00" width="91.28" height="28" rx="3" fill="#0e3c47" fill-opacity="0.25" stroke="#385c62" stroke-width="1" /><text x="108.00" y="90.00" font-family="sans-serif" font-size="10.4" fill="#fdf6e3">trigger request</text><line x1="88.00" y1="132.00" x2="256.00" y2="132.00" stroke="#517072" stroke-width="0.75" /><polygon points="256.00,132.00 246.00,127.00 246.00,137.00" fill="#517072" /><text x="172.00" y="124.00" font-family="sans-serif" font-size="11.1" fill="#fdf6e3" text-anchor="middle">GET /items</text><line x1="256.00" y1="182.00" x2="424.00" y2="182.00" stroke="#517072" stroke-width="0.75" /><polygon points="424.00,182.00 414.00,177.00 414.00,187.00" fill="#517072" /><text x="340.00" y="174.00" font-family="sans-serif" font-size="11.1" fill="#fdf6e3" text-anchor="middle">validate + fetch</text><text x="10.00" y="232.00" font-family="sans-serif" font-size="10.4" fill="#fdf6e3" font-weight="bold">alt success</text><line x1="424.00" y1="250.00" x2="256.00" y2="250.00" stroke="#517072" stroke-width="0.75" stroke-dasharray="4,4" /><polyline points="266.00,245.00 256.00,250.00 266.00,255.00" fill="none" stroke="#517072" stroke-width="0.75" /><text x="340.00" y="242.00" font-family="sans-serif" font-size="11.1" fill="#fdf6e3" text-anchor="middle">200 OK</text><line x1="256.00" y1="300.00" x2="88.00" y2="300.00" stroke="#517072" stroke-width="0.75" stroke-dasharray="4,4" /><polyline points="98.00,295.00 88.00,300.00 98.00,305.00" fill="none" stroke="#517072" stroke-width="0.75" /><text x="172.00" y="292.00" font-family="sans-serif" font-size="11.1" fill="#fdf6e3" text-anchor="middle">200 OK</text><line x1="4.00" y1="352.00" x2="460.00" y2="352.00" stroke="#517072" stroke-width="1" stroke-dasharray="5,3" /><text x="10.00" y="348.00" font-family="sans-serif" font-size="10.1" fill="#fdf6e3">transient error</text><line x1="424.00" y1="382.00" x2="256.00" y2="382.00" stroke="#517072" stroke-width="0.75" stroke-dasharray="4,4" /><polyline points="266.00,377.00 256.00,382.00 266.00,387.00" fill="none" stroke="#517072" stroke-width="0.75" /><text x="340.00" y="374.00" font-family="sans-serif" font-size="11.1" fill="#fdf6e3" text-anchor="middle">503</text><line x1="256.00" y1="432.00" x2="88.00" y2="432.00" stroke="#517072" stroke-width="0.75" stroke-dasharray="4,4" /><polyline points="98.00,427.00 88.00,432.00 98.00,437.00" fill="none" stroke="#517072" stroke-width="0.75" /><text x="172.00" y="424.00" font-family="sans-serif" font-size="11.1" fill="#fdf6e3" text-anchor="middle">retry later</text><rect x="4.00" y="218.00" width="456.00" height="280.00" fill="none" stroke="#517072" stroke-width="1" stroke-dasharray="5,3" /></g><text x="32.00" y="2631.35" font-family="sans-serif" font-size="24.00" fill="#268bd2" font-weight="700">Class</text><rect x="32.00" y="2645.75" width="736.00" height="289.04" rx="4.00" fill="#073642" /><g transform="translate(285.00, 2655.75) scale(1.0000)"><rect x="30.00" y="30.00" width="180.00" height="96.78" fill="#0e3c47" stroke="#385c62" stroke-width="1" /><rect x="30.50" y="30.50" width="179.00" height="27.00" fill="#1a454f" /><text x="120.00" y="43.50" dy="0.35em" font-family="sans-serif" font-size="13.0" fill="#fdf6e3" text-anchor="middle" font-weight="bold">Animal</text><line x1="30.00" y1="57.00" x2="210.00" y2="57.00" stroke="#385c62" stroke-width="0.75" /><text x="38.00" y="74.00" font-family="monospace" font-size="11.1" fill="#fdf6e3">+ String name</text><text x="38.00" y="85.70" font-family="monospace" font-size="11.1" fill="#fdf6e3">+ int age</text><line x1="30.00" y1="99.40" x2="210.00" y2="99.40" stroke="#385c62" stroke-width="1" /><text x="38.00" y="114.40" font-family="monospace" font-size="11.1" fill="#fdf6e3">+ makeSound()</text><rect x="30.00" y="178.78" width="180.00" height="70.26" fill="#0e3c47" stroke="#385c62" stroke-width="1" /><rect x="30.50" y="179.28" width="179.00" height="27.00" fill="#1a454f" /><text x="120.00" y="192.28" dy="0.35em" font-family="sans-serif" font-size="13.0" fill="#fdf6e3" text-anchor="middle" font-weight="bold">Dog</text><line x1="30.00" y1="205.78" x2="210.00" y2="205.78" stroke="#385c62" stroke-width="0.75" /><line x1="30.00" y1="224.78" x2="210.00" y2="224.78" stroke="#385c62" stroke-width="1" /><text x="38.00" y="239.78" font-family="monospace" font-size="11.1" fill="#fdf6e3">+ bark()</text><line x1="120.00" y1="126.78" x2="120.00" y2="178.78" stroke="#517072" stroke-width="0.75" /><polygon points="120.00,126.78 113.00,140.78 127.00,140.78" fill="#0e3c47" stroke="#517072" stroke-width="1" /></g><text x="32.00" y="2974.79" font-family="sans-serif" font-size="24.00" fill="#268bd2" font-weight="700">State</text><rect x="32.00" y="2989.19" width="736.00" height="700.00" rx="4.00" fill="#073642" /><g transform="translate(175.00, 2999.19) scale(1.0000)"><line x1="230.00" y1="54.00" x2="230.00" y2="106.00" stroke="#517072" stroke-width="0.75" /><polygon points="230.00,106.00 235.00,96.00 225.00,96.00" fill="#517072" /><line x1="222.33" y1="146.00" x2="202.38" y2="198.00" stroke="#517072" stroke-width="0.75" /><polygon points="202.38,198.00 210.63,190.45 201.30,186.87" fill="#517072" /><line x1="260.43" y1="146.00" x2="339.57" y2="198.00" stroke="#517072" stroke-width="0.75" /><polygon points="339.57,198.00 333.95,188.33 328.46,196.69" fill="#517072" /><line x1="202.38" y1="492.00" x2="222.33" y2="544.00" stroke="#517072" stroke-width="0.75" /><polygon points="222.33,544.00 223.42,532.87 214.08,536.45" fill="#517072" /><text x="193.16" y="518.21" font-family="sans-serif" font-size="11.1" fill="#9ba9a3" text-anchor="middle">done</text><line x1="262.00" y1="279.23" x2="334.72" y2="238.00" stroke="#517072" stroke-width="0.75" /><polygon points="334.72,238.00 323.56,238.58 328.49,247.28" fill="#517072" /><text x="315.97" y="269.33" font-family="sans-serif" font-size="11.1" fill="#9ba9a3" text-anchor="middle">fatal</text><line x1="339.57" y1="198.00" x2="260.43" y2="146.00" stroke="#517072" stroke-width="0.75" /><polygon points="260.43,146.00 266.05,155.67 271.54,147.31" fill="#517072" /><line x1="230.00" y1="584.00" x2="230.00" y2="636.00" stroke="#517072" stroke-width="0.75" /><polygon points="230.00,636.00 235.00,626.00 225.00,626.00" fill="#517072" /><circle cx="230.00" cy="42.00" r="12.00" fill="#385c62" /><rect x="170.00" y="106.00" width="120.00" height="40.00" rx="10.00" fill="#0e3c47" stroke="#385c62" stroke-width="1" /><text x="230.00" y="130.33" font-family="sans-serif" font-size="13.0" fill="#fdf6e3" text-anchor="middle">Idle</text><rect x="30.00" y="198.00" width="232.00" height="294.00" rx="10.00" fill="#0e3c47" stroke="#385c62" stroke-width="1" /><text x="146.00" y="219.00" font-family="sans-serif" font-size="13.0" fill="#fdf6e3" text-anchor="middle">Running</text><rect x="86.00" y="256.00" width="120.00" height="40.00" rx="10.00" fill="#0e3c47" stroke="#385c62" stroke-width="1" /><text x="146.00" y="280.33" font-family="sans-serif" font-size="13.0" fill="#fdf6e3" text-anchor="middle">Validate</text><rect x="86.00" y="316.00" width="120.00" height="40.00" rx="10.00" fill="#0e3c47" stroke="#385c62" stroke-width="1" /><text x="146.00" y="340.33" font-family="sans-serif" font-size="13.0" fill="#fdf6e3" text-anchor="middle">Execute</text><rect x="86.00" y="376.00" width="120.00" height="40.00" rx="10.00" fill="#0e3c47" stroke="#385c62" stroke-width="1" /><text x="146.00" y="400.33" font-family="sans-serif" font-size="13.0" fill="#fdf6e3" text-anchor="middle">Persist</text><rect x="86.00" y="436.00" width="120.00" height="40.00" rx="10.00" fill="#0e3c47" stroke="#385c62" stroke-width="1" /><text x="146.00" y="460.33" font-family="sans-serif" font-size="13.0" fill="#fdf6e3" text-anchor="middle">Recover</text><line x1="146.00" y1="296.00" x2="146.00" y2="316.00" stroke="#517072" stroke-width="0.75" /><polygon points="146.00,316.00 151.00,306.00 141.00,306.00" fill="#517072" /><text x="164.00" y="309.60" font-family="sans-serif" font-size="11.1" fill="#9ba9a3" text-anchor="middle">ok</text><line x1="146.00" y1="356.00" x2="146.00" y2="376.00" stroke="#517072" stroke-width="0.75" /><polygon points="146.00,376.00 151.00,366.00 141.00,366.00" fill="#517072" /><text x="128.00" y="363.60" font-family="sans-serif" font-size="11.1" fill="#9ba9a3" text-anchor="middle">save</text><line x1="146.00" y1="416.00" x2="146.00" y2="436.00" stroke="#517072" stroke-width="0.75" /><polygon points="146.00,436.00 151.00,426.00 141.00,426.00" fill="#517072" /><text x="128.00" y="416.40" font-family="sans-serif" font-size="11.1" fill="#9ba9a3" text-anchor="middle">fail</text><polyline points="206.00,456.00 236.00,456.00 236.00,276.00 206.00,276.00" fill="none" stroke="#517072" stroke-width="0.75" /><polygon points="206.00,276.00 196.00,271.00 196.00,281.00" fill="#517072" /><line x1="206.00" y1="453.00" x2="234.00" y2="453.00" stroke="#517072" stroke-width="1" stroke-dasharray="4,3" /><rect x="234.00" y="440.00" width="111.92" height="26.00" rx="3" fill="#0e3c47" fill-opacity="0.25" stroke="#385c62" stroke-width="1" /><text x="242.00" y="456.90" font-family="sans-serif" font-size="10.4" fill="#9ba9a3">exponential backoff</text><rect x="310.00" y="198.00" width="120.00" height="40.00" rx="10.00" fill="#0e3c47" stroke="#385c62" stroke-width="1" /><text x="370.00" y="222.33" font-family="sans-serif" font-size="13.0" fill="#fdf6e3" text-anchor="middle">Error</text><rect x="170.00" y="544.00" width="120.00" height="40.00" rx="10.00" fill="#0e3c47" stroke="#385c62" stroke-width="1" /><text x="230.00" y="568.33" font-family="sans-serif" font-size="13.0" fill="#fdf6e3" text-anchor="middle">Success</text><circle cx="230.00" cy="648.00" r="9.00" fill="#385c62" stroke="#385c62" stroke-width="2" /><circle cx="230.00" cy="648.00" r="12.00" fill="none" stroke="#385c62" stroke-width="2" /></g><text x="32.00" y="3729.19" font-family="sans-serif" font-size="24.00" fill="#268bd2" font-weight="700">ER</text><rect x="32.00" y="3743.59" width="736.00" height="126.00" rx="4.00" fill="#073642" /><g transform="translate(201.00, 3753.59) scale(1.0000)"><line x1="180.00" y1="58.00" x2="228.00" y2="58.00" stroke="#517072" stroke-width="0.75" /><line x1="188.00" y1="64.00" x2="188.00" y2="52.00" stroke="#517072" stroke-width="0.75" /><line x1="194.00" y1="64.00" x2="194.00" y2="52.00" stroke="#517072" stroke-width="0.75" /><circle cx="220.00" cy="58.00" r="4.50" fill="#fdf6e3" stroke="#517072" stroke-width="1.2" /><line x1="212.00" y1="58.00" x2="204.00" y2="50.00" stroke="#517072" stroke-width="0.75" /><line x1="212.00" y1="58.00" x2="202.00" y2="58.00" stroke="#517072" stroke-width="0.75" /><line x1="212.00" y1="58.00" x2="204.00" y2="66.00" stroke="#517072" stroke-width="0.75" /><rect x="30.00" y="30.00" width="150.00" height="56.00" fill="#0e3c47" stroke="#385c62" stroke-width="1" /><text x="105.00" y="49.00" font-family="sans-serif" font-size="13.0" fill="#fdf6e3" text-anchor="middle" font-weight="bold">CUSTOMER</text><rect x="228.00" y="30.00" width="150.00" height="56.00" fill="#0e3c47" stroke="#385c62" stroke-width="1" /><text x="303.00" y="49.00" font-family="sans-serif" font-size="13.0" fill="#fdf6e3" text-anchor="middle" font-weight="bold">ORDER</text></g><text x="32.00" y="3915.83" font-family="sans-serif" font-size="28.80" fill="#268bd2" font-weight="700">Footnotes</text><text x="32.00" y="3940.79" font-family="sans-serif" font-size="16.00" fill="#586e75">This</text><text x="66.77" y="3940.79" font-family="sans-serif" font-size="16.00" fill="#586e75">is</text><text x="82.24" y="3940.79" font-family="sans-serif" font-size="16.00" fill="#586e75">a</text><text x="94.83" y="3940.79" font-family="sans-serif" font-size="16.00" fill="#586e75">reference</text><text x="168.50" y="3933.59" font-family="sans-serif" font-size="10.40" fill="#586e75">1</text><text x="177.85" y="3940.79" font-family="sans-serif" font-size="16.00" fill="#586e75">to</text><text x="196.92" y="3940.79" font-family="sans-serif" font-size="16.00" fill="#586e75">a</text><text x="209.52" y="3940.79" font-family="sans-serif" font-size="16.00" fill="#586e75">footnote.</text><text x="59.70" y="3980.79" font-family="sans-serif" font-size="16.00" fill="#586e75">This</text><text x="32.00" y="3980.79" font-family="sans-serif" font-size="16.00" fill="#586e75">[1]</text><text x="94.46" y="3980.79" font-family="sans-serif" font-size="16.00" fill="#586e75">is</text><text x="109.94" y="3980.79" font-family="sans-serif" font-size="16.00" fill="#586e75">the</text><text x="138.13" y="3980.79" font-family="sans-serif" font-size="16.00" fill="#586e75">footnote</text><text x="205.66" y="3980.79" font-family="sans-serif" font-size="16.00" fill="#586e75">content.</text><text x="32.00" y="4030.23" font-family="sans-serif" font-size="28.80" fill="#268bd2" font-weight="700">Definition</text><text x="187.20" y="4030.23" font-family="sans-serif" font-size="28.80" fill="#268bd2" font-weight="700">Lists</text><text x="32.00" y="4048.79" font-family="sans-serif" font-size="16.00" fill="#586e75" font-weight="700">Term</text><text x="79.12" y="4048.79" font-family="sans-serif" font-size="16.00" fill="#586e75" font-weight="700">1</text><text x="32.00" y="4074.39" font-family="sans-serif" font-size="16.00" fill="#586e75">Definition</text><text x="109.10" y="4074.39" font-family="sans-serif" font-size="16.00" fill="#586e75">1</text><text x="32.00" y="4099.99" font-family="sans-serif" font-size="16.00" fill="#586e75" font-weight="700">Term</text><text x="79.12" y="4099.99" font-family="sans-serif" font-size="16.00" fill="#586e75" font-weight="700">2</text><text x="32.00" y="4125.59" font-family="sans-serif" font-size="16.00" fill="#586e75">Definition</text><text x="109.10" y="4125.59" font-family="sans-serif" font-size="16.00" fill="#586e75">2</text><text x="32.00" y="4197.43" font-family="sans-serif" font-size="28.80" fill="#268bd2" font-weight="700">HTML</text><text x="32.00" y="4222.39" font-family="sans-serif" font-size="16.00" fill="#586e75">Inline</text><rect x="77.60" y="4207.99" width="70.80" height="21.00" rx="4.00" fill="#073642" /><text x="89.60" y="4222.39" font-family="monospace" font-size="13.00" fill="#586e75">&lt;span&gt;</text><text x="151.98" y="4222.39" font-family="sans-serif" font-size="16.00" fill="#586e75">tags</text><text x="186.74" y="4222.39" font-family="sans-serif" font-size="16.00" fill="#586e75">are</text><text x="214.22" y="4222.39" font-family="sans-serif" font-size="16.00" fill="#586e75">rendered</text><text x="286.06" y="4222.39" font-family="sans-serif" font-size="16.00" fill="#586e75">as</text><text x="306.14" y="4222.39" font-family="sans-serif" font-size="16.00" fill="#586e75">code.</text><rect x="32.00" y="4241.59" width="367.20" height="29.00" rx="4.00" fill="#073642" /><text x="44.00" y="4259.99" font-family="monospace" font-size="13.00" fill="#586e75">&lt;</text><text x="51.80" y="4259.99" font-family="monospace" font-size="13.00" fill="#268bd2">div</text><text x="75.20" y="4259.99" font-family="monospace" font-size="13.00" fill="#586e75">&gt;</text><text x="83.00" y="4259.99" font-family="monospace" font-size="13.00" fill="#839496">HTML&#160;blocks&#160;render&#160;as&#160;code&#160;blocks</text><text x="340.40" y="4259.99" font-family="monospace" font-size="13.00" fill="#586e75">&lt;/</text><text x="356.00" y="4259.99" font-family="monospace" font-size="13.00" fill="#268bd2">div</text><text x="379.40" y="4259.99" font-family="monospace" font-size="13.00" fill="#586e75">&gt;</text></svg>